<?xml version="1.0" standalone="no"?><!DOCTYPE svg PUBLIC "-//W3C//DTD SVG 1.1//EN" "http://www.w3.org/Graphics/SVG/1.1/DTD/svg11.dtd" ><svg version="1.1" xmlns="http://www.w3.org/2000/svg"><defs><font horiz-adv-x="0" id="font"><font-face ascent="756" bbox="-161 -291 1173 1005" cap-height="708" descent="-244" font-family="Fidelity Sans" font-stretch="normal" font-style="normal" font-weight="400" units-per-em="1000" x-height="480" /><missing-glyph d="M475 0H25V708H475ZM112 497H182Q226 497 253 520.5Q280 544 280 584Q280 625 253.5 646.5Q227 668 179 668H76V369H112ZM112 637H180Q207 637 224 623Q241 609 241 584Q241 559 224.5 544Q208 529 181 529H112ZM399 364Q406 364 414 365.5Q422 367 429 369V396Q425 394 419.5 393Q414 392 408 392Q391 392 383 400.5Q375 409 375 426V543H429V572H375V627H342V572H304V543H342V419Q342 393 357 378.5Q372 364 399 364Z" horiz-adv-x="500" /><glyph glyph-name=".null" horiz-adv-x="0" /><glyph d="M495 246 350 615 199 246ZM687 0H592L524 174H170L99 0H7L311 708H391ZM337 764ZM336 -20ZM635 -20Z" glyph-name="A" horiz-adv-x="694" unicode="A" /><glyph d="M461 637H436L224 245H461ZM904 0H461V173H185L91 0H0L383 708H889V634H548V401H866V327H548V73H904Z" glyph-name="AE" horiz-adv-x="951" unicode="&#198;" /><glyph d="M495 246 350 615 199 246ZM687 0H592L524 174H170L99 0H7L311 708H391ZM489 945 362 801H289L395 945ZM326 796" glyph-name="Aacute" horiz-adv-x="694" unicode="&#193;" /><glyph d="M495 246 350 615 199 246ZM687 0H592L524 174H170L99 0H7L311 708H391ZM415 935H483Q473 873 436.5 838.5Q400 804 344 804Q289 804 253.5 838.5Q218 873 210 935H277Q280 901 298.5 881Q317 861 344 861Q375 861 392.5 879Q410 897 415 935ZM326 796" glyph-name="Abreve" horiz-adv-x="694" unicode="&#258;" /><glyph d="M495 246 350 615 199 246ZM687 0H592L524 174H170L99 0H7L311 708H391ZM506 801H424L347 919L270 801H189L296 945H398ZM326 796" glyph-name="Acircumflex" horiz-adv-x="694" unicode="&#194;" /><glyph d="M495 246 350 615 199 246ZM687 0H592L524 174H170L99 0H7L311 708H391ZM476 882Q476 863 462 849Q448 835 429 835Q409 835 394.5 848.5Q380 862 380 882Q380 901 394.5 914.5Q409 928 429 928Q448 928 462 914.5Q476 901 476 882ZM313 882Q313 863 299 849Q285 835 266 835Q246 835 232 848.5Q218 862 218 882Q218 901 232 914.5Q246 928 266 928Q285 928 299 914.5Q313 901 313 882ZM326 796" glyph-name="Adieresis" horiz-adv-x="694" unicode="&#196;" /><glyph d="M495 246 350 615 199 246ZM687 0H592L524 174H170L99 0H7L311 708H391ZM404 801H331L206 945H298ZM326 796" glyph-name="Agrave" horiz-adv-x="694" unicode="&#192;" /><glyph d="M495 246 350 615 199 246ZM687 0H592L524 174H170L99 0H7L311 708H391ZM478 845H214V897H478ZM326 796" glyph-name="Amacron" horiz-adv-x="694" unicode="&#256;" /><glyph d="M495 246 350 615 199 246ZM490 -144Q490 -110 516 -73.5Q542 -37 592 0L524 174H170L99 0H7L311 708H391L687 0H643Q593 -47 573.5 -76.5Q554 -106 554 -133Q554 -158 568 -172.5Q582 -187 607 -187Q626 -187 642.5 -180.5Q659 -174 671 -162L688 -196Q670 -211 646 -219Q622 -227 592 -227Q545 -227 517.5 -205Q490 -183 490 -144Z" glyph-name="Aogonek" horiz-adv-x="694" unicode="&#260;" /><glyph d="M350 847Q324 847 306 829Q288 811 288 785Q288 759 306 740.5Q324 722 350 722Q375 722 393 740.5Q411 759 411 785Q411 811 393.5 829Q376 847 350 847ZM495 246 350 615 199 246ZM687 0H592L524 174H170L99 0H7L297 676Q265 691 246 720.5Q227 750 227 785Q227 834 263.5 869.5Q300 905 350 905Q400 905 436 869.5Q472 834 472 785Q472 750 453.5 721.5Q435 693 404 677Z" glyph-name="Aring" horiz-adv-x="694" unicode="&#197;" /><glyph d="M495 246 350 615 199 246ZM687 0H592L524 174H170L99 0H7L311 708H391ZM287 943Q309 943 327.5 932.5Q346 922 363 900Q379 881 386.5 874.5Q394 868 402 868Q417 868 425 883.5Q433 899 437 937H490Q486 875 465 845.5Q444 816 406 816Q385 816 366.5 826.5Q348 837 330 859Q313 879 305.5 885Q298 891 291 891Q276 891 268 875.5Q260 860 256 822H204Q208 884 228.5 913.5Q249 943 287 943ZM326 796" glyph-name="Atilde" horiz-adv-x="694" unicode="&#195;" /><glyph d="M546 528Q546 473 511 430.5Q476 388 421 373V371Q488 360 532.5 312.5Q577 265 577 197Q577 105 513 52.5Q449 0 343 0H90V708H318Q423 708 484.5 660.5Q546 613 546 528ZM464 521Q464 576 423.5 606Q383 636 311 636H176V404H316Q381 404 422.5 435.5Q464 467 464 521ZM489 198Q489 259 445 295.5Q401 332 336 332H176V72H329Q405 72 447 105Q489 138 489 198ZM297 764ZM330 -20Z" glyph-name="B" horiz-adv-x="627" unicode="B" /><glyph d="M429 55Q496 55 559.5 84Q623 113 678 168V67Q624 24 558.5 2Q493 -20 421 -20Q262 -20 159.5 85Q57 190 57 354Q57 517 160 622.5Q263 728 420 728Q488 728 552.5 708.5Q617 689 666 653V555Q605 605 546.5 628.5Q488 652 428 652Q306 652 227.5 567.5Q149 483 149 354Q149 224 227.5 139.5Q306 55 429 55Z" glyph-name="C" horiz-adv-x="721" unicode="C" /><glyph glyph-name="CR" horiz-adv-x="0" unicode="" /><glyph d="M429 55Q496 55 559.5 84Q623 113 678 168V67Q624 24 558.5 2Q493 -20 421 -20Q262 -20 159.5 85Q57 190 57 354Q57 517 160 622.5Q263 728 420 728Q488 728 552.5 708.5Q617 689 666 653V555Q605 605 546.5 628.5Q488 652 428 652Q306 652 227.5 567.5Q149 483 149 354Q149 224 227.5 139.5Q306 55 429 55ZM544 945 417 801H344L450 945ZM381 796" glyph-name="Cacute" horiz-adv-x="721" unicode="&#262;" /><glyph d="M429 55Q496 55 559.5 84Q623 113 678 168V67Q624 24 558.5 2Q493 -20 421 -20Q262 -20 159.5 85Q57 190 57 354Q57 517 160 622.5Q263 728 420 728Q488 728 552.5 708.5Q617 689 666 653V555Q605 605 546.5 628.5Q488 652 428 652Q306 652 227.5 567.5Q149 483 149 354Q149 224 227.5 139.5Q306 55 429 55ZM244 945H325L401 828L478 945H561L452 801H350ZM381 796" glyph-name="Ccaron" horiz-adv-x="721" unicode="&#268;" /><glyph d="M528 -142Q528 -184 491.5 -207Q455 -230 397 -230Q373 -230 343.5 -224Q314 -218 291 -209L308 -172Q324 -180 348 -184.5Q372 -189 393 -189Q427 -189 445.5 -176.5Q464 -164 464 -141Q464 -121 449 -111Q434 -101 405 -101Q390 -101 373 -104.5Q356 -108 347 -113L324 -96L382 -18Q237 -4 147 99Q57 202 57 354Q57 517 160 622.5Q263 728 420 728Q488 728 552.5 708.5Q617 689 666 653V555Q605 605 546.5 628.5Q488 652 428 652Q306 652 227.5 567.5Q149 483 149 354Q149 224 227.5 139.5Q306 55 429 55Q496 55 559.5 84Q623 113 678 168V67Q627 27 564.5 4.5Q502 -18 433 -20L392 -74Q401 -71 411.5 -70Q422 -69 435 -69Q478 -69 503 -88Q528 -107 528 -142Z" glyph-name="Ccedilla" horiz-adv-x="721" unicode="&#199;" /><glyph d="M429 55Q496 55 559.5 84Q623 113 678 168V67Q624 24 558.5 2Q493 -20 421 -20Q262 -20 159.5 85Q57 190 57 354Q57 517 160 622.5Q263 728 420 728Q488 728 552.5 708.5Q617 689 666 653V555Q605 605 546.5 628.5Q488 652 428 652Q306 652 227.5 567.5Q149 483 149 354Q149 224 227.5 139.5Q306 55 429 55ZM561 801H479L402 919L325 801H244L351 945H453ZM381 796" glyph-name="Ccircumflex" horiz-adv-x="721" unicode="&#264;" /><glyph d="M429 55Q496 55 559.5 84Q623 113 678 168V67Q624 24 558.5 2Q493 -20 421 -20Q262 -20 159.5 85Q57 190 57 354Q57 517 160 622.5Q263 728 420 728Q488 728 552.5 708.5Q617 689 666 653V555Q605 605 546.5 628.5Q488 652 428 652Q306 652 227.5 567.5Q149 483 149 354Q149 224 227.5 139.5Q306 55 429 55ZM402 832Q380 832 365 846.5Q350 861 350 882Q350 902 365.5 917Q381 932 402 932Q422 932 437 917Q452 902 452 882Q452 861 437 846.5Q422 832 402 832ZM381 796" glyph-name="Cdotaccent" horiz-adv-x="721" unicode="&#266;" /><glyph d="M710 354Q710 187 606 93.5Q502 0 322 0H90V708H315Q502 708 606 616Q710 524 710 354ZM618 354Q618 487 537.5 560.5Q457 634 316 634H180V73H313Q459 73 538.5 145.5Q618 218 618 354ZM391 764ZM384 -20Z" glyph-name="D" horiz-adv-x="768" unicode="D" /><glyph d="M710 354Q710 187 606 93.5Q502 0 322 0H90V708H315Q502 708 606 616Q710 524 710 354ZM618 354Q618 487 537.5 560.5Q457 634 316 634H180V73H313Q459 73 538.5 145.5Q618 218 618 354ZM174 945H255L331 828L408 945H491L382 801H280ZM311 796" glyph-name="Dcaron" horiz-adv-x="768" unicode="&#270;" /><glyph d="M710 354Q710 187 606 93.5Q502 0 322 0H90V336H20V401H90V708H315Q502 708 606 616Q710 524 710 354ZM180 336V73H313Q459 73 538.5 145.5Q618 218 618 354Q618 487 537.5 560.5Q457 634 316 634H180V401H393V336Z" glyph-name="Dcroat" horiz-adv-x="769" unicode="&#272;" /><glyph d="M397 712 652 0H27L279 712ZM131 68H546L337 646Z" glyph-name="Delta" horiz-adv-x="679" unicode="&#8710;" /><glyph d="M546 0H90V708H532V634H178V401H509V327H178V73H546ZM297 764ZM330 -20ZM486 -20Z" glyph-name="E" horiz-adv-x="594" unicode="E" /><glyph d="M546 0H90V708H532V634H178V401H509V327H178V73H546ZM464 945 337 801H264L370 945ZM301 796" glyph-name="Eacute" horiz-adv-x="594" unicode="&#201;" /><glyph d="M546 0H90V708H532V634H178V401H509V327H178V73H546ZM390 935H458Q448 873 411.5 838.5Q375 804 319 804Q264 804 228.5 838.5Q193 873 185 935H252Q255 901 273.5 881Q292 861 319 861Q350 861 367.5 879Q385 897 390 935ZM301 796" glyph-name="Ebreve" horiz-adv-x="594" unicode="&#276;" /><glyph d="M546 0H90V708H532V634H178V401H509V327H178V73H546ZM164 945H245L321 828L398 945H481L372 801H270ZM301 796" glyph-name="Ecaron" horiz-adv-x="594" unicode="&#282;" /><glyph d="M546 0H90V708H532V634H178V401H509V327H178V73H546ZM481 801H399L322 919L245 801H164L271 945H373ZM301 796" glyph-name="Ecircumflex" horiz-adv-x="594" unicode="&#202;" /><glyph d="M546 0H90V708H532V634H178V401H509V327H178V73H546ZM451 882Q451 863 437 849Q423 835 404 835Q384 835 369.5 848.5Q355 862 355 882Q355 901 369.5 914.5Q384 928 404 928Q423 928 437 914.5Q451 901 451 882ZM288 882Q288 863 274 849Q260 835 241 835Q221 835 207 848.5Q193 862 193 882Q193 901 207 914.5Q221 928 241 928Q260 928 274 914.5Q288 901 288 882ZM301 796" glyph-name="Edieresis" horiz-adv-x="594" unicode="&#203;" /><glyph d="M546 0H90V708H532V634H178V401H509V327H178V73H546ZM322 832Q300 832 285 846.5Q270 861 270 882Q270 902 285.5 917Q301 932 322 932Q342 932 357 917Q372 902 372 882Q372 861 357 846.5Q342 832 322 832ZM301 796" glyph-name="Edotaccent" horiz-adv-x="594" unicode="&#278;" /><glyph d="M546 0H90V708H532V634H178V401H509V327H178V73H546ZM379 801H306L181 945H273ZM301 796" glyph-name="Egrave" horiz-adv-x="594" unicode="&#200;" /><glyph d="M546 0H90V708H532V634H178V401H509V327H178V73H546ZM453 845H189V897H453ZM301 796" glyph-name="Emacron" horiz-adv-x="594" unicode="&#274;" /><glyph d="M473 -240Q428 -240 391 -226.5Q354 -213 331 -189V-91Q360 -129 395 -149Q430 -169 467 -169Q530 -169 562 -129Q594 -89 594 -12V0H567L176 588H173L176 0H90V708H195L589 113H592L588 708H675V-14Q675 -124 623 -182Q571 -240 473 -240Z" glyph-name="Eng" horiz-adv-x="765" unicode="&#330;" /><glyph d="M328 -144Q328 -110 353.5 -73.5Q379 -37 429 0H90V708H532V634H178V401H509V327H178V73H546V0H480Q430 -47 410.5 -76.5Q391 -106 391 -133Q391 -158 405.5 -172.5Q420 -187 445 -187Q464 -187 480.5 -180.5Q497 -174 509 -162L526 -196Q508 -212 484 -219.5Q460 -227 429 -227Q382 -227 355 -205Q328 -183 328 -144Z" glyph-name="Eogonek" horiz-adv-x="594" unicode="&#280;" /><glyph d="M710 354Q710 187 606 93.5Q502 0 322 0H90V336H20V401H90V708H315Q502 708 606 616Q710 524 710 354ZM180 336V73H313Q459 73 538.5 145.5Q618 218 618 354Q618 487 537.5 560.5Q457 634 316 634H180V401H393V336Z" glyph-name="Eth" horiz-adv-x="768" unicode="&#208;" /><glyph d="M534 113V21Q500 1 459 -9.5Q418 -20 376 -20Q267 -20 188.5 48.5Q110 117 83 236H5L29 295H74Q73 309 72 322.5Q71 336 71 349Q71 366 72 381.5Q73 397 74 412H11L32 472H85Q113 590 191.5 659Q270 728 376 728Q412 728 451.5 718.5Q491 709 524 692V600Q471 630 438.5 640.5Q406 651 374 651Q306 651 252 603Q198 555 174 472H458L437 412H162Q160 398 159 383Q158 368 158 349Q158 335 159 321.5Q160 308 161 295H406L384 236H173Q196 152 250 103.5Q304 55 376 55Q415 55 452 68.5Q489 82 534 113Z" glyph-name="Euro" horiz-adv-x="560" unicode="&#8364;" /><glyph d="M522 634H179V389H494V316H179V0H90V671L75 708H522ZM297 764ZM284 -20Z" glyph-name="F" horiz-adv-x="567" unicode="F" /><glyph d="M677 667V568Q620 608 558.5 630Q497 652 440 652Q311 652 230 568Q149 484 149 354Q149 220 227.5 137Q306 54 437 54Q485 54 528 64Q571 74 608 93V306H446V379H695V89L711 55Q651 20 580 1Q509 -18 437 -18Q267 -18 162 85.5Q57 189 57 354Q57 519 162.5 623.5Q268 728 435 728Q502 728 564.5 712Q627 696 677 667ZM436 764ZM436 -20Z" glyph-name="G" horiz-adv-x="775" unicode="G" /><glyph d="M677 667V568Q620 608 558.5 630Q497 652 440 652Q311 652 230 568Q149 484 149 354Q149 220 227.5 137Q306 54 437 54Q485 54 528 64Q571 74 608 93V306H446V379H695V89L711 55Q651 20 580 1Q509 -18 437 -18Q267 -18 162 85.5Q57 189 57 354Q57 519 162.5 623.5Q268 728 435 728Q502 728 564.5 712Q627 696 677 667ZM493 935H561Q551 873 514.5 838.5Q478 804 422 804Q367 804 331.5 838.5Q296 873 288 935H355Q358 901 376.5 881Q395 861 422 861Q453 861 470.5 879Q488 897 493 935ZM404 796" glyph-name="Gbreve" horiz-adv-x="775" unicode="&#286;" /><glyph d="M677 667V568Q620 608 558.5 630Q497 652 440 652Q311 652 230 568Q149 484 149 354Q149 220 227.5 137Q306 54 437 54Q485 54 528 64Q571 74 608 93V306H446V379H695V89L711 55Q651 20 580 1Q509 -18 437 -18Q267 -18 162 85.5Q57 189 57 354Q57 519 162.5 623.5Q268 728 435 728Q502 728 564.5 712Q627 696 677 667ZM584 801H502L425 919L348 801H267L374 945H476ZM404 796" glyph-name="Gcircumflex" horiz-adv-x="775" unicode="&#284;" /><glyph d="M677 667V568Q620 608 558.5 630Q497 652 440 652Q311 652 230 568Q149 484 149 354Q149 220 227.5 137Q306 54 437 54Q485 54 528 64Q571 74 608 93V306H446V379H695V89L711 55Q651 20 580 1Q509 -18 437 -18Q267 -18 162 85.5Q57 189 57 354Q57 519 162.5 623.5Q268 728 435 728Q502 728 564.5 712Q627 696 677 667ZM315 -232 368 -50H452L386 -232ZM372 -20" glyph-name="Gcommaaccent" horiz-adv-x="775" unicode="&#290;" /><glyph d="M677 667V568Q620 608 558.5 630Q497 652 440 652Q311 652 230 568Q149 484 149 354Q149 220 227.5 137Q306 54 437 54Q485 54 528 64Q571 74 608 93V306H446V379H695V89L711 55Q651 20 580 1Q509 -18 437 -18Q267 -18 162 85.5Q57 189 57 354Q57 519 162.5 623.5Q268 728 435 728Q502 728 564.5 712Q627 696 677 667ZM425 832Q403 832 388 846.5Q373 861 373 882Q373 902 388.5 917Q404 932 425 932Q445 932 460 917Q475 902 475 882Q475 861 460 846.5Q445 832 425 832ZM404 796" glyph-name="Gdotaccent" horiz-adv-x="775" unicode="&#288;" /><glyph d="M650 0H562V331H179V0H90V708H179V404H562V708H650ZM362 764ZM362 -20ZM645 -20Z" glyph-name="H" horiz-adv-x="742" unicode="H" /><glyph d="M179 553V404H562V553ZM562 331H179V0H90V553H40V614H90V708H179V614H562V708H650V614H700V553H650V0H562Z" glyph-name="Hbar" horiz-adv-x="742" unicode="&#294;" /><glyph d="M650 0H562V331H179V0H90V708H179V404H562V708H650ZM530 801H448L371 919L294 801H213L320 945H422ZM350 796" glyph-name="Hcircumflex" horiz-adv-x="742" unicode="&#292;" /><glyph d="M179 0H90V708H179ZM118 764ZM117 -20Z" glyph-name="I" horiz-adv-x="270" unicode="I" /><glyph d="M179 0H90V708H179ZM656 708V208Q656 98 604 40Q552 -18 454 -18Q409 -18 372 -4.5Q335 9 312 33V134Q341 96 376 76Q411 56 448 56Q508 56 539 95.5Q570 135 570 210V708ZM467 -20" glyph-name="IJ" horiz-adv-x="745" unicode="&#306;" /><glyph d="M179 0H90V708H179ZM278 945 151 801H78L184 945ZM115 796" glyph-name="Iacute" horiz-adv-x="270" unicode="&#205;" /><glyph d="M179 0H90V708H179ZM204 935H272Q262 873 225.5 838.5Q189 804 133 804Q78 804 42.5 838.5Q7 873 -1 935H66Q69 901 87.5 881Q106 861 133 861Q164 861 181.5 879Q199 897 204 935ZM115 796" glyph-name="Ibreve" horiz-adv-x="270" unicode="&#300;" /><glyph d="M179 0H90V708H179ZM295 801H213L136 919L59 801H-22L85 945H187ZM115 796" glyph-name="Icircumflex" horiz-adv-x="270" unicode="&#206;" /><glyph d="M179 0H90V708H179ZM265 882Q265 863 251 849Q237 835 218 835Q198 835 183.5 848.5Q169 862 169 882Q169 901 183.5 914.5Q198 928 218 928Q237 928 251 914.5Q265 901 265 882ZM102 882Q102 863 88 849Q74 835 55 835Q35 835 21 848.5Q7 862 7 882Q7 901 21 914.5Q35 928 55 928Q74 928 88 914.5Q102 901 102 882ZM115 796" glyph-name="Idieresis" horiz-adv-x="270" unicode="&#207;" /><glyph d="M179 0H90V708H179ZM136 832Q114 832 99 846.5Q84 861 84 882Q84 902 99.5 917Q115 932 136 932Q156 932 171 917Q186 902 186 882Q186 861 171 846.5Q156 832 136 832ZM115 796" glyph-name="Idotaccent" horiz-adv-x="270" unicode="&#304;" /><glyph d="M179 0H90V708H179ZM193 801H120L-5 945H87ZM115 796" glyph-name="Igrave" horiz-adv-x="270" unicode="&#204;" /><glyph d="M179 0H90V708H179ZM267 845H3V897H267ZM115 796" glyph-name="Imacron" horiz-adv-x="270" unicode="&#298;" /><glyph d="M4 -144Q4 -110 30 -73.5Q56 -37 106 0H90V708H179V0H156Q107 -46 87.5 -75.5Q68 -105 68 -133Q68 -158 82 -172.5Q96 -187 121 -187Q140 -187 156.5 -180.5Q173 -174 185 -162L202 -196Q184 -211 160 -219Q136 -227 106 -227Q59 -227 31.5 -205Q4 -183 4 -144Z" glyph-name="Iogonek" horiz-adv-x="270" unicode="&#302;" /><glyph d="M179 0H90V708H179ZM76 943Q98 943 116.5 932.5Q135 922 152 900Q168 881 175.5 874.5Q183 868 191 868Q206 868 214 883.5Q222 899 226 937H279Q275 875 254 845.5Q233 816 195 816Q174 816 155.5 826.5Q137 837 119 859Q102 879 94.5 885Q87 891 80 891Q65 891 57 875.5Q49 860 45 822H-7Q-3 884 17.5 913.5Q38 943 76 943ZM115 796" glyph-name="Itilde" horiz-adv-x="270" unicode="&#296;" /><glyph d="M386 708V208Q386 98 334 40Q282 -18 184 -18Q139 -18 102 -4.5Q65 9 42 33V134Q71 96 106 76Q141 56 178 56Q238 56 269 95.5Q300 135 300 210V708ZM367 764ZM197 -20Z" glyph-name="J" horiz-adv-x="474" unicode="J" /><glyph d="M386 708V208Q386 98 334 40Q282 -18 184 -18Q139 -18 102 -4.5Q65 9 42 33V134Q71 96 106 76Q141 56 178 56Q238 56 269 95.5Q300 135 300 210V708ZM491 801H409L332 919L255 801H174L281 945H383ZM311 796" glyph-name="Jcircumflex" horiz-adv-x="474" unicode="&#308;" /><glyph d="M599 0H486L178 349H176V0H90V708H176V403H177L473 708H582L258 383ZM277 764ZM277 -20ZM645 -20Z" glyph-name="K" horiz-adv-x="618" unicode="K" /><glyph d="M599 0H486L178 349H176V0H90V708H176V403H177L473 708H582L258 383ZM231 -232 284 -50H368L302 -232ZM288 -20" glyph-name="Kcommaaccent" horiz-adv-x="618" unicode="&#310;" /><glyph d="M494 0H90V708H176V73H494ZM119 764ZM294 -20ZM475 -20Z" glyph-name="L" horiz-adv-x="508" unicode="L" /><glyph d="M494 0H90V708H176V73H494ZM304 945 177 801H104L210 945ZM141 796" glyph-name="Lacute" horiz-adv-x="508" unicode="&#313;" /><glyph d="M494 0H90V708H176V73H494ZM259 530 305 708H388L329 530Z" glyph-name="Lcaron" horiz-adv-x="508" unicode="&#317;" /><glyph d="M494 0H90V708H176V73H494ZM180 -232 233 -50H317L251 -232ZM237 -20" glyph-name="Lcommaaccent" horiz-adv-x="508" unicode="&#315;" /><glyph d="M494 0H90V708H176V73H494ZM372 283Q350 283 335 297.5Q320 312 320 333Q320 354 335.5 368.5Q351 383 372 383Q393 383 407.5 368.5Q422 354 422 333Q422 312 407 297.5Q392 283 372 283Z" glyph-name="Ldot" horiz-adv-x="508" unicode="&#319;" /><glyph d="M494 73V0H90V318L21 291V359L90 386V708H176V419L289 462V394L176 351V73Z" glyph-name="Lslash" horiz-adv-x="508" unicode="&#321;" /><glyph d="M431 0 178 597H173L176 0H90V708H221L460 133H464L701 708H831V0H745L746 597H742L488 0Z" glyph-name="M" horiz-adv-x="923" unicode="M" /><glyph d="M176 0H90V708H195L589 113H592L588 708H675V0H567L176 588H173ZM394 764ZM394 -20ZM645 -20Z" glyph-name="N" horiz-adv-x="765" unicode="N" /><glyph d="M176 0H90V708H195L589 113H592L588 708H675V0H567L176 588H173ZM524 945 397 801H324L430 945ZM361 796" glyph-name="Nacute" horiz-adv-x="765" unicode="&#323;" /><glyph d="M176 0H90V708H195L589 113H592L588 708H675V0H567L176 588H173ZM224 945H305L381 828L458 945H541L432 801H330ZM361 796" glyph-name="Ncaron" horiz-adv-x="765" unicode="&#327;" /><glyph d="M176 0H90V708H195L589 113H592L588 708H675V0H567L176 588H173ZM304 -232 357 -50H441L375 -232ZM361 -20" glyph-name="Ncommaaccent" horiz-adv-x="765" unicode="&#325;" /><glyph d="M176 0H90V708H195L589 113H592L588 708H675V0H567L176 588H173ZM322 943Q344 943 362.5 932.5Q381 922 398 900Q414 881 421.5 874.5Q429 868 437 868Q452 868 460 883.5Q468 899 472 937H525Q521 875 500 845.5Q479 816 441 816Q420 816 401.5 826.5Q383 837 365 859Q348 879 340.5 885Q333 891 326 891Q311 891 303 875.5Q295 860 291 822H239Q243 884 263.5 913.5Q284 943 322 943ZM361 796" glyph-name="Ntilde" horiz-adv-x="765" unicode="&#209;" /><glyph d="M428 -20Q266 -20 161.5 85Q57 190 57 354Q57 518 161.5 623Q266 728 428 728Q589 728 693.5 622Q798 516 798 351Q798 188 694 84Q590 -20 428 -20ZM428 652Q307 652 228 567Q149 482 149 354Q149 226 228 140.5Q307 55 428 55Q549 55 628 139.5Q707 224 707 351Q707 479 627.5 565.5Q548 652 428 652ZM436 764ZM436 -20ZM645 -20Z" glyph-name="O" horiz-adv-x="856" unicode="O" /><glyph d="M935 73V0H444Q266 0 161.5 94.5Q57 189 57 354Q57 519 161 613.5Q265 708 442 708H921V634H597V401H899V328H597V73ZM149 354Q149 221 229.5 147Q310 73 449 73H509V634H449Q310 634 229.5 560Q149 486 149 354Z" glyph-name="OE" horiz-adv-x="982" unicode="&#338;" /><glyph d="M428 -20Q266 -20 161.5 85Q57 190 57 354Q57 518 161.5 623Q266 728 428 728Q589 728 693.5 622Q798 516 798 351Q798 188 694 84Q590 -20 428 -20ZM428 652Q307 652 228 567Q149 482 149 354Q149 226 228 140.5Q307 55 428 55Q549 55 628 139.5Q707 224 707 351Q707 479 627.5 565.5Q548 652 428 652ZM569 945 442 801H369L475 945ZM406 796" glyph-name="Oacute" horiz-adv-x="856" unicode="&#211;" /><glyph d="M428 -20Q266 -20 161.5 85Q57 190 57 354Q57 518 161.5 623Q266 728 428 728Q589 728 693.5 622Q798 516 798 351Q798 188 694 84Q590 -20 428 -20ZM428 652Q307 652 228 567Q149 482 149 354Q149 226 228 140.5Q307 55 428 55Q549 55 628 139.5Q707 224 707 351Q707 479 627.5 565.5Q548 652 428 652ZM495 935H563Q553 873 516.5 838.5Q480 804 424 804Q369 804 333.5 838.5Q298 873 290 935H357Q360 901 378.5 881Q397 861 424 861Q455 861 472.5 879Q490 897 495 935ZM406 796" glyph-name="Obreve" horiz-adv-x="856" unicode="&#334;" /><glyph d="M428 -20Q266 -20 161.5 85Q57 190 57 354Q57 518 161.5 623Q266 728 428 728Q589 728 693.5 622Q798 516 798 351Q798 188 694 84Q590 -20 428 -20ZM428 652Q307 652 228 567Q149 482 149 354Q149 226 228 140.5Q307 55 428 55Q549 55 628 139.5Q707 224 707 351Q707 479 627.5 565.5Q548 652 428 652ZM586 801H504L427 919L350 801H269L376 945H478ZM406 796" glyph-name="Ocircumflex" horiz-adv-x="856" unicode="&#212;" /><glyph d="M428 -20Q266 -20 161.5 85Q57 190 57 354Q57 518 161.5 623Q266 728 428 728Q589 728 693.5 622Q798 516 798 351Q798 188 694 84Q590 -20 428 -20ZM428 652Q307 652 228 567Q149 482 149 354Q149 226 228 140.5Q307 55 428 55Q549 55 628 139.5Q707 224 707 351Q707 479 627.5 565.5Q548 652 428 652ZM556 882Q556 863 542 849Q528 835 509 835Q489 835 474.5 848.5Q460 862 460 882Q460 901 474.5 914.5Q489 928 509 928Q528 928 542 914.5Q556 901 556 882ZM393 882Q393 863 379 849Q365 835 346 835Q326 835 312 848.5Q298 862 298 882Q298 901 312 914.5Q326 928 346 928Q365 928 379 914.5Q393 901 393 882ZM406 796" glyph-name="Odieresis" horiz-adv-x="856" unicode="&#214;" /><glyph d="M428 -20Q266 -20 161.5 85Q57 190 57 354Q57 518 161.5 623Q266 728 428 728Q589 728 693.5 622Q798 516 798 351Q798 188 694 84Q590 -20 428 -20ZM428 652Q307 652 228 567Q149 482 149 354Q149 226 228 140.5Q307 55 428 55Q549 55 628 139.5Q707 224 707 351Q707 479 627.5 565.5Q548 652 428 652ZM484 801H411L286 945H378ZM406 796" glyph-name="Ograve" horiz-adv-x="856" unicode="&#210;" /><glyph d="M428 -20Q266 -20 161.5 85Q57 190 57 354Q57 518 161.5 623Q266 728 428 728Q589 728 693.5 622Q798 516 798 351Q798 188 694 84Q590 -20 428 -20ZM428 652Q307 652 228 567Q149 482 149 354Q149 226 228 140.5Q307 55 428 55Q549 55 628 139.5Q707 224 707 351Q707 479 627.5 565.5Q548 652 428 652ZM648 945 522 801H456L562 945ZM494 945 367 801H302L407 945ZM406 796" glyph-name="Ohungarumlaut" horiz-adv-x="856" unicode="&#336;" /><glyph d="M428 -20Q266 -20 161.5 85Q57 190 57 354Q57 518 161.5 623Q266 728 428 728Q589 728 693.5 622Q798 516 798 351Q798 188 694 84Q590 -20 428 -20ZM428 652Q307 652 228 567Q149 482 149 354Q149 226 228 140.5Q307 55 428 55Q549 55 628 139.5Q707 224 707 351Q707 479 627.5 565.5Q548 652 428 652ZM558 845H294V897H558ZM406 796" glyph-name="Omacron" horiz-adv-x="856" unicode="&#332;" /><glyph d="M74 383Q74 533 171.5 630.5Q269 728 418 728Q567 728 664.5 630.5Q762 533 762 383Q762 277 714.5 201Q667 125 586 94V68H772V0H499V127Q584 155 627.5 219Q671 283 671 380Q671 495 599 572Q527 649 418 649Q309 649 237.5 572Q166 495 166 380Q166 282 209 218Q252 154 337 127V0H64V68H251V94Q169 125 121.5 200.5Q74 276 74 383Z" glyph-name="Omega" horiz-adv-x="837" unicode="&#8486;" /><glyph d="M428 652Q307 652 228 567Q149 482 149 354Q149 290 170 234Q191 178 231 137L565 616Q535 634 500 643Q465 652 428 652ZM428 55Q549 55 628 139.5Q707 224 707 351Q707 417 684.5 474.5Q662 532 620 574L285 94Q317 75 353 65Q389 55 428 55ZM798 351Q798 188 694 84Q590 -20 428 -20Q376 -20 328.5 -8Q281 4 238 27L184 -50H100L182 67Q122 118 89.5 192Q57 266 57 354Q57 518 161.5 623Q266 728 428 728Q478 728 525 716.5Q572 705 612 683L665 758H749L669 644Q731 592 764.5 516Q798 440 798 351Z" glyph-name="Oslash" horiz-adv-x="856" unicode="&#216;" /><glyph d="M428 -20Q266 -20 161.5 85Q57 190 57 354Q57 518 161.5 623Q266 728 428 728Q589 728 693.5 622Q798 516 798 351Q798 188 694 84Q590 -20 428 -20ZM428 652Q307 652 228 567Q149 482 149 354Q149 226 228 140.5Q307 55 428 55Q549 55 628 139.5Q707 224 707 351Q707 479 627.5 565.5Q548 652 428 652ZM367 943Q389 943 407.5 932.5Q426 922 443 900Q459 881 466.5 874.5Q474 868 482 868Q497 868 505 883.5Q513 899 517 937H570Q566 875 545 845.5Q524 816 486 816Q465 816 446.5 826.5Q428 837 410 859Q393 879 385.5 885Q378 891 371 891Q356 891 348 875.5Q340 860 336 822H284Q288 884 308.5 913.5Q329 943 367 943ZM406 796" glyph-name="Otilde" horiz-adv-x="856" unicode="&#213;" /><glyph d="M573 510Q573 415 509 359.5Q445 304 341 304H176V0H90V708H333Q446 708 509.5 657Q573 606 573 510ZM481 509Q481 568 441 601Q401 634 336 634H176V378H339Q402 378 441.5 413Q481 448 481 509ZM297 764ZM330 -20Z" glyph-name="P" horiz-adv-x="617" unicode="P" /><glyph d="M795 39V-41Q755 -41 715.5 -23.5Q676 -6 628 33Q584 7 533.5 -6.5Q483 -20 428 -20Q266 -20 161.5 85Q57 190 57 354Q57 518 161.5 623Q266 728 428 728Q589 728 693.5 622Q798 516 798 351Q798 271 771 202Q744 133 692 82Q722 60 747.5 49.5Q773 39 795 39ZM149 354Q149 226 228 140.5Q307 55 428 55Q465 55 499.5 64Q534 73 566 90Q564 93 561.5 95.5Q559 98 556 100L457 200L513 252L613 152Q617 149 620.5 145.5Q624 142 627 138Q666 179 686.5 234Q707 289 707 351Q707 479 627.5 565.5Q548 652 428 652Q307 652 228 567Q149 482 149 354Z" glyph-name="Q" horiz-adv-x="856" unicode="Q" /><glyph d="M772 40V-40Q738 -40 705.5 -22Q673 -4 636 37Q591 9 538.5 -5.5Q486 -20 428 -20Q266 -20 161.5 85Q57 190 57 354Q57 518 161.5 623Q266 728 428 728Q589 728 693.5 622Q798 516 798 351Q798 271 771 202Q744 133 692 82Q713 61 732.5 50.5Q752 40 772 40ZM149 354Q149 226 228 140.5Q307 55 428 55Q471 55 510.5 66.5Q550 78 584 101Q540 155 513 174.5Q486 194 459 194V275Q500 275 538 250.5Q576 226 637 149Q671 190 689 242Q707 294 707 351Q707 479 627.5 565.5Q548 652 428 652Q307 652 228 567Q149 482 149 354Z" glyph-name="Q.alt" horiz-adv-x="856" /><glyph d="M327 634H176V389H331Q406 389 447 421.5Q488 454 488 513Q488 572 446.5 603Q405 634 327 634ZM176 0H90V708H342Q455 708 516.5 658.5Q578 609 578 514Q578 437 532.5 388Q487 339 407 326L605 0H505L320 316H176ZM297 764ZM330 -20Z" glyph-name="R" horiz-adv-x="642" unicode="R" /><glyph d="M327 634H176V389H331Q406 389 447 421.5Q488 454 488 513Q488 572 446.5 603Q405 634 327 634ZM176 0H90V708H342Q455 708 516.5 658.5Q578 609 578 514Q578 437 532.5 388Q487 339 407 326L605 0H505L320 316H176ZM463 945 336 801H263L369 945ZM300 796" glyph-name="Racute" horiz-adv-x="642" unicode="&#340;" /><glyph d="M327 634H176V389H331Q406 389 447 421.5Q488 454 488 513Q488 572 446.5 603Q405 634 327 634ZM176 0H90V708H342Q455 708 516.5 658.5Q578 609 578 514Q578 437 532.5 388Q487 339 407 326L605 0H505L320 316H176ZM163 945H244L320 828L397 945H480L371 801H269ZM300 796" glyph-name="Rcaron" horiz-adv-x="642" unicode="&#344;" /><glyph d="M327 634H176V389H331Q406 389 447 421.5Q488 454 488 513Q488 572 446.5 603Q405 634 327 634ZM176 0H90V708H342Q455 708 516.5 658.5Q578 609 578 514Q578 437 532.5 388Q487 339 407 326L605 0H505L320 316H176ZM243 -232 296 -50H380L314 -232ZM300 -20" glyph-name="Rcommaaccent" horiz-adv-x="642" unicode="&#342;" /><glyph d="M303 728Q357 728 406 712.5Q455 697 499 665V566Q447 612 397 634.5Q347 657 298 657Q234 657 196 623Q158 589 158 531Q158 482 188.5 451.5Q219 421 304 396Q419 362 466.5 313.5Q514 265 514 188Q514 94 447 37Q380 -20 277 -20Q221 -20 166.5 -3.5Q112 13 60 46V150Q119 99 173 74.5Q227 50 278 50Q344 50 384 86Q424 122 424 181Q424 230 390.5 262.5Q357 295 270 321Q161 352 115 400.5Q69 449 69 529Q69 619 134.5 673.5Q200 728 303 728Z" glyph-name="S" horiz-adv-x="570" unicode="S" /><glyph d="M303 728Q357 728 406 712.5Q455 697 499 665V566Q447 612 397 634.5Q347 657 298 657Q234 657 196 623Q158 589 158 531Q158 482 188.5 451.5Q219 421 304 396Q419 362 466.5 313.5Q514 265 514 188Q514 94 447 37Q380 -20 277 -20Q221 -20 166.5 -3.5Q112 13 60 46V150Q119 99 173 74.5Q227 50 278 50Q344 50 384 86Q424 122 424 181Q424 230 390.5 262.5Q357 295 270 321Q161 352 115 400.5Q69 449 69 529Q69 619 134.5 673.5Q200 728 303 728ZM427 945 300 801H227L333 945ZM264 796" glyph-name="Sacute" horiz-adv-x="570" unicode="&#346;" /><glyph d="M303 728Q357 728 406 712.5Q455 697 499 665V566Q447 612 397 634.5Q347 657 298 657Q234 657 196 623Q158 589 158 531Q158 482 188.5 451.5Q219 421 304 396Q419 362 466.5 313.5Q514 265 514 188Q514 94 447 37Q380 -20 277 -20Q221 -20 166.5 -3.5Q112 13 60 46V150Q119 99 173 74.5Q227 50 278 50Q344 50 384 86Q424 122 424 181Q424 230 390.5 262.5Q357 295 270 321Q161 352 115 400.5Q69 449 69 529Q69 619 134.5 673.5Q200 728 303 728ZM127 945H208L284 828L361 945H444L335 801H233ZM264 796" glyph-name="Scaron" horiz-adv-x="570" unicode="&#352;" /><glyph d="M406 -142Q406 -184 369.5 -207Q333 -230 275 -230Q251 -230 221.5 -224Q192 -218 169 -209L185 -172Q201 -180 225.5 -184.5Q250 -189 271 -189Q304 -189 323 -176.5Q342 -164 342 -141Q342 -121 327 -111Q312 -101 283 -101Q268 -101 251 -104.5Q234 -108 224 -113L202 -96L259 -20Q208 -17 158.5 -0.5Q109 16 60 46V150Q119 99 173 74.5Q227 50 278 50Q344 50 384 86Q424 122 424 181Q424 230 390.5 262.5Q357 295 270 321Q161 352 115 400.5Q69 449 69 529Q69 619 134.5 673.5Q200 728 303 728Q357 728 406 712.5Q455 697 499 665V566Q447 612 397 634.5Q347 657 298 657Q234 657 196 623Q158 589 158 531Q158 482 188.5 451.5Q219 421 304 396Q419 362 466.5 313.5Q514 265 514 188Q514 103 458.5 47.5Q403 -8 312 -18L270 -74Q279 -71 289.5 -70Q300 -69 313 -69Q356 -69 381 -88Q406 -107 406 -142Z" glyph-name="Scedilla" horiz-adv-x="570" unicode="&#350;" /><glyph d="M303 728Q357 728 406 712.5Q455 697 499 665V566Q447 612 397 634.5Q347 657 298 657Q234 657 196 623Q158 589 158 531Q158 482 188.5 451.5Q219 421 304 396Q419 362 466.5 313.5Q514 265 514 188Q514 94 447 37Q380 -20 277 -20Q221 -20 166.5 -3.5Q112 13 60 46V150Q119 99 173 74.5Q227 50 278 50Q344 50 384 86Q424 122 424 181Q424 230 390.5 262.5Q357 295 270 321Q161 352 115 400.5Q69 449 69 529Q69 619 134.5 673.5Q200 728 303 728ZM444 801H362L285 919L208 801H127L234 945H336ZM264 796" glyph-name="Scircumflex" horiz-adv-x="570" unicode="&#348;" /><glyph d="M549 634H325V0H237V634H13V708H549ZM270 764ZM270 -20Z" glyph-name="T" horiz-adv-x="562" unicode="T" /><glyph d="M421 399V339H325V0H237V339H141V399H237V634H13V708H549V634H325V399Z" glyph-name="Tbar" horiz-adv-x="562" unicode="&#358;" /><glyph d="M549 634H325V0H237V634H13V708H549ZM123 945H204L280 828L357 945H440L331 801H229ZM260 796" glyph-name="Tcaron" horiz-adv-x="562" unicode="&#356;" /><glyph d="M176 169V0H90V708H176V568H307Q421 568 484 517.5Q547 467 547 371Q547 278 483 223.5Q419 169 314 169ZM455 371Q455 429 415 462Q375 495 309 495H176V242H312Q376 242 415.5 276.5Q455 311 455 371Z" glyph-name="Thorn" horiz-adv-x="591" unicode="&#222;" /><glyph d="M652 708V273Q652 133 577.5 56.5Q503 -20 364 -20Q227 -20 153.5 56.5Q80 133 80 273V708H166V276Q166 171 217.5 112Q269 53 366 53Q462 53 513.5 112Q565 171 565 276V708ZM371 764ZM362 -20ZM645 -20Z" glyph-name="U" horiz-adv-x="733" unicode="U" /><glyph d="M652 708V273Q652 133 577.5 56.5Q503 -20 364 -20Q227 -20 153.5 56.5Q80 133 80 273V708H166V276Q166 171 217.5 112Q269 53 366 53Q462 53 513.5 112Q565 171 565 276V708ZM508 945 381 801H308L414 945ZM345 796" glyph-name="Uacute" horiz-adv-x="733" unicode="&#218;" /><glyph d="M652 708V273Q652 133 577.5 56.5Q503 -20 364 -20Q227 -20 153.5 56.5Q80 133 80 273V708H166V276Q166 171 217.5 112Q269 53 366 53Q462 53 513.5 112Q565 171 565 276V708ZM434 935H502Q492 873 455.5 838.5Q419 804 363 804Q308 804 272.5 838.5Q237 873 229 935H296Q299 901 317.5 881Q336 861 363 861Q394 861 411.5 879Q429 897 434 935ZM345 796" glyph-name="Ubreve" horiz-adv-x="733" unicode="&#364;" /><glyph d="M652 708V273Q652 133 577.5 56.5Q503 -20 364 -20Q227 -20 153.5 56.5Q80 133 80 273V708H166V276Q166 171 217.5 112Q269 53 366 53Q462 53 513.5 112Q565 171 565 276V708ZM525 801H443L366 919L289 801H208L315 945H417ZM345 796" glyph-name="Ucircumflex" horiz-adv-x="733" unicode="&#219;" /><glyph d="M652 708V273Q652 133 577.5 56.5Q503 -20 364 -20Q227 -20 153.5 56.5Q80 133 80 273V708H166V276Q166 171 217.5 112Q269 53 366 53Q462 53 513.5 112Q565 171 565 276V708ZM495 882Q495 863 481 849Q467 835 448 835Q428 835 413.5 848.5Q399 862 399 882Q399 901 413.5 914.5Q428 928 448 928Q467 928 481 914.5Q495 901 495 882ZM332 882Q332 863 318 849Q304 835 285 835Q265 835 251 848.5Q237 862 237 882Q237 901 251 914.5Q265 928 285 928Q304 928 318 914.5Q332 901 332 882ZM345 796" glyph-name="Udieresis" horiz-adv-x="733" unicode="&#220;" /><glyph d="M652 708V273Q652 133 577.5 56.5Q503 -20 364 -20Q227 -20 153.5 56.5Q80 133 80 273V708H166V276Q166 171 217.5 112Q269 53 366 53Q462 53 513.5 112Q565 171 565 276V708ZM423 801H350L225 945H317ZM345 796" glyph-name="Ugrave" horiz-adv-x="733" unicode="&#217;" /><glyph d="M652 708V273Q652 133 577.5 56.5Q503 -20 364 -20Q227 -20 153.5 56.5Q80 133 80 273V708H166V276Q166 171 217.5 112Q269 53 366 53Q462 53 513.5 112Q565 171 565 276V708ZM587 945 461 801H395L501 945ZM433 945 306 801H241L346 945ZM345 796" glyph-name="Uhungarumlaut" horiz-adv-x="733" unicode="&#368;" /><glyph d="M652 708V273Q652 133 577.5 56.5Q503 -20 364 -20Q227 -20 153.5 56.5Q80 133 80 273V708H166V276Q166 171 217.5 112Q269 53 366 53Q462 53 513.5 112Q565 171 565 276V708ZM497 845H233V897H497ZM345 796" glyph-name="Umacron" horiz-adv-x="733" unicode="&#362;" /><glyph d="M386 -227Q339 -227 311.5 -205Q284 -183 284 -144Q284 -114 303.5 -83Q323 -52 361 -20Q225 -19 152.5 57.5Q80 134 80 273V708H166V276Q166 171 217.5 112Q269 53 366 53Q462 53 513.5 112Q565 171 565 276V708H652V273Q652 149 592 73.5Q532 -2 419 -17Q380 -55 364 -81.5Q348 -108 348 -133Q348 -158 362 -172.5Q376 -187 401 -187Q420 -187 436.5 -180.5Q453 -174 465 -162L482 -196Q464 -211 440 -219Q416 -227 386 -227Z" glyph-name="Uogonek" horiz-adv-x="733" unicode="&#370;" /><glyph d="M652 708V273Q652 133 577.5 56.5Q503 -20 364 -20Q227 -20 153.5 56.5Q80 133 80 273V708H166V276Q166 171 217.5 112Q269 53 366 53Q462 53 513.5 112Q565 171 565 276V708ZM366 791Q320 791 288 822Q256 853 256 898Q256 942 288.5 973.5Q321 1005 366 1005Q411 1005 443 973.5Q475 942 475 898Q475 853 443 822Q411 791 366 791ZM366 954Q342 954 326 938Q310 922 310 898Q310 874 326 857.5Q342 841 366 841Q389 841 405 857.5Q421 874 421 898Q421 921 405 937.5Q389 954 366 954ZM345 796" glyph-name="Uring" horiz-adv-x="733" unicode="&#366;" /><glyph d="M652 708V273Q652 133 577.5 56.5Q503 -20 364 -20Q227 -20 153.5 56.5Q80 133 80 273V708H166V276Q166 171 217.5 112Q269 53 366 53Q462 53 513.5 112Q565 171 565 276V708ZM306 943Q328 943 346.5 932.5Q365 922 382 900Q398 881 405.5 874.5Q413 868 421 868Q436 868 444 883.5Q452 899 456 937H509Q505 875 484 845.5Q463 816 425 816Q404 816 385.5 826.5Q367 837 349 859Q332 879 324.5 885Q317 891 310 891Q295 891 287 875.5Q279 860 275 822H223Q227 884 247.5 913.5Q268 943 306 943ZM345 796" glyph-name="Utilde" horiz-adv-x="733" unicode="&#360;" /><glyph d="M7 708H102L320 102H322L541 708H634L364 0H274ZM302 764ZM301 -20Z" glyph-name="V" horiz-adv-x="642" unicode="V" /><glyph d="M493 583H491L314 0H228L16 708H110L273 128H276L447 708H539L714 128H717L880 708H970L757 0H672ZM478 764ZM477 -20Z" glyph-name="W" horiz-adv-x="988" unicode="W" /><glyph d="M493 583H491L314 0H228L16 708H110L273 128H276L447 708H539L714 128H717L880 708H970L757 0H672ZM635 945 508 801H435L541 945ZM472 796" glyph-name="Wacute" horiz-adv-x="988" unicode="&#7810;" /><glyph d="M493 583H491L314 0H228L16 708H110L273 128H276L447 708H539L714 128H717L880 708H970L757 0H672ZM652 801H570L493 919L416 801H335L442 945H544ZM472 796" glyph-name="Wcircumflex" horiz-adv-x="988" unicode="&#372;" /><glyph d="M493 583H491L314 0H228L16 708H110L273 128H276L447 708H539L714 128H717L880 708H970L757 0H672ZM622 882Q622 863 608 849Q594 835 575 835Q555 835 540.5 848.5Q526 862 526 882Q526 901 540.5 914.5Q555 928 575 928Q594 928 608 914.5Q622 901 622 882ZM459 882Q459 863 445 849Q431 835 412 835Q392 835 378 848.5Q364 862 364 882Q364 901 378 914.5Q392 928 412 928Q431 928 445 914.5Q459 901 459 882ZM472 796" glyph-name="Wdieresis" horiz-adv-x="988" unicode="&#7812;" /><glyph d="M493 583H491L314 0H228L16 708H110L273 128H276L447 708H539L714 128H717L880 708H970L757 0H672ZM550 801H477L352 945H444ZM472 796" glyph-name="Wgrave" horiz-adv-x="988" unicode="&#7808;" /><glyph d="M625 0H516L319 305L123 0H20L268 369L40 708H146L322 432L496 708H600L373 371ZM295 764ZM295 -20Z" glyph-name="X" horiz-adv-x="645" unicode="X" /><glyph d="M584 708 338 302V0H252V302L6 708H108L298 375L486 708ZM270 764ZM270 -20Z" glyph-name="Y" horiz-adv-x="590" unicode="Y" /><glyph d="M584 708 338 302V0H252V302L6 708H108L298 375L486 708ZM437 945 310 801H237L343 945ZM274 796" glyph-name="Yacute" horiz-adv-x="590" unicode="&#221;" /><glyph d="M584 708 338 302V0H252V302L6 708H108L298 375L486 708ZM454 801H372L295 919L218 801H137L244 945H346ZM274 796" glyph-name="Ycircumflex" horiz-adv-x="590" unicode="&#374;" /><glyph d="M584 708 338 302V0H252V302L6 708H108L298 375L486 708ZM424 882Q424 863 410 849Q396 835 377 835Q357 835 342.5 848.5Q328 862 328 882Q328 901 342.5 914.5Q357 928 377 928Q396 928 410 914.5Q424 901 424 882ZM261 882Q261 863 247 849Q233 835 214 835Q194 835 180 848.5Q166 862 166 882Q166 901 180 914.5Q194 928 214 928Q233 928 247 914.5Q261 901 261 882ZM274 796" glyph-name="Ydieresis" horiz-adv-x="590" unicode="&#376;" /><glyph d="M584 708 338 302V0H252V302L6 708H108L298 375L486 708ZM352 801H279L154 945H246ZM274 796" glyph-name="Ygrave" horiz-adv-x="590" unicode="&#7922;" /><glyph d="M568 0H46V76L456 634H58V708H557V635L140 73H568ZM298 764ZM298 -20Z" glyph-name="Z" horiz-adv-x="607" unicode="Z" /><glyph d="M568 0H46V76L456 634H58V708H557V635L140 73H568ZM445 945 318 801H245L351 945ZM282 796" glyph-name="Zacute" horiz-adv-x="607" unicode="&#377;" /><glyph d="M568 0H46V76L456 634H58V708H557V635L140 73H568ZM145 945H226L302 828L379 945H462L353 801H251ZM282 796" glyph-name="Zcaron" horiz-adv-x="607" unicode="&#381;" /><glyph d="M568 0H46V76L456 634H58V708H557V635L140 73H568ZM303 832Q281 832 266 846.5Q251 861 251 882Q251 902 266.5 917Q282 932 303 932Q323 932 338 917Q353 902 353 882Q353 861 338 846.5Q323 832 303 832ZM282 796" glyph-name="Zdotaccent" horiz-adv-x="607" unicode="&#379;" /><glyph d="M378 116V234L233 220Q182 215 157 193Q132 171 132 130Q132 90 158 68Q184 46 230 46Q264 46 298.5 62Q333 78 378 116ZM51 126Q51 183 85.5 217Q120 251 190 263L362 293Q370 294 373 297Q376 300 376 307V320Q376 372 344.5 400.5Q313 429 257 429Q212 429 167 412.5Q122 396 84 365V444Q116 468 164 482Q212 496 263 496Q359 496 409 446Q459 396 459 300V120Q459 91 461.5 58.5Q464 26 468 0H388Q386 9 384 25Q382 41 381 55H379Q341 20 301 3Q261 -14 218 -14Q139 -14 95 22Q51 58 51 126ZM261 564ZM248 -20ZM415 -20Z" glyph-name="a" horiz-adv-x="537" unicode="a" /><glyph d="M378 116V234L233 220Q182 215 157 193Q132 171 132 130Q132 90 158 68Q184 46 230 46Q264 46 298.5 62Q333 78 378 116ZM51 126Q51 183 85.5 217Q120 251 190 263L362 293Q370 294 373 297Q376 300 376 307V320Q376 372 344.5 400.5Q313 429 257 429Q212 429 167 412.5Q122 396 84 365V444Q116 468 164 482Q212 496 263 496Q359 496 409 446Q459 396 459 300V120Q459 91 461.5 58.5Q464 26 468 0H388Q386 9 384 25Q382 41 381 55H379Q341 20 301 3Q261 -14 218 -14Q139 -14 95 22Q51 58 51 126ZM408 713 281 569H208L314 713ZM245 564" glyph-name="aacute" horiz-adv-x="537" unicode="&#225;" /><glyph d="M378 116V234L233 220Q182 215 157 193Q132 171 132 130Q132 90 158 68Q184 46 230 46Q264 46 298.5 62Q333 78 378 116ZM51 126Q51 183 85.5 217Q120 251 190 263L362 293Q370 294 373 297Q376 300 376 307V320Q376 372 344.5 400.5Q313 429 257 429Q212 429 167 412.5Q122 396 84 365V444Q116 468 164 482Q212 496 263 496Q359 496 409 446Q459 396 459 300V120Q459 91 461.5 58.5Q464 26 468 0H388Q386 9 384 25Q382 41 381 55H379Q341 20 301 3Q261 -14 218 -14Q139 -14 95 22Q51 58 51 126ZM334 703H402Q392 641 355.5 606.5Q319 572 263 572Q208 572 172.5 606.5Q137 641 129 703H196Q199 669 217.5 649Q236 629 263 629Q294 629 311.5 647Q329 665 334 703ZM245 564" glyph-name="abreve" horiz-adv-x="537" unicode="&#259;" /><glyph d="M378 116V234L233 220Q182 215 157 193Q132 171 132 130Q132 90 158 68Q184 46 230 46Q264 46 298.5 62Q333 78 378 116ZM51 126Q51 183 85.5 217Q120 251 190 263L362 293Q370 294 373 297Q376 300 376 307V320Q376 372 344.5 400.5Q313 429 257 429Q212 429 167 412.5Q122 396 84 365V444Q116 468 164 482Q212 496 263 496Q359 496 409 446Q459 396 459 300V120Q459 91 461.5 58.5Q464 26 468 0H388Q386 9 384 25Q382 41 381 55H379Q341 20 301 3Q261 -14 218 -14Q139 -14 95 22Q51 58 51 126ZM425 569H343L266 687L189 569H108L215 713H317ZM245 564" glyph-name="acircumflex" horiz-adv-x="537" unicode="&#226;" /><glyph d="M283 713 156 569H83L189 713ZM120 564Z" glyph-name="acute" horiz-adv-x="282" unicode="&#180;" /><glyph d="M378 116V234L233 220Q182 215 157 193Q132 171 132 130Q132 90 158 68Q184 46 230 46Q264 46 298.5 62Q333 78 378 116ZM51 126Q51 183 85.5 217Q120 251 190 263L362 293Q370 294 373 297Q376 300 376 307V320Q376 372 344.5 400.5Q313 429 257 429Q212 429 167 412.5Q122 396 84 365V444Q116 468 164 482Q212 496 263 496Q359 496 409 446Q459 396 459 300V120Q459 91 461.5 58.5Q464 26 468 0H388Q386 9 384 25Q382 41 381 55H379Q341 20 301 3Q261 -14 218 -14Q139 -14 95 22Q51 58 51 126ZM395 650Q395 631 381 617Q367 603 348 603Q328 603 313.5 616.5Q299 630 299 650Q299 669 313.5 682.5Q328 696 348 696Q367 696 381 682.5Q395 669 395 650ZM232 650Q232 631 218 617Q204 603 185 603Q165 603 151 616.5Q137 630 137 650Q137 669 151 682.5Q165 696 185 696Q204 696 218 682.5Q232 669 232 650ZM245 564" glyph-name="adieresis" horiz-adv-x="537" unicode="&#228;" /><glyph d="M611 429Q553 429 511.5 389.5Q470 350 460 287H759Q753 353 713.5 391Q674 429 611 429ZM133 131Q133 89 159.5 65.5Q186 42 230 42Q268 42 310 68.5Q352 95 391 145Q384 166 380.5 187.5Q377 209 376 230L239 218Q185 213 159 191.5Q133 170 133 131ZM813 119V37Q767 10 724 -2.5Q681 -15 631 -15Q559 -15 503 13.5Q447 42 414 95Q364 38 316.5 12Q269 -14 212 -14Q136 -14 93 22.5Q50 59 50 126Q50 184 87 217.5Q124 251 203 264L361 289Q368 290 371 293Q374 296 374 300V321Q374 375 343 404Q312 433 257 433Q212 433 167 416.5Q122 400 84 369V447Q115 470 164 483.5Q213 497 263 497Q323 497 366.5 476.5Q410 456 434 416Q466 454 511.5 474.5Q557 495 610 495Q713 495 774.5 430.5Q836 366 836 263V228H459Q466 142 511 96Q556 50 633 50Q680 50 722.5 66Q765 82 813 119Z" glyph-name="ae" horiz-adv-x="888" unicode="&#230;" /><glyph d="M378 116V234L233 220Q182 215 157 193Q132 171 132 130Q132 90 158 68Q184 46 230 46Q264 46 298.5 62Q333 78 378 116ZM51 126Q51 183 85.5 217Q120 251 190 263L362 293Q370 294 373 297Q376 300 376 307V320Q376 372 344.5 400.5Q313 429 257 429Q212 429 167 412.5Q122 396 84 365V444Q116 468 164 482Q212 496 263 496Q359 496 409 446Q459 396 459 300V120Q459 91 461.5 58.5Q464 26 468 0H388Q386 9 384 25Q382 41 381 55H379Q341 20 301 3Q261 -14 218 -14Q139 -14 95 22Q51 58 51 126ZM323 569H250L125 713H217ZM245 564" glyph-name="agrave" horiz-adv-x="537" unicode="&#224;" /><glyph d="M378 116V234L233 220Q182 215 157 193Q132 171 132 130Q132 90 158 68Q184 46 230 46Q264 46 298.5 62Q333 78 378 116ZM51 126Q51 183 85.5 217Q120 251 190 263L362 293Q370 294 373 297Q376 300 376 307V320Q376 372 344.5 400.5Q313 429 257 429Q212 429 167 412.5Q122 396 84 365V444Q116 468 164 482Q212 496 263 496Q359 496 409 446Q459 396 459 300V120Q459 91 461.5 58.5Q464 26 468 0H388Q386 9 384 25Q382 41 381 55H379Q341 20 301 3Q261 -14 218 -14Q139 -14 95 22Q51 58 51 126ZM397 613H133V665H397ZM245 564" glyph-name="amacron" horiz-adv-x="537" unicode="&#257;" /><glyph d="M295 425Q362 456 391.5 489Q421 522 421 562Q421 604 393 632Q365 660 323 660Q279 660 249.5 631Q220 602 220 558Q220 527 239 493.5Q258 460 295 425ZM288 53Q338 53 377.5 77Q417 101 450 152L270 341Q206 313 176 275Q146 237 146 187Q146 130 187.5 91.5Q229 53 288 53ZM707 0H597L503 99Q459 41 406.5 13.5Q354 -14 286 -14Q188 -14 125 41Q62 96 62 186Q62 252 101.5 303Q141 354 224 393Q180 439 160 478.5Q140 518 140 558Q140 634 191 680Q242 726 322 726Q399 726 448.5 681.5Q498 637 498 565Q498 507 460.5 461.5Q423 416 341 376L497 213L591 376H684L551 162Z" glyph-name="ampersand" horiz-adv-x="751" unicode="&amp;" /><glyph d="M378 116V234L233 220Q182 215 157 193Q132 171 132 130Q132 90 158 68Q184 46 230 46Q264 46 298.5 62Q333 78 378 116ZM286 -144Q286 -110 312 -74Q338 -38 388 0Q386 9 384 25Q382 41 381 55H379Q341 20 301 3Q261 -14 218 -14Q139 -14 95 22Q51 58 51 126Q51 183 85.5 217Q120 251 190 263L362 293Q369 295 372.5 297.5Q376 300 376 304V320Q376 372 344.5 400.5Q313 429 257 429Q212 429 167 412.5Q122 396 84 365V444Q116 468 164 482Q212 496 263 496Q359 496 409 446Q459 396 459 300V120Q459 91 461.5 58.5Q464 26 468 0H438Q389 -46 369.5 -75.5Q350 -105 350 -133Q350 -158 364 -172.5Q378 -187 404 -187Q423 -187 439.5 -180.5Q456 -174 467 -162L484 -196Q466 -212 442 -219.5Q418 -227 388 -227Q341 -227 313.5 -205Q286 -183 286 -144Z" glyph-name="aogonek" horiz-adv-x="537" unicode="&#261;" /><glyph d="M8 569 44 713H127L82 569Z" glyph-name="apostrophe" horiz-adv-x="130" unicode="&#700;" /><glyph d="M175 489Q204 489 227.5 481.5Q251 474 282 454Q319 428 342.5 418Q366 408 391 408Q420 408 446 427.5Q472 447 496 488L533 433Q502 386 466 361.5Q430 337 391 337Q362 337 338.5 345Q315 353 283 374Q241 401 219.5 409.5Q198 418 175 418Q142 418 113.5 397.5Q85 377 64 338L27 392Q56 441 93 465Q130 489 175 489ZM175 270Q203 270 226.5 262.5Q250 255 282 234Q320 208 343.5 198Q367 188 391 188Q420 188 446 207.5Q472 227 496 268L533 213Q502 166 466 142Q430 118 391 118Q361 118 337 125.5Q313 133 283 154Q241 181 219.5 189.5Q198 198 175 198Q142 198 113.5 177.5Q85 157 64 118L27 172Q56 221 93 245.5Q130 270 175 270Z" glyph-name="approxequal" horiz-adv-x="560" unicode="&#8776;" /><glyph d="M175 559Q204 559 227.5 551.5Q251 544 282 524Q319 498 342.5 488Q366 478 391 478Q420 478 446 497.5Q472 517 496 558L533 503Q502 456 466 431.5Q430 407 391 407Q362 407 338.5 415Q315 423 283 444Q241 471 219.5 479.5Q198 488 175 488Q142 488 113.5 467.5Q85 447 64 408L27 462Q56 511 93 535Q130 559 175 559ZM175 340Q203 340 226.5 332.5Q250 325 282 304Q320 278 343.5 268Q367 258 391 258Q420 258 446 277.5Q472 297 496 338L533 283Q502 236 466 212Q430 188 391 188Q361 188 337 195.5Q313 203 283 224Q241 251 219.5 259.5Q198 268 175 268Q142 268 113.5 247.5Q85 227 64 188L27 242Q56 291 93 315.5Q130 340 175 340Z" glyph-name="approxequal.case" horiz-adv-x="560" /><glyph d="M378 116V234L233 220Q182 215 157 193Q132 171 132 130Q132 90 158 68Q184 46 230 46Q264 46 298.5 62Q333 78 378 116ZM51 126Q51 183 85.5 217Q120 251 190 263L362 293Q370 294 373 297Q376 300 376 307V320Q376 372 344.5 400.5Q313 429 257 429Q212 429 167 412.5Q122 396 84 365V444Q116 468 164 482Q212 496 263 496Q359 496 409 446Q459 396 459 300V120Q459 91 461.5 58.5Q464 26 468 0H388Q386 9 384 25Q382 41 381 55H379Q341 20 301 3Q261 -14 218 -14Q139 -14 95 22Q51 58 51 126ZM266 559Q220 559 188 590Q156 621 156 666Q156 710 188.5 741.5Q221 773 266 773Q311 773 343 741.5Q375 710 375 666Q375 621 343 590Q311 559 266 559ZM266 722Q242 722 226 706Q210 690 210 666Q210 642 226 625.5Q242 609 266 609Q289 609 305 625.5Q321 642 321 666Q321 689 305 705.5Q289 722 266 722ZM245 564" glyph-name="aring" horiz-adv-x="537" unicode="&#229;" /><glyph d="M280 644 144 381H67L244 708H316L492 381H414Z" glyph-name="asciicircum" horiz-adv-x="560" unicode="^" /><glyph d="M175 377Q204 377 227.5 369.5Q251 362 282 342Q319 316 342.5 306Q366 296 391 296Q420 296 445.5 315Q471 334 496 375L533 321Q502 274 466 249.5Q430 225 391 225Q362 225 338.5 232.5Q315 240 283 261Q241 288 220 297Q199 306 175 306Q142 306 113.5 285.5Q85 265 64 226L27 280Q56 329 93 353Q130 377 175 377Z" glyph-name="asciitilde" horiz-adv-x="560" unicode="~" /><glyph d="M435 548 288 503 379 377 327 343 235 470 145 345 93 379 185 503 37 549 58 603 204 556V708H269V555L415 602Z" glyph-name="asterisk" horiz-adv-x="473" unicode="*" /><glyph d="M516 303 531 360H593L543 165Q536 137 533 118Q530 99 530 88Q530 64 542.5 51Q555 38 578 38Q639 38 674.5 91.5Q710 145 710 233Q710 353 627.5 428.5Q545 504 415 504Q281 504 189.5 409.5Q98 315 98 180Q98 40 189.5 -52.5Q281 -145 423 -145Q495 -145 563 -115Q631 -85 678 -33L714 -70Q657 -130 582 -161Q507 -192 418 -192Q253 -192 145.5 -86.5Q38 19 38 179Q38 336 147 444Q256 552 414 552Q567 552 667 462.5Q767 373 767 233Q767 121 712.5 53.5Q658 -14 565 -14Q523 -14 499 6.5Q475 27 475 64H473Q455 29 420.5 7.5Q386 -14 346 -14Q288 -14 253.5 26Q219 66 219 129Q219 227 275.5 304Q332 381 413 381Q454 381 480.5 359.5Q507 338 512 303ZM494 240Q494 281 475 304.5Q456 328 421 328Q365 328 326 266.5Q287 205 287 130Q287 87 307 62.5Q327 38 364 38Q392 38 417 58Q442 78 461 116Q476 145 485 179.5Q494 214 494 240Z" glyph-name="at" horiz-adv-x="800" unicode="@" /><glyph d="M516 479 531 536H593L543 341Q536 313 533 294Q530 275 530 264Q530 240 542.5 227Q555 214 578 214Q639 214 674.5 267.5Q710 321 710 409Q710 529 627.5 604.5Q545 680 415 680Q281 680 189.5 585.5Q98 491 98 356Q98 216 189.5 123.5Q281 31 423 31Q495 31 563 61Q631 91 678 143L714 106Q657 46 582 15Q507 -16 418 -16Q253 -16 145.5 89.5Q38 195 38 355Q38 512 147 620Q256 728 414 728Q567 728 667 638.5Q767 549 767 409Q767 297 712.5 229.5Q658 162 565 162Q523 162 499 182.5Q475 203 475 240H473Q455 205 420.5 183.5Q386 162 346 162Q288 162 253.5 202Q219 242 219 305Q219 403 275.5 480Q332 557 413 557Q454 557 480.5 535.5Q507 514 512 479ZM494 416Q494 457 475 480.5Q456 504 421 504Q365 504 326 442.5Q287 381 287 306Q287 263 307 238.5Q327 214 364 214Q392 214 417 234Q442 254 461 292Q476 321 485 355.5Q494 390 494 416Z" glyph-name="at.case" horiz-adv-x="800" /><glyph d="M378 116V234L233 220Q182 215 157 193Q132 171 132 130Q132 90 158 68Q184 46 230 46Q264 46 298.5 62Q333 78 378 116ZM51 126Q51 183 85.5 217Q120 251 190 263L362 293Q370 294 373 297Q376 300 376 307V320Q376 372 344.5 400.5Q313 429 257 429Q212 429 167 412.5Q122 396 84 365V444Q116 468 164 482Q212 496 263 496Q359 496 409 446Q459 396 459 300V120Q459 91 461.5 58.5Q464 26 468 0H388Q386 9 384 25Q382 41 381 55H379Q341 20 301 3Q261 -14 218 -14Q139 -14 95 22Q51 58 51 126ZM206 711Q228 711 246.5 700.5Q265 690 282 668Q298 649 305.5 642.5Q313 636 321 636Q336 636 344 651.5Q352 667 356 705H409Q405 643 384 613.5Q363 584 325 584Q304 584 285.5 594.5Q267 605 249 627Q232 647 224.5 653Q217 659 210 659Q195 659 187 643.5Q179 628 175 590H123Q127 652 147.5 681.5Q168 711 206 711ZM245 564" glyph-name="atilde" horiz-adv-x="537" unicode="&#227;" /><glyph d="M165 708V429H167Q210 464 249.5 479Q289 494 334 494Q438 494 503.5 425Q569 356 569 244Q569 131 502.5 58.5Q436 -14 333 -14Q291 -14 255.5 -3Q220 8 182 35Q173 42 170 43.5Q167 45 165 45Q162 45 160 42Q158 39 158 33V0H84V708ZM321 51Q393 51 440 105.5Q487 160 487 242Q487 323 441.5 375.5Q396 428 325 428Q284 428 247.5 410.5Q211 393 165 351V126Q206 85 242.5 68Q279 51 321 51ZM115 764ZM302 -20ZM482 -20Z" glyph-name="b" horiz-adv-x="622" unicode="b" /><glyph d="M386 0H308L11 708H89Z" glyph-name="backslash" horiz-adv-x="397" unicode="\" /><glyph d="M157 -250H80V750H157Z" glyph-name="bar" horiz-adv-x="238" unicode="|" /><glyph d="M157 -180H80V820H157Z" glyph-name="bar.case" horiz-adv-x="238" /><glyph d="M26 262V321Q65 321 81.5 344.5Q98 368 98 420V595Q98 664 129.5 700Q161 736 220 736H284V677H242Q207 677 188.5 654Q170 631 170 587V411Q170 359 151 328.5Q132 298 97 293V291Q132 284 151 253.5Q170 223 170 172V-3Q170 -47 188.5 -70Q207 -93 242 -93H284V-152H220Q161 -152 129.5 -116Q98 -80 98 -11V161Q98 213 81 237.5Q64 262 26 262Z" glyph-name="braceleft" horiz-adv-x="323" unicode="{" /><glyph d="M26 332V391Q65 391 81.5 414.5Q98 438 98 490V665Q98 734 129.5 770Q161 806 220 806H284V747H242Q207 747 188.5 724Q170 701 170 657V481Q170 429 151 398.5Q132 368 97 363V361Q132 354 151 323.5Q170 293 170 242V67Q170 23 188.5 0Q207 -23 242 -23H284V-82H220Q161 -82 129.5 -46Q98 -10 98 59V231Q98 283 81 307.5Q64 332 26 332Z" glyph-name="braceleft.case" horiz-adv-x="323" /><glyph d="M297 321V262Q258 262 241 237.5Q224 213 224 161V-11Q224 -80 193 -116Q162 -152 103 -152H38V-93H81Q116 -93 134 -70Q152 -47 152 -3V172Q152 223 171.5 253.5Q191 284 226 291V293Q191 298 171.5 328.5Q152 359 152 411V587Q152 631 134 654Q116 677 81 677H38V736H103Q162 736 193 700Q224 664 224 595V420Q224 368 241 344.5Q258 321 297 321Z" glyph-name="braceright" horiz-adv-x="323" unicode="}" /><glyph d="M297 391V332Q258 332 241 307.5Q224 283 224 231V59Q224 -10 193 -46Q162 -82 103 -82H38V-23H81Q116 -23 134 0Q152 23 152 67V242Q152 293 171.5 323.5Q191 354 226 361V363Q191 368 171.5 398.5Q152 429 152 481V657Q152 701 134 724Q116 747 81 747H38V806H103Q162 806 193 770Q224 734 224 665V490Q224 438 241 414.5Q258 391 297 391Z" glyph-name="braceright.case" horiz-adv-x="323" /><glyph d="M248 -152H68V736H248V677H142V-93H248Z" glyph-name="bracketleft" horiz-adv-x="288" unicode="[" /><glyph d="M248 -82H68V806H248V747H142V-23H248Z" glyph-name="bracketleft.case" horiz-adv-x="288" /><glyph d="M218 736V-152H38V-95H146V679H38V736Z" glyph-name="bracketright" horiz-adv-x="287" unicode="]" /><glyph d="M218 806V-82H38V-25H146V749H38V806Z" glyph-name="bracketright.case" horiz-adv-x="287" /><glyph d="M209 703H277Q267 641 230.5 606.5Q194 572 138 572Q83 572 47.5 606.5Q12 641 4 703H71Q74 669 92.5 649Q111 629 138 629Q169 629 186.5 647Q204 665 209 703ZM120 564Z" glyph-name="breve" horiz-adv-x="282" unicode="&#728;" /><glyph d="M80 332V750H157V332ZM80 -250V170H157V-250Z" glyph-name="brokenbar" horiz-adv-x="238" unicode="&#166;" /><glyph d="M250 177Q177 177 125 229Q73 281 73 354Q73 428 125 479.5Q177 531 250 531Q324 531 375.5 479.5Q427 428 427 354Q427 281 375.5 229Q324 177 250 177Z" glyph-name="bullet" horiz-adv-x="500" unicode="&#8226;" /><glyph d="M461 107V27Q427 6 389 -4.5Q351 -15 308 -15Q195 -15 122.5 56Q50 127 50 239Q50 351 123.5 423Q197 495 309 495Q349 495 388 484Q427 473 459 453V368Q414 403 380 417Q346 431 310 431Q234 431 183 375.5Q132 320 132 239Q132 157 183 103Q234 49 313 49Q350 49 384 62Q418 75 461 107ZM281 564ZM290 -20ZM415 -20Z" glyph-name="c" horiz-adv-x="493" unicode="c" /><glyph d="M461 107V27Q427 6 389 -4.5Q351 -15 308 -15Q195 -15 122.5 56Q50 127 50 239Q50 351 123.5 423Q197 495 309 495Q349 495 388 484Q427 473 459 453V368Q414 403 380 417Q346 431 310 431Q234 431 183 375.5Q132 320 132 239Q132 157 183 103Q234 49 313 49Q350 49 384 62Q418 75 461 107ZM435 713 308 569H235L341 713ZM272 564" glyph-name="cacute" horiz-adv-x="493" unicode="&#263;" /><glyph d="M-17 713H64L140 596L217 713H300L191 569H89ZM120 564Z" glyph-name="caron" horiz-adv-x="282" unicode="&#711;" /><glyph d="M90 535 136 713H219L160 535Z" glyph-name="caron.alt" horiz-adv-x="282" unicode="&#57737;" /><glyph d="M461 107V27Q427 6 389 -4.5Q351 -15 308 -15Q195 -15 122.5 56Q50 127 50 239Q50 351 123.5 423Q197 495 309 495Q349 495 388 484Q427 473 459 453V368Q414 403 380 417Q346 431 310 431Q234 431 183 375.5Q132 320 132 239Q132 157 183 103Q234 49 313 49Q350 49 384 62Q418 75 461 107ZM135 713H216L292 596L369 713H452L343 569H241ZM272 564" glyph-name="ccaron" horiz-adv-x="493" unicode="&#269;" /><glyph d="M393 -142Q393 -184 356.5 -207Q320 -230 263 -230Q239 -230 209 -224Q179 -218 157 -209L173 -172Q189 -180 213.5 -184.5Q238 -189 258 -189Q292 -189 311 -176.5Q330 -164 330 -141Q330 -121 315 -111Q300 -101 271 -101Q256 -101 239 -104.5Q222 -108 212 -113L189 -96L253 -10Q161 7 105.5 74.5Q50 142 50 239Q50 351 123.5 423Q197 495 309 495Q349 495 388 484Q427 473 459 453V368Q414 403 380 417Q346 431 310 431Q234 431 183 375.5Q132 320 132 239Q132 157 183 103Q234 49 313 49Q350 49 384 62Q418 75 461 107V27Q427 6 389 -4.5Q351 -15 308 -15Q307 -15 305.5 -15Q304 -15 302 -15L258 -74Q267 -71 277 -70Q287 -69 301 -69Q344 -69 368.5 -88Q393 -107 393 -142Z" glyph-name="ccedilla" horiz-adv-x="493" unicode="&#231;" /><glyph d="M461 107V27Q427 6 389 -4.5Q351 -15 308 -15Q195 -15 122.5 56Q50 127 50 239Q50 351 123.5 423Q197 495 309 495Q349 495 388 484Q427 473 459 453V368Q414 403 380 417Q346 431 310 431Q234 431 183 375.5Q132 320 132 239Q132 157 183 103Q234 49 313 49Q350 49 384 62Q418 75 461 107ZM452 569H370L293 687L216 569H135L242 713H344ZM272 564" glyph-name="ccircumflex" horiz-adv-x="493" unicode="&#265;" /><glyph d="M461 107V27Q427 6 389 -4.5Q351 -15 308 -15Q195 -15 122.5 56Q50 127 50 239Q50 351 123.5 423Q197 495 309 495Q349 495 388 484Q427 473 459 453V368Q414 403 380 417Q346 431 310 431Q234 431 183 375.5Q132 320 132 239Q132 157 183 103Q234 49 313 49Q350 49 384 62Q418 75 461 107ZM293 600Q271 600 256 614.5Q241 629 241 650Q241 670 256.5 685Q272 700 293 700Q313 700 328 685Q343 670 343 650Q343 629 328 614.5Q313 600 293 600ZM272 564" glyph-name="cdotaccent" horiz-adv-x="493" unicode="&#267;" /><glyph d="M255 -142Q255 -184 218.5 -207Q182 -230 125 -230Q101 -230 71 -224Q41 -218 19 -209L35 -172Q51 -180 75.5 -184.5Q100 -189 120 -189Q154 -189 173 -176.5Q192 -164 192 -141Q192 -121 177 -111Q162 -101 133 -101Q118 -101 101 -104.5Q84 -108 74 -113L51 -96L123 0H175L120 -74Q129 -71 139 -70Q149 -69 163 -69Q206 -69 230.5 -88Q255 -107 255 -142ZM120 0Z" glyph-name="cedilla" horiz-adv-x="282" unicode="&#184;" /><glyph d="M153 239Q153 172 189 122Q225 72 284 56V425Q225 408 189 357Q153 306 153 239ZM482 107V27Q452 8 418 -2.5Q384 -13 346 -15V-78H284V-12Q188 3 129.5 71Q71 139 71 239Q71 338 130 407Q189 476 284 491V568H346V495Q382 493 417 482Q452 471 479 453V368Q439 399 408 413.5Q377 428 346 430V49Q379 51 411 64.5Q443 78 482 107Z" glyph-name="cent" horiz-adv-x="560" unicode="&#162;" /><glyph d="M300 569H218L141 687L64 569H-17L90 713H192ZM120 564Z" glyph-name="circumflex" horiz-adv-x="282" unicode="&#710;" /><glyph d="M210 434Q210 410 193.5 394Q177 378 154 378Q130 378 113.5 394Q97 410 97 434Q97 458 113.5 474.5Q130 491 154 491Q177 491 193.5 474.5Q210 458 210 434ZM210 47Q210 23 193.5 7.5Q177 -8 154 -8Q129 -8 113 7.5Q97 23 97 47Q97 70 114 86.5Q131 103 154 103Q177 103 193.5 86.5Q210 70 210 47Z" glyph-name="colon" horiz-adv-x="307" unicode=":" /><glyph d="M194 81 113 -148H44L110 81Z" glyph-name="comma" horiz-adv-x="281" unicode="," /><glyph d="M63 -232 116 -50H200L134 -232ZM120 -20Z" glyph-name="commaaccent" horiz-adv-x="282" unicode="&#63171;" /><glyph d="M780 353Q780 197 669 87.5Q558 -22 401 -22Q243 -22 131.5 87.5Q20 197 20 353Q20 429 49 498Q78 567 132 620Q185 673 255 701.5Q325 730 401 730Q477 730 546.5 701.5Q616 673 669 620Q722 567 751 498Q780 429 780 353ZM743 353Q743 495 642.5 595.5Q542 696 401 696Q258 696 156.5 595.5Q55 495 55 353Q55 210 155 110Q255 10 398 10Q541 10 642 110.5Q743 211 743 353ZM420 176Q458 176 493 190.5Q528 205 557 232V168Q531 145 494 132.5Q457 120 415 120Q317 120 253 185Q189 250 189 351Q189 451 252.5 516Q316 581 414 581Q453 581 490 568Q527 555 555 532V468Q526 495 489.5 510.5Q453 526 419 526Q350 526 304 475.5Q258 425 258 351Q258 276 303.5 226Q349 176 420 176Z" glyph-name="copyright" horiz-adv-x="800" unicode="&#169;" /><glyph d="M520 580 562 540 478 457Q502 426 514 388.5Q526 351 526 308Q526 264 513 225Q500 186 475 155L562 67L521 28L433 117Q403 94 365.5 81.5Q328 69 288 69Q248 69 211 81.5Q174 94 141 118L51 28L10 67L99 158Q75 187 63 225Q51 263 51 308Q51 351 62.5 388Q74 425 97 455L10 540L52 580L137 493Q169 519 207 532Q245 545 288 545Q331 545 369 532Q407 519 436 494ZM288 130Q361 130 408 180.5Q455 231 455 308Q455 385 408 435.5Q361 486 288 486Q214 486 167 435.5Q120 385 120 308Q120 231 167 180.5Q214 130 288 130Z" glyph-name="currency" horiz-adv-x="573" unicode="&#164;" /><glyph d="M292 51Q338 51 375 68Q412 85 454 126V356Q405 398 369.5 413Q334 428 289 428Q221 428 176.5 374.5Q132 321 132 241Q132 159 177 105Q222 51 292 51ZM454 0V53H453Q409 15 371.5 0.5Q334 -14 285 -14Q180 -14 115 55.5Q50 125 50 238Q50 351 115.5 422.5Q181 494 283 494Q329 494 369 481Q409 468 453 437H454V708H536V0ZM492 764ZM292 -20ZM494 -20Z" glyph-name="d" horiz-adv-x="621" unicode="d" /><glyph d="M508 434H317V-127H237V434H46V503H236V708H316V503H508Z" glyph-name="dagger" horiz-adv-x="555" unicode="&#8224;" /><glyph d="M508 65H317V-127H237V65H46V133H237V445H46V513H236V708H316V513H508V445H317V133H508Z" glyph-name="daggerdbl" horiz-adv-x="555" unicode="&#8225;" /><glyph d="M292 51Q338 51 375 68Q412 85 454 126V356Q405 398 369.5 413Q334 428 289 428Q221 428 176.5 374.5Q132 321 132 241Q132 159 177 105Q222 51 292 51ZM454 0V53H453Q409 15 371.5 0.5Q334 -14 285 -14Q180 -14 115 55.5Q50 125 50 238Q50 351 115.5 422.5Q181 494 283 494Q329 494 369 481Q409 468 453 437H454V708H536V0ZM569 529 615 707H698L639 529Z" glyph-name="dcaron" horiz-adv-x="638" unicode="&#271;" /><glyph d="M292 51Q338 51 375 68Q412 85 454 126V356Q405 398 369.5 413Q334 428 289 428Q221 428 176.5 374.5Q132 321 132 241Q132 159 177 105Q222 51 292 51ZM454 53H453Q409 15 371.5 0.5Q334 -14 285 -14Q180 -14 115 55.5Q50 125 50 238Q50 351 115.5 422.5Q181 494 283 494Q329 494 369 481Q409 468 453 437H454V573H326V625H454V708H536V625H590V573H536V0H454Z" glyph-name="dcroat" horiz-adv-x="621" unicode="&#273;" /><glyph d="M206 720Q273 720 318 675Q363 630 363 564Q363 498 317.5 453Q272 408 206 408Q140 408 94.5 453.5Q49 499 49 564Q49 630 94.5 675Q140 720 206 720ZM206 449Q254 449 287.5 482.5Q321 516 321 564Q321 612 287 646Q253 680 206 680Q159 680 125 646Q91 612 91 564Q91 516 124.5 482.5Q158 449 206 449Z" glyph-name="degree" horiz-adv-x="413" unicode="&#176;" /><glyph d="M270 650Q270 631 256 617Q242 603 223 603Q203 603 188.5 616.5Q174 630 174 650Q174 669 188.5 682.5Q203 696 223 696Q242 696 256 682.5Q270 669 270 650ZM107 650Q107 631 93 617Q79 603 60 603Q40 603 26 616.5Q12 630 12 650Q12 669 26 682.5Q40 696 60 696Q79 696 93 682.5Q107 669 107 650ZM120 564Z" glyph-name="dieresis" horiz-adv-x="282" unicode="&#168;" /><glyph d="M279 428Q255 428 237.5 445Q220 462 220 486Q220 510 237.5 527Q255 544 279 544Q303 544 320 527Q337 510 337 486Q337 462 320 445Q303 428 279 428ZM31 269V335H527V269ZM279 60Q255 60 237.5 77Q220 94 220 118Q220 142 237.5 159Q255 176 279 176Q302 176 319.5 158.5Q337 141 337 118Q337 94 320 77Q303 60 279 60Z" glyph-name="divide" horiz-adv-x="560" unicode="&#247;" /><glyph d="M279 498Q255 498 237.5 515Q220 532 220 556Q220 580 237.5 597Q255 614 279 614Q303 614 320 597Q337 580 337 556Q337 532 320 515Q303 498 279 498ZM31 339V405H527V339ZM279 130Q255 130 237.5 147Q220 164 220 188Q220 212 237.5 229Q255 246 279 246Q302 246 319.5 228.5Q337 211 337 188Q337 164 320 147Q303 130 279 130Z" glyph-name="divide.case" horiz-adv-x="560" /><glyph d="M142 531Q142 487 168 458Q194 429 258 408V650Q204 642 173 610.5Q142 579 142 531ZM425 181Q425 223 398.5 252.5Q372 282 312 305V59Q365 68 395 100.5Q425 133 425 181ZM312 -12V-86H258V-15Q202 -14 148 3Q94 20 45 51V155Q100 108 153 83Q206 58 258 55V322Q146 354 99.5 402.5Q53 451 53 529Q53 608 109 659.5Q165 711 258 721V792H312V723Q365 720 412.5 704Q460 688 499 660V561Q453 601 406 624Q359 647 312 651V391Q424 356 469.5 309Q515 262 515 188Q515 107 459.5 53.5Q404 0 312 -12Z" glyph-name="dollar" horiz-adv-x="560" unicode="$" /><glyph d="M141 600Q119 600 104 614.5Q89 629 89 650Q89 670 104.5 685Q120 700 141 700Q161 700 176 685Q191 670 191 650Q191 629 176 614.5Q161 600 141 600ZM120 564Z" glyph-name="dotaccent" horiz-adv-x="282" unicode="&#729;" /><glyph d="M165 0H84V480H165ZM113 764ZM113 -20Z" glyph-name="dotlessi" horiz-adv-x="250" unicode="&#305;" /><glyph d="M84 480H165V-60Q165 -157 131.5 -198.5Q98 -240 24 -240Q14 -240 2.5 -238.5Q-9 -237 -21 -235V-170Q-14 -172 -6.5 -173Q1 -174 7 -174Q47 -174 65.5 -150Q84 -126 84 -69Z" glyph-name="dotlessj" horiz-adv-x="250" unicode="&#567;" /><glyph d="M291 429Q228 429 185 387Q142 345 134 280H445Q439 349 398 389Q357 429 291 429ZM499 119V37Q453 10 408.5 -2.5Q364 -15 311 -15Q191 -15 120.5 54.5Q50 124 50 242Q50 354 117.5 424.5Q185 495 290 495Q396 495 459 428.5Q522 362 522 258Q522 248 521 238Q520 228 519 221H134Q142 139 188 94.5Q234 50 313 50Q364 50 407.5 66.5Q451 83 499 119ZM281 564ZM290 -20ZM415 -20Z" glyph-name="e" horiz-adv-x="574" unicode="e" /><glyph d="M291 429Q228 429 185 387Q142 345 134 280H445Q439 349 398 389Q357 429 291 429ZM499 119V37Q453 10 408.5 -2.5Q364 -15 311 -15Q191 -15 120.5 54.5Q50 124 50 242Q50 354 117.5 424.5Q185 495 290 495Q396 495 459 428.5Q522 362 522 258Q522 248 521 238Q520 228 519 221H134Q142 139 188 94.5Q234 50 313 50Q364 50 407.5 66.5Q451 83 499 119ZM429 713 302 569H229L335 713ZM266 564" glyph-name="eacute" horiz-adv-x="574" unicode="&#233;" /><glyph d="M291 429Q228 429 185 387Q142 345 134 280H445Q439 349 398 389Q357 429 291 429ZM499 119V37Q453 10 408.5 -2.5Q364 -15 311 -15Q191 -15 120.5 54.5Q50 124 50 242Q50 354 117.5 424.5Q185 495 290 495Q396 495 459 428.5Q522 362 522 258Q522 248 521 238Q520 228 519 221H134Q142 139 188 94.5Q234 50 313 50Q364 50 407.5 66.5Q451 83 499 119ZM355 703H423Q413 641 376.5 606.5Q340 572 284 572Q229 572 193.5 606.5Q158 641 150 703H217Q220 669 238.5 649Q257 629 284 629Q315 629 332.5 647Q350 665 355 703ZM266 564" glyph-name="ebreve" horiz-adv-x="574" unicode="&#277;" /><glyph d="M291 429Q228 429 185 387Q142 345 134 280H445Q439 349 398 389Q357 429 291 429ZM499 119V37Q453 10 408.5 -2.5Q364 -15 311 -15Q191 -15 120.5 54.5Q50 124 50 242Q50 354 117.5 424.5Q185 495 290 495Q396 495 459 428.5Q522 362 522 258Q522 248 521 238Q520 228 519 221H134Q142 139 188 94.5Q234 50 313 50Q364 50 407.5 66.5Q451 83 499 119ZM129 713H210L286 596L363 713H446L337 569H235ZM266 564" glyph-name="ecaron" horiz-adv-x="574" unicode="&#283;" /><glyph d="M291 429Q228 429 185 387Q142 345 134 280H445Q439 349 398 389Q357 429 291 429ZM499 119V37Q453 10 408.5 -2.5Q364 -15 311 -15Q191 -15 120.5 54.5Q50 124 50 242Q50 354 117.5 424.5Q185 495 290 495Q396 495 459 428.5Q522 362 522 258Q522 248 521 238Q520 228 519 221H134Q142 139 188 94.5Q234 50 313 50Q364 50 407.5 66.5Q451 83 499 119ZM446 569H364L287 687L210 569H129L236 713H338ZM266 564" glyph-name="ecircumflex" horiz-adv-x="574" unicode="&#234;" /><glyph d="M291 429Q228 429 185 387Q142 345 134 280H445Q439 349 398 389Q357 429 291 429ZM499 119V37Q453 10 408.5 -2.5Q364 -15 311 -15Q191 -15 120.5 54.5Q50 124 50 242Q50 354 117.5 424.5Q185 495 290 495Q396 495 459 428.5Q522 362 522 258Q522 248 521 238Q520 228 519 221H134Q142 139 188 94.5Q234 50 313 50Q364 50 407.5 66.5Q451 83 499 119ZM416 650Q416 631 402 617Q388 603 369 603Q349 603 334.5 616.5Q320 630 320 650Q320 669 334.5 682.5Q349 696 369 696Q388 696 402 682.5Q416 669 416 650ZM253 650Q253 631 239 617Q225 603 206 603Q186 603 172 616.5Q158 630 158 650Q158 669 172 682.5Q186 696 206 696Q225 696 239 682.5Q253 669 253 650ZM266 564" glyph-name="edieresis" horiz-adv-x="574" unicode="&#235;" /><glyph d="M291 429Q228 429 185 387Q142 345 134 280H445Q439 349 398 389Q357 429 291 429ZM499 119V37Q453 10 408.5 -2.5Q364 -15 311 -15Q191 -15 120.5 54.5Q50 124 50 242Q50 354 117.5 424.5Q185 495 290 495Q396 495 459 428.5Q522 362 522 258Q522 248 521 238Q520 228 519 221H134Q142 139 188 94.5Q234 50 313 50Q364 50 407.5 66.5Q451 83 499 119ZM287 600Q265 600 250 614.5Q235 629 235 650Q235 670 250.5 685Q266 700 287 700Q307 700 322 685Q337 670 337 650Q337 629 322 614.5Q307 600 287 600ZM266 564" glyph-name="edotaccent" horiz-adv-x="574" unicode="&#279;" /><glyph d="M291 429Q228 429 185 387Q142 345 134 280H445Q439 349 398 389Q357 429 291 429ZM499 119V37Q453 10 408.5 -2.5Q364 -15 311 -15Q191 -15 120.5 54.5Q50 124 50 242Q50 354 117.5 424.5Q185 495 290 495Q396 495 459 428.5Q522 362 522 258Q522 248 521 238Q520 228 519 221H134Q142 139 188 94.5Q234 50 313 50Q364 50 407.5 66.5Q451 83 499 119ZM344 569H271L146 713H238ZM266 564" glyph-name="egrave" horiz-adv-x="574" unicode="&#232;" /><glyph d="M490 537Q490 483 459.5 439Q429 395 378 377V375Q441 354 476.5 305Q512 256 512 192Q512 99 447 42.5Q382 -14 280 -14Q177 -14 112 42Q47 98 47 192Q47 256 83 305.5Q119 355 181 374V377Q129 397 99 440.5Q69 484 69 537Q69 620 128.5 671Q188 722 280 722Q371 722 430.5 670.5Q490 619 490 537ZM403 532Q403 586 368 621.5Q333 657 280 657Q226 657 190.5 621.5Q155 586 155 532Q155 478 191 440.5Q227 403 280 403Q332 403 367.5 441Q403 479 403 532ZM423 194Q423 258 382.5 299.5Q342 341 280 341Q217 341 176 299Q135 257 135 194Q135 131 175.5 90Q216 49 280 49Q343 49 383 90Q423 131 423 194Z" glyph-name="eight" horiz-adv-x="560" unicode="8" /><glyph d="M512 192Q512 99 447 42.5Q382 -14 280 -14Q177 -14 112 41.5Q47 97 47 189Q47 247 81 296Q115 345 175 373Q122 400 95.5 440.5Q69 481 69 537Q69 620 128.5 671Q188 722 280 722Q370 722 430 671.5Q490 621 490 542Q490 491 460.5 449Q431 407 377 378Q445 348 478.5 302Q512 256 512 192ZM155 534Q155 486 188.5 455.5Q222 425 299 405Q302 405 307 403.5Q312 402 314 401Q356 421 379.5 456Q403 491 403 534Q403 587 368 621Q333 655 280 655Q226 655 190.5 621Q155 587 155 534ZM135 194Q135 131 175.5 91Q216 51 280 51Q343 51 383 91Q423 131 423 192Q423 246 381.5 283.5Q340 321 255 343Q252 344 247.5 345.5Q243 347 241 347Q191 325 163 285Q135 245 135 194Z" glyph-name="eight.alt" horiz-adv-x="560" /><glyph d="M307 188Q307 156 289.5 129.5Q272 103 242 92V91Q278 80 298.5 51Q319 22 319 -16Q319 -74 278.5 -108.5Q238 -143 174 -143Q109 -143 68.5 -108.5Q28 -74 28 -16Q28 21 49 50Q70 79 106 91V92Q75 104 57.5 130Q40 156 40 188Q40 240 77.5 271.5Q115 303 174 303Q232 303 269.5 271.5Q307 240 307 188ZM242 184Q242 214 222.5 233Q203 252 174 252Q144 252 125 233Q106 214 106 184Q106 154 125.5 133Q145 112 174 112Q203 112 222.5 133Q242 154 242 184ZM253 -15Q253 20 230.5 42.5Q208 65 174 65Q139 65 117 42.5Q95 20 95 -15Q95 -50 117 -72Q139 -94 174 -94Q209 -94 231 -71.5Q253 -49 253 -15Z" glyph-name="eight.denominator" horiz-adv-x="348" unicode="&#57504;" /><glyph d="M307 740Q307 708 289.5 681.5Q272 655 242 644V643Q278 632 298.5 603Q319 574 319 536Q319 478 278.5 443.5Q238 409 174 409Q109 409 68.5 443.5Q28 478 28 536Q28 573 49 602Q70 631 106 643V644Q75 656 57.5 682Q40 708 40 740Q40 792 77.5 823.5Q115 855 174 855Q232 855 269.5 823.5Q307 792 307 740ZM242 736Q242 766 222.5 785Q203 804 174 804Q144 804 125 785Q106 766 106 736Q106 706 125.5 685Q145 664 174 664Q203 664 222.5 685Q242 706 242 736ZM253 537Q253 572 230.5 594.5Q208 617 174 617Q139 617 117 594.5Q95 572 95 537Q95 502 117 480Q139 458 174 458Q209 458 231 480.5Q253 503 253 537Z" glyph-name="eight.numerator" horiz-adv-x="348" unicode="&#57494;" /><glyph d="M491 537Q491 483 460.5 439Q430 395 379 377V375Q442 354 477.5 305Q513 256 513 192Q513 99 448 42.5Q383 -14 281 -14Q178 -14 113 42Q48 98 48 192Q48 256 84 305.5Q120 355 182 374V377Q130 397 100 440.5Q70 484 70 537Q70 620 129.5 671Q189 722 281 722Q372 722 431.5 670.5Q491 619 491 537ZM404 532Q404 586 369 621.5Q334 657 281 657Q227 657 191.5 621.5Q156 586 156 532Q156 478 192 440.5Q228 403 281 403Q333 403 368.5 441Q404 479 404 532ZM424 194Q424 258 383.5 299.5Q343 341 281 341Q218 341 177 299Q136 257 136 194Q136 131 176.5 90Q217 49 281 49Q344 49 384 90Q424 131 424 194Z" glyph-name="eight.plf" horiz-adv-x="562" unicode="&#57391;" /><glyph d="M485 537Q485 483 454.5 439Q424 395 373 377V375Q436 354 471.5 305Q507 256 507 192Q507 99 442 42.5Q377 -14 275 -14Q172 -14 107 42Q42 98 42 192Q42 256 78 305.5Q114 355 176 374V377Q124 397 94 440.5Q64 484 64 537Q64 620 123.5 671Q183 722 275 722Q366 722 425.5 670.5Q485 619 485 537ZM398 532Q398 586 363 621.5Q328 657 275 657Q221 657 185.5 621.5Q150 586 150 532Q150 478 186 440.5Q222 403 275 403Q327 403 362.5 441Q398 479 398 532ZM418 194Q418 258 377.5 299.5Q337 341 275 341Q212 341 171 299Q130 257 130 194Q130 131 170.5 90Q211 49 275 49Q338 49 378 90Q418 131 418 194Z" glyph-name="eight.posf" horiz-adv-x="562" unicode="&#57445;" /><glyph d="M490 537Q490 483 459.5 439Q429 395 378 377V375Q441 354 476.5 305Q512 256 512 192Q512 99 447 42.5Q382 -14 280 -14Q177 -14 112 42Q47 98 47 192Q47 256 83 305.5Q119 355 181 374V377Q129 397 99 440.5Q69 484 69 537Q69 620 128.5 671Q188 722 280 722Q371 722 430.5 670.5Q490 619 490 537ZM403 532Q403 586 368 621.5Q333 657 280 657Q226 657 190.5 621.5Q155 586 155 532Q155 478 191 440.5Q227 403 280 403Q332 403 367.5 441Q403 479 403 532ZM423 194Q423 258 382.5 299.5Q342 341 280 341Q217 341 176 299Q135 257 135 194Q135 131 175.5 90Q216 49 280 49Q343 49 383 90Q423 131 423 194Z" glyph-name="eight.tlf" horiz-adv-x="560" unicode="&#57409;" /><glyph d="M490 537Q490 483 459.5 439Q429 395 378 377V375Q441 354 476.5 305Q512 256 512 192Q512 99 447 42.5Q382 -14 280 -14Q177 -14 112 42Q47 98 47 192Q47 256 83 305.5Q119 355 181 374V377Q129 397 99 440.5Q69 484 69 537Q69 620 128.5 671Q188 722 280 722Q371 722 430.5 670.5Q490 619 490 537ZM403 532Q403 586 368 621.5Q333 657 280 657Q226 657 190.5 621.5Q155 586 155 532Q155 478 191 440.5Q227 403 280 403Q332 403 367.5 441Q403 479 403 532ZM423 194Q423 258 382.5 299.5Q342 341 280 341Q217 341 176 299Q135 257 135 194Q135 131 175.5 90Q216 49 280 49Q343 49 383 90Q423 131 423 194Z" glyph-name="eight.tosf" horiz-adv-x="560" unicode="&#57427;" /><glyph d="M512 192Q512 99 447 42.5Q382 -14 280 -14Q177 -14 112 41.5Q47 97 47 189Q47 247 81 296Q115 345 175 373Q122 400 95.5 440.5Q69 481 69 537Q69 620 128.5 671Q188 722 280 722Q370 722 430 671.5Q490 621 490 542Q490 491 460.5 449Q431 407 377 378Q445 348 478.5 302Q512 256 512 192ZM155 534Q155 486 188.5 455.5Q222 425 299 405Q302 405 307 403.5Q312 402 314 401Q356 421 379.5 456Q403 491 403 534Q403 587 368 621Q333 655 280 655Q226 655 190.5 621Q155 587 155 534ZM135 194Q135 131 175.5 91Q216 51 280 51Q343 51 383 91Q423 131 423 192Q423 246 381.5 283.5Q340 321 255 343Q252 344 247.5 345.5Q243 347 241 347Q191 325 163 285Q135 245 135 194Z" glyph-name="eight.tosf.alt" horiz-adv-x="560" /><glyph d="M307 322Q307 290 289.5 263.5Q272 237 242 226V225Q278 214 298.5 185Q319 156 319 118Q319 60 278.5 25.5Q238 -9 174 -9Q109 -9 68.5 25.5Q28 60 28 118Q28 155 49 184Q70 213 106 225V226Q75 238 57.5 264Q40 290 40 322Q40 374 77.5 405.5Q115 437 174 437Q232 437 269.5 405.5Q307 374 307 322ZM242 318Q242 348 222.5 367Q203 386 174 386Q144 386 125 367Q106 348 106 318Q106 288 125.5 267Q145 246 174 246Q203 246 222.5 267Q242 288 242 318ZM253 119Q253 154 230.5 176.5Q208 199 174 199Q139 199 117 176.5Q95 154 95 119Q95 84 117 62Q139 40 174 40Q209 40 231 62.5Q253 85 253 119Z" glyph-name="eightinferior" horiz-adv-x="348" unicode="&#8328;" /><glyph d="M307 607Q307 575 289.5 548.5Q272 522 242 511V510Q278 499 298.5 470Q319 441 319 403Q319 345 278.5 310.5Q238 276 174 276Q109 276 68.5 310.5Q28 345 28 403Q28 440 49 469Q70 498 106 510V511Q75 523 57.5 549Q40 575 40 607Q40 659 77.5 690.5Q115 722 174 722Q232 722 269.5 690.5Q307 659 307 607ZM242 603Q242 633 222.5 652Q203 671 174 671Q144 671 125 652Q106 633 106 603Q106 573 125.5 552Q145 531 174 531Q203 531 222.5 552Q242 573 242 603ZM253 404Q253 439 230.5 461.5Q208 484 174 484Q139 484 117 461.5Q95 439 95 404Q95 369 117 347Q139 325 174 325Q209 325 231 347.5Q253 370 253 404ZM637 714 233 -27 187 -6 591 736ZM751 167 645 0H568L683 180L681 181Q673 170 658.5 164Q644 158 627 158Q575 158 538.5 196Q502 234 502 292Q502 357 543.5 397Q585 437 650 437Q715 437 756 397.5Q797 358 797 293Q797 264 786.5 234.5Q776 205 751 167ZM730 293Q730 331 707.5 355.5Q685 380 650 380Q614 380 591.5 355.5Q569 331 569 293Q569 255 591.5 230.5Q614 206 648 206Q683 206 706.5 231Q730 256 730 293Z" glyph-name="eightninths" horiz-adv-x="824" unicode="&#57485;" /><glyph d="M307 607Q307 575 289.5 548.5Q272 522 242 511V510Q278 499 298.5 470Q319 441 319 403Q319 345 278.5 310.5Q238 276 174 276Q109 276 68.5 310.5Q28 345 28 403Q28 440 49 469Q70 498 106 510V511Q75 523 57.5 549Q40 575 40 607Q40 659 77.5 690.5Q115 722 174 722Q232 722 269.5 690.5Q307 659 307 607ZM242 603Q242 633 222.5 652Q203 671 174 671Q144 671 125 652Q106 633 106 603Q106 573 125.5 552Q145 531 174 531Q203 531 222.5 552Q242 573 242 603ZM253 404Q253 439 230.5 461.5Q208 484 174 484Q139 484 117 461.5Q95 439 95 404Q95 369 117 347Q139 325 174 325Q209 325 231 347.5Q253 370 253 404Z" glyph-name="eightsuperior" horiz-adv-x="348" unicode="&#8312;" /><glyph d="M753 44Q753 21 737 6.5Q721 -8 697 -8Q673 -8 657 6.5Q641 21 641 44Q641 66 657.5 82Q674 98 697 98Q720 98 736.5 82Q753 66 753 44ZM475 44Q475 21 458.5 6.5Q442 -8 419 -8Q394 -8 378 6.5Q362 21 362 44Q362 66 379 82Q396 98 419 98Q442 98 458.5 82Q475 66 475 44ZM197 44Q197 21 180.5 6.5Q164 -8 141 -8Q116 -8 100 6.5Q84 21 84 44Q84 66 101 82Q118 98 141 98Q164 98 180.5 82Q197 66 197 44Z" glyph-name="ellipsis" horiz-adv-x="838" unicode="&#8230;" /><glyph d="M291 429Q228 429 185 387Q142 345 134 280H445Q439 349 398 389Q357 429 291 429ZM499 119V37Q453 10 408.5 -2.5Q364 -15 311 -15Q191 -15 120.5 54.5Q50 124 50 242Q50 354 117.5 424.5Q185 495 290 495Q396 495 459 428.5Q522 362 522 258Q522 248 521 238Q520 228 519 221H134Q142 139 188 94.5Q234 50 313 50Q364 50 407.5 66.5Q451 83 499 119ZM418 613H154V665H418ZM266 564" glyph-name="emacron" horiz-adv-x="574" unicode="&#275;" /><glyph d="M970 236H30V295H970Z" glyph-name="emdash" horiz-adv-x="1000" unicode="&#8212;" /><glyph d="M970 306H30V365H970Z" glyph-name="emdash.case" horiz-adv-x="1000" /><glyph d="M470 236H30V295H470Z" glyph-name="endash" horiz-adv-x="500" unicode="&#8211;" /><glyph d="M470 306H30V365H470Z" glyph-name="endash.case" horiz-adv-x="500" /><glyph d="M370 -240Q360 -240 348.5 -238.5Q337 -237 325 -235V-170Q332 -172 339.5 -173Q347 -174 353 -174Q393 -174 411.5 -150Q430 -126 430 -69V306Q430 360 398 394Q366 428 312 428Q275 428 241.5 410.5Q208 393 167 352V0H86V377Q86 405 84 429.5Q82 454 77 480H156Q159 470 161 455Q163 440 164 427H165Q213 466 249 480Q285 494 330 494Q414 494 462.5 445Q511 396 511 312V-60Q511 -157 477.5 -198.5Q444 -240 370 -240Z" glyph-name="eng" horiz-adv-x="590" unicode="&#331;" /><glyph d="M291 429Q228 429 185 387Q142 345 134 280H445Q439 349 398 389Q357 429 291 429ZM434 -162 451 -196Q434 -211 410 -219Q386 -227 355 -227Q308 -227 280.5 -205Q253 -183 253 -144Q253 -113 274 -80.5Q295 -48 337 -14Q332 -15 327 -15Q322 -15 311 -15Q191 -15 120.5 54.5Q50 124 50 242Q50 354 117.5 424.5Q185 495 290 495Q396 495 459 428.5Q522 362 522 258Q522 248 521 238Q520 228 519 221H134Q142 139 188 94.5Q234 50 313 50Q364 50 407.5 66.5Q451 83 499 119V37Q473 22 448.5 11.5Q424 1 401 -5Q354 -50 335.5 -78Q317 -106 317 -133Q317 -158 331.5 -172.5Q346 -187 371 -187Q390 -187 406.5 -180.5Q423 -174 434 -162Z" glyph-name="eogonek" horiz-adv-x="574" unicode="&#281;" /><glyph d="M35 360V423H524V360ZM35 183V246H524V183Z" glyph-name="equal" horiz-adv-x="560" unicode="=" /><glyph d="M35 430V493H524V430ZM35 253V316H524V253Z" glyph-name="equal.case" horiz-adv-x="560" /><glyph d="M437 12Q508 12 572.5 42Q637 72 687 128H742Q689 62 610 27Q531 -8 437 -8Q362 -8 293 17Q224 42 170 89Q112 139 80.5 204.5Q49 270 49 342Q49 413 80.5 478Q112 543 171 593Q225 639 294 663.5Q363 688 437 688Q514 688 583.5 662.5Q653 637 707 590Q764 540 795 473.5Q826 407 826 333H202Q197 333 195 330.5Q193 328 193 322V150Q193 96 275.5 54Q358 12 437 12ZM682 359V533Q682 545 677.5 557Q673 569 665 580Q637 618 571 644Q505 670 437 670Q370 670 306 645Q242 620 212 580Q203 569 198 556.5Q193 544 193 533V359Q193 355 195 353Q197 351 202 351H672Q677 351 679.5 353Q682 355 682 359Z" glyph-name="estimated" horiz-adv-x="862" unicode="&#8494;" /><glyph d="M556 256Q556 134 485.5 59.5Q415 -15 303 -15Q192 -15 121 56Q50 127 50 240Q50 352 121.5 424Q193 496 303 496Q342 496 375.5 483.5Q409 471 437 445Q416 495 385.5 539Q355 583 316 621L203 571L185 618L274 658Q256 672 236 685.5Q216 699 195 711L254 740Q277 726 297 712.5Q317 699 335 685L443 733L461 686L377 649Q462 568 509 465Q556 362 556 256ZM132 241Q132 159 180 105.5Q228 52 303 52Q378 52 426 105Q474 158 474 239Q474 321 426 374Q378 427 303 427Q228 427 180 374.5Q132 322 132 241ZM292 564ZM292 -20ZM405 -20Z" glyph-name="eth" horiz-adv-x="608" unicode="&#240;" /><glyph d="M205 199H129L115 708H220ZM225 45Q225 22 208.5 7Q192 -8 167 -8Q142 -8 125.5 7Q109 22 109 45Q109 69 126 85Q143 101 167 101Q191 101 208 84.5Q225 68 225 45Z" glyph-name="exclam" horiz-adv-x="335" unicode="!" /><glyph d="M109 388Q109 411 126 427Q143 443 167 443Q191 443 208 427Q225 411 225 388Q225 364 208 348Q191 332 167 332Q143 332 126 348.5Q109 365 109 388ZM129 234H205L220 -272H115Z" glyph-name="exclamdown" horiz-adv-x="335" unicode="&#161;" /><glyph d="M109 660Q109 683 126 699Q143 715 167 715Q191 715 208 699Q225 683 225 660Q225 636 208 620Q191 604 167 604Q143 604 126 620.5Q109 637 109 660ZM129 506H205L220 0H115Z" glyph-name="exclamdown.case" horiz-adv-x="335" /><glyph d="M305 480V412H185V0H104V412H15V480H104V562Q104 638 145 679Q186 720 259 720Q272 720 287.5 718.5Q303 717 316 714V643Q304 648 292.5 650Q281 652 270 652Q229 652 207 626.5Q185 601 185 554V480ZM133 764ZM132 -20ZM201 -20Z" glyph-name="f" horiz-adv-x="314" unicode="f" /><glyph d="M475 708V429H477Q520 464 559.5 479Q599 494 644 494Q748 494 813.5 425Q879 356 879 244Q879 131 812.5 58.5Q746 -14 643 -14Q601 -14 564.5 -2.5Q528 9 490 36Q483 42 480 43.5Q477 45 476 45Q472 45 470 41.5Q468 38 468 30V0H394V708ZM631 51Q703 51 750 105.5Q797 160 797 242Q797 323 751.5 375.5Q706 428 635 428Q594 428 557.5 410.5Q521 393 475 351V126Q516 85 552.5 68Q589 51 631 51ZM305 480V412H185V0H104V412H15V480H104V562Q104 638 145 679Q186 720 259 720Q272 720 287.5 718.5Q303 717 316 714V643Q304 648 292.5 650Q281 652 270 652Q229 652 207 626.5Q185 601 185 554V480Z" glyph-name="f_b" horiz-adv-x="932" /><glyph d="M479 0H398V412H185V0H104V412H15V480H104V562Q104 638 145 679Q186 720 259 720Q272 720 287.5 718.5Q303 717 316 714V643Q304 648 292.5 650Q281 652 270 652Q229 652 207 626.5Q185 601 185 554V480H398V562Q398 638 439 679Q480 720 553 720Q566 720 581.5 718.5Q597 717 610 714V643Q598 648 586.5 650Q575 652 564 652Q523 652 501 626.5Q479 601 479 554V480H599V412H479Z" glyph-name="f_f" horiz-adv-x="608" unicode="&#64256;" /><glyph d="M769 708V429H771Q814 464 853.5 479Q893 494 938 494Q1042 494 1107.5 425Q1173 356 1173 244Q1173 131 1106.5 58.5Q1040 -14 937 -14Q895 -14 858.5 -2.5Q822 9 784 36Q777 42 774 43.5Q771 45 770 45Q766 45 764 41.5Q762 38 762 30V0H688V708ZM925 51Q997 51 1044 105.5Q1091 160 1091 242Q1091 323 1045.5 375.5Q1000 428 929 428Q888 428 851.5 410.5Q815 393 769 351V126Q810 85 846.5 68Q883 51 925 51ZM479 0H398V412H185V0H104V412H15V480H104V562Q104 638 145 679Q186 720 259 720Q272 720 287.5 718.5Q303 717 316 714V643Q304 648 292.5 650Q281 652 270 652Q229 652 207 626.5Q185 601 185 554V480H398V562Q398 638 439 679Q480 720 553 720Q566 720 581.5 718.5Q597 717 610 714V643Q598 648 586.5 650Q575 652 564 652Q523 652 501 626.5Q479 601 479 554V480H599V412H479Z" glyph-name="f_f_b" horiz-adv-x="1226" /><glyph d="M769 708V431H771Q815 466 852 480Q889 494 936 494Q1018 494 1065.5 445Q1113 396 1113 312V0H1032V306Q1032 361 1000.5 394.5Q969 428 916 428Q880 428 846.5 411.5Q813 395 769 354V0H688V708ZM479 0H398V412H185V0H104V412H15V480H104V562Q104 638 145 679Q186 720 259 720Q272 720 287.5 718.5Q303 717 316 714V643Q304 648 292.5 650Q281 652 270 652Q229 652 207 626.5Q185 601 185 554V480H398V562Q398 638 439 679Q480 720 553 720Q566 720 581.5 718.5Q597 717 610 714V643Q598 648 586.5 650Q575 652 564 652Q523 652 501 626.5Q479 601 479 554V480H599V412H479Z" glyph-name="f_f_h" horiz-adv-x="1192" /><glyph d="M779 669Q779 648 764.5 633Q750 618 729 618Q707 618 692.5 632.5Q678 647 678 669Q678 690 693 705Q708 720 729 720Q750 720 764.5 705Q779 690 779 669ZM479 0H398V412H185V0H104V412H15V480H104V562Q104 638 145 679Q186 720 259 720Q272 720 287.5 718.5Q303 717 316 714V643Q304 648 292.5 650Q281 652 270 652Q229 652 207 626.5Q185 601 185 554V480H398V562Q398 638 439 679Q480 720 553 720Q566 720 581.5 718.5Q597 717 610 714V643Q598 648 586.5 650Q575 652 564 652Q523 652 501 626.5Q479 601 479 554V480H769V0H688V412H479Z" glyph-name="f_f_i" horiz-adv-x="854" unicode="&#64259;" /><glyph d="M779 669Q779 648 764.5 633Q750 618 729 618Q707 618 692.5 632.5Q678 647 678 669Q678 690 693 705Q708 720 729 720Q750 720 764.5 705Q779 690 779 669ZM628 -240Q618 -240 606.5 -238.5Q595 -237 583 -235V-170Q590 -172 597.5 -173Q605 -174 611 -174Q651 -174 669.5 -150Q688 -126 688 -69V412H479V0H398V412H185V0H104V412H15V480H104V562Q104 638 145 679Q186 720 259 720Q272 720 287.5 718.5Q303 717 316 714V643Q304 648 292.5 650Q281 652 270 652Q229 652 207 626.5Q185 601 185 554V480H398V562Q398 638 439 679Q480 720 553 720Q566 720 581.5 718.5Q597 717 610 714V643Q598 648 586.5 650Q575 652 564 652Q523 652 501 626.5Q479 601 479 554V480H769V-60Q769 -157 735.5 -198.5Q702 -240 628 -240Z" glyph-name="f_f_j" horiz-adv-x="854" /><glyph d="M479 0H398V412H185V0H104V412H15V480H104V562Q104 638 145 679Q186 720 259 720Q272 720 287.5 718.5Q303 717 316 714V643Q304 648 292.5 650Q281 652 270 652Q229 652 207 626.5Q185 601 185 554V480H398V562Q398 638 439 679Q480 720 553 720Q566 720 581.5 718.5Q597 717 610 714V643Q598 648 586.5 650Q575 652 564 652Q523 652 501 626.5Q479 601 479 554V480H599V412H479ZM989 0 771 238H769V0H688V708H769V271H771L973 480H1070L849 259L1089 0Z" glyph-name="f_f_k" horiz-adv-x="1105" /><glyph d="M688 708H769V122Q769 95 782 80.5Q795 66 820 66H841V0H794Q743 0 715.5 29Q688 58 688 111ZM479 0H398V412H185V0H104V412H15V480H104V562Q104 638 145 679Q186 720 259 720Q272 720 287.5 718.5Q303 717 316 714V643Q304 648 292.5 650Q281 652 270 652Q229 652 207 626.5Q185 601 185 554V480H398V562Q398 638 439 679Q480 720 553 720Q566 720 581.5 718.5Q597 717 610 714V643Q598 648 586.5 650Q575 652 564 652Q523 652 501 626.5Q479 601 479 554V480H599V412H479Z" glyph-name="f_f_l" horiz-adv-x="854" unicode="&#64260;" /><glyph d="M479 480H690V610H769V480H896V412H769V135Q769 94 788 74Q807 54 845 54Q856 54 870 56.5Q884 59 895 63V0Q876 -6 857.5 -9Q839 -12 824 -12Q760 -12 725 22Q690 56 690 119V412H479V0H398V412H185V0H104V412H15V480H104V562Q104 638 145 679Q186 720 259 720Q272 720 287.5 718.5Q303 717 316 714V643Q304 648 292.5 650Q281 652 270 652Q229 652 207 626.5Q185 601 185 554V480H398V562Q398 638 439 679Q480 720 553 720Q566 720 581.5 718.5Q597 717 610 714V643Q598 648 586.5 650Q575 652 564 652Q523 652 501 626.5Q479 601 479 554Z" glyph-name="f_f_t" horiz-adv-x="917" /><glyph d="M475 708V431H477Q521 466 558 480Q595 494 642 494Q724 494 771.5 445Q819 396 819 312V0H738V306Q738 361 706.5 394.5Q675 428 622 428Q586 428 552.5 411.5Q519 395 475 354V0H394V708ZM305 480V412H185V0H104V412H15V480H104V562Q104 638 145 679Q186 720 259 720Q272 720 287.5 718.5Q303 717 316 714V643Q304 648 292.5 650Q281 652 270 652Q229 652 207 626.5Q185 601 185 554V480Z" glyph-name="f_h" horiz-adv-x="898" /><glyph d="M485 669Q485 648 470.5 633Q456 618 435 618Q413 618 398.5 632.5Q384 647 384 669Q384 690 399 705Q414 720 435 720Q456 720 470.5 705Q485 690 485 669ZM334 -240Q324 -240 312.5 -238.5Q301 -237 289 -235V-170Q296 -172 303.5 -173Q311 -174 317 -174Q357 -174 375.5 -150Q394 -126 394 -69V412H185V0H104V412H15V480H104V562Q104 638 145 679Q186 720 259 720Q272 720 287.5 718.5Q303 717 316 714V643Q304 648 292.5 650Q281 652 270 652Q229 652 207 626.5Q185 601 185 554V480H475V-60Q475 -157 441.5 -198.5Q408 -240 334 -240Z" glyph-name="f_j" horiz-adv-x="560" /><glyph d="M305 480V412H185V0H104V412H15V480H104V562Q104 638 145 679Q186 720 259 720Q272 720 287.5 718.5Q303 717 316 714V643Q304 648 292.5 650Q281 652 270 652Q229 652 207 626.5Q185 601 185 554V480ZM695 0 477 238H475V0H394V708H475V271H477L679 480H776L555 259L795 0Z" glyph-name="f_k" horiz-adv-x="811" /><glyph d="M185 480H396V610H475V480H602V412H475V135Q475 94 494 74Q513 54 551 54Q562 54 576 56.5Q590 59 601 63V0Q582 -6 563.5 -9Q545 -12 530 -12Q466 -12 431 22Q396 56 396 119V412H185V0H104V412H15V480H104V562Q104 638 145 679Q186 720 259 720Q272 720 287.5 718.5Q303 717 316 714V643Q304 648 292.5 650Q281 652 270 652Q229 652 207 626.5Q185 601 185 554Z" glyph-name="f_t" horiz-adv-x="623" /><glyph d="M485 669Q485 648 470.5 633Q456 618 435 618Q413 618 398.5 632.5Q384 647 384 669Q384 690 399 705Q414 720 435 720Q456 720 470.5 705Q485 690 485 669ZM475 0H394V412H185V0H104V412H15V480H104V562Q104 638 145 679Q186 720 259 720Q272 720 287.5 718.5Q303 717 316 714V643Q304 648 292.5 650Q281 652 270 652Q229 652 207 626.5Q185 601 185 554V480H475Z" glyph-name="fi" horiz-adv-x="560" unicode="&#64257;" /><glyph d="M265 -14Q206 -14 159.5 -0.5Q113 13 74 42V137Q123 93 166 74.5Q209 56 260 56Q327 56 371 101Q415 146 415 221Q415 293 368.5 336Q322 379 242 379Q207 379 168.5 369.5Q130 360 82 339V708H469V633H162V429Q184 437 209.5 441Q235 445 261 445Q371 445 437.5 383.5Q504 322 504 221Q504 113 437 49.5Q370 -14 265 -14Z" glyph-name="five" horiz-adv-x="560" unicode="5" /><glyph d="M265 -14Q206 -14 159.5 -0.5Q113 13 74 42V137Q123 93 166 74.5Q209 56 260 56Q327 56 371 101Q415 146 415 221Q415 293 368.5 336Q322 379 242 379Q207 379 168.5 369.5Q130 360 82 339V708H469V633H162V429Q184 437 209.5 441Q235 445 261 445Q371 445 437.5 383.5Q504 322 504 221Q504 113 437 49.5Q370 -14 265 -14Z" glyph-name="five.alt" horiz-adv-x="560" /><glyph d="M166 -143Q128 -143 93.5 -132.5Q59 -122 34 -103V-38Q62 -64 94 -76.5Q126 -89 162 -89Q200 -89 224.5 -64.5Q249 -40 249 1Q249 43 222.5 67.5Q196 92 150 92Q127 92 99 87Q71 82 49 74V293H293V241H110V123Q122 128 139 131Q156 134 176 134Q239 134 277 98Q315 62 315 1Q315 -66 273.5 -104.5Q232 -143 166 -143Z" glyph-name="five.denominator" horiz-adv-x="348" unicode="&#57501;" /><glyph d="M166 409Q128 409 93.5 419.5Q59 430 34 449V514Q62 488 94 475.5Q126 463 162 463Q200 463 224.5 487.5Q249 512 249 553Q249 595 222.5 619.5Q196 644 150 644Q127 644 99 639Q71 634 49 626V845H293V793H110V675Q122 680 139 683Q156 686 176 686Q239 686 277 650Q315 614 315 553Q315 486 273.5 447.5Q232 409 166 409Z" glyph-name="five.numerator" horiz-adv-x="348" unicode="&#57491;" /><glyph d="M267 -14Q205 -14 156.5 -0.5Q108 13 73 40V137Q116 96 161.5 77Q207 58 262 58Q330 58 375 102.5Q420 147 420 221Q420 294 372 336.5Q324 379 239 379Q203 379 164 369.5Q125 360 81 340V708H474V635H160V427Q181 436 212 441Q243 446 267 446Q373 446 440.5 383.5Q508 321 508 222Q508 113 441 49.5Q374 -14 267 -14Z" glyph-name="five.plf" horiz-adv-x="554" unicode="&#57388;" /><glyph d="M255 240Q358 240 422.5 175.5Q487 111 487 8Q487 -102 417.5 -170Q348 -238 243 -238Q183 -238 133 -217Q83 -196 47 -156V-59Q82 -112 128.5 -138Q175 -164 236 -164Q304 -164 351.5 -116.5Q399 -69 399 5Q399 80 351 124.5Q303 169 220 169Q184 169 145 158.5Q106 148 71 128V507H457V434H151V222Q171 231 198 235.5Q225 240 255 240Z" glyph-name="five.posf" horiz-adv-x="533" unicode="&#57442;" /><glyph d="M265 -14Q206 -14 159.5 -0.5Q113 13 74 42V137Q123 93 166 74.5Q209 56 260 56Q327 56 371 101Q415 146 415 221Q415 293 368.5 336Q322 379 242 379Q207 379 168.5 369.5Q130 360 82 339V708H469V633H162V429Q184 437 209.5 441Q235 445 261 445Q371 445 437.5 383.5Q504 322 504 221Q504 113 437 49.5Q370 -14 265 -14Z" glyph-name="five.tlf" horiz-adv-x="560" unicode="&#57406;" /><glyph d="M264 240Q367 240 431.5 175.5Q496 111 496 8Q496 -102 426.5 -170Q357 -238 252 -238Q192 -238 142 -217Q92 -196 56 -156V-59Q91 -112 137.5 -138Q184 -164 245 -164Q313 -164 360.5 -116.5Q408 -69 408 5Q408 80 360 124.5Q312 169 229 169Q193 169 154 158.5Q115 148 80 128V507H466V434H160V222Q180 231 207 235.5Q234 240 264 240Z" glyph-name="five.tosf" horiz-adv-x="560" unicode="&#57424;" /><glyph d="M264 240Q367 240 431.5 175.5Q496 111 496 8Q496 -102 426.5 -170Q357 -238 252 -238Q192 -238 142 -217Q92 -196 56 -156V-59Q91 -112 137.5 -138Q184 -164 245 -164Q313 -164 360.5 -116.5Q408 -69 408 5Q408 80 360 124.5Q312 169 229 169Q193 169 154 158.5Q115 148 80 128V507H466V434H160V222Q180 231 207 235.5Q234 240 264 240Z" glyph-name="five.tosf.alt" horiz-adv-x="560" /><glyph d="M166 276Q128 276 93.5 286.5Q59 297 34 316V381Q62 355 94 342.5Q126 330 162 330Q200 330 224.5 354.5Q249 379 249 420Q249 462 222.5 486.5Q196 511 150 511Q127 511 99 506Q71 501 49 493V712H293V660H110V542Q122 547 139 550Q156 553 176 553Q239 553 277 517Q315 481 315 420Q315 353 273.5 314.5Q232 276 166 276ZM637 714 233 -27 187 -6 591 736ZM783 322Q783 290 765.5 263.5Q748 237 718 226V225Q754 214 774.5 185Q795 156 795 118Q795 60 754.5 25.5Q714 -9 650 -9Q585 -9 544.5 25.5Q504 60 504 118Q504 155 525 184Q546 213 582 225V226Q551 238 533.5 264Q516 290 516 322Q516 374 553.5 405.5Q591 437 650 437Q708 437 745.5 405.5Q783 374 783 322ZM718 318Q718 348 698.5 367Q679 386 650 386Q620 386 601 367Q582 348 582 318Q582 288 601.5 267Q621 246 650 246Q679 246 698.5 267Q718 288 718 318ZM729 119Q729 154 706.5 176.5Q684 199 650 199Q615 199 593 176.5Q571 154 571 119Q571 84 593 62Q615 40 650 40Q685 40 707 62.5Q729 85 729 119Z" glyph-name="fiveeighths" horiz-adv-x="824" unicode="&#8541;" /><glyph d="M166 -9Q128 -9 93.5 1.5Q59 12 34 31V96Q62 70 94 57.5Q126 45 162 45Q200 45 224.5 69.5Q249 94 249 135Q249 177 222.5 201.5Q196 226 150 226Q127 226 99 221Q71 216 49 208V427H293V375H110V257Q122 262 139 265Q156 268 176 268Q239 268 277 232Q315 196 315 135Q315 68 273.5 29.5Q232 -9 166 -9Z" glyph-name="fiveinferior" horiz-adv-x="348" unicode="&#8325;" /><glyph d="M166 276Q128 276 93.5 286.5Q59 297 34 316V381Q62 355 94 342.5Q126 330 162 330Q200 330 224.5 354.5Q249 379 249 420Q249 462 222.5 486.5Q196 511 150 511Q127 511 99 506Q71 501 49 493V712H293V660H110V542Q122 547 139 550Q156 553 176 553Q239 553 277 517Q315 481 315 420Q315 353 273.5 314.5Q232 276 166 276ZM637 714 233 -27 187 -6 591 736ZM751 167 645 0H568L683 180L681 181Q673 170 658.5 164Q644 158 627 158Q575 158 538.5 196Q502 234 502 292Q502 357 543.5 397Q585 437 650 437Q715 437 756 397.5Q797 358 797 293Q797 264 786.5 234.5Q776 205 751 167ZM730 293Q730 331 707.5 355.5Q685 380 650 380Q614 380 591.5 355.5Q569 331 569 293Q569 255 591.5 230.5Q614 206 648 206Q683 206 706.5 231Q730 256 730 293Z" glyph-name="fiveninths" horiz-adv-x="824" unicode="&#57483;" /><glyph d="M166 276Q128 276 93.5 286.5Q59 297 34 316V381Q62 355 94 342.5Q126 330 162 330Q200 330 224.5 354.5Q249 379 249 420Q249 462 222.5 486.5Q196 511 150 511Q127 511 99 506Q71 501 49 493V712H293V660H110V542Q122 547 139 550Q156 553 176 553Q239 553 277 517Q315 481 315 420Q315 353 273.5 314.5Q232 276 166 276ZM623 714 219 -27 173 -6 577 736ZM786 380 627 0H553L717 373H507V427H786Z" glyph-name="fivesevenths" horiz-adv-x="824" unicode="&#57478;" /><glyph d="M166 276Q128 276 93.5 286.5Q59 297 34 316V381Q62 355 94 342.5Q126 330 162 330Q200 330 224.5 354.5Q249 379 249 420Q249 462 222.5 486.5Q196 511 150 511Q127 511 99 506Q71 501 49 493V712H293V660H110V542Q122 547 139 550Q156 553 176 553Q239 553 277 517Q315 481 315 420Q315 353 273.5 314.5Q232 276 166 276ZM659 714 255 -27 209 -6 613 736ZM549 261 653 427H731L617 249V248Q626 258 642 264.5Q658 271 675 271Q725 271 761 231.5Q797 192 797 134Q797 70 755.5 30.5Q714 -9 649 -9Q583 -9 542.5 30Q502 69 502 134Q502 164 513.5 195Q525 226 549 261ZM569 134Q569 96 591.5 71.5Q614 47 650 47Q685 47 707.5 71.5Q730 96 730 134Q730 172 707.5 197Q685 222 651 222Q617 222 593 196.5Q569 171 569 134Z" glyph-name="fivesixths" horiz-adv-x="824" unicode="&#57473;" /><glyph d="M166 276Q128 276 93.5 286.5Q59 297 34 316V381Q62 355 94 342.5Q126 330 162 330Q200 330 224.5 354.5Q249 379 249 420Q249 462 222.5 486.5Q196 511 150 511Q127 511 99 506Q71 501 49 493V712H293V660H110V542Q122 547 139 550Q156 553 176 553Q239 553 277 517Q315 481 315 420Q315 353 273.5 314.5Q232 276 166 276Z" glyph-name="fivesuperior" horiz-adv-x="348" unicode="&#8309;" /><glyph d="M394 708H475V122Q475 95 488 80.5Q501 66 526 66H547V0H500Q449 0 421.5 29Q394 58 394 111ZM305 480V412H185V0H104V412H15V480H104V562Q104 638 145 679Q186 720 259 720Q272 720 287.5 718.5Q303 717 316 714V643Q304 648 292.5 650Q281 652 270 652Q229 652 207 626.5Q185 601 185 554V480Z" glyph-name="fl" horiz-adv-x="560" unicode="&#64258;" /><glyph d="M92 -144Q72 -144 55 -140.5Q38 -137 25 -130V-55Q40 -63 56.5 -67Q73 -71 91 -71Q131 -71 153 -45Q175 -19 187 51L235 369H136V424H243L261 545Q271 629 316.5 674.5Q362 720 437 720Q461 720 480 715Q499 710 511 701V625Q495 635 476.5 641Q458 647 439 647Q398 647 374.5 620Q351 593 343 535L326 424H436V369H317L264 21Q254 -61 210.5 -102.5Q167 -144 92 -144Z" glyph-name="florin" horiz-adv-x="573" unicode="&#402;" /><glyph d="M534 164H436V0H350V164H30V236Q76 340 155 465.5Q234 591 326 708H435V231H534ZM351 231V626H348Q276 531 212 426.5Q148 322 107 231Z" glyph-name="four" horiz-adv-x="560" unicode="4" /><glyph d="M534 164H436V0H350V164H30V236Q76 340 155 465.5Q234 591 326 708H435V231H534ZM351 231V626H348Q276 531 212 426.5Q148 322 107 231Z" glyph-name="four.alt" horiz-adv-x="560" /><glyph d="M331 -40H276V-134H211V-40H14V15Q40 77 89.5 153Q139 229 194 293H276V13H331ZM211 13V231H209Q168 178 131.5 120Q95 62 73 13Z" glyph-name="four.denominator" horiz-adv-x="348" unicode="&#57500;" /><glyph d="M331 512H276V418H211V512H14V567Q40 629 89.5 705Q139 781 194 845H276V565H331ZM211 565V783H209Q168 730 131.5 672Q95 614 73 565Z" glyph-name="four.numerator" horiz-adv-x="348" unicode="&#57490;" /><glyph d="M548 164H450V0H365V164H29V237Q77 346 159 470.5Q241 595 341 708H450V232H548ZM366 232V624H363Q286 537 220 434.5Q154 332 109 232Z" glyph-name="four.plf" horiz-adv-x="573" unicode="&#57387;" /><glyph d="M521 70V0H426V-226H341V0H18V81Q69 184 145.5 290.5Q222 397 326 507H426V70ZM100 70H341V409H338Q247 302 191 221.5Q135 141 100 70Z" glyph-name="four.posf" horiz-adv-x="518" unicode="&#57441;" /><glyph d="M534 164H436V0H350V164H30V236Q76 340 155 465.5Q234 591 326 708H435V231H534ZM351 231V626H348Q276 531 212 426.5Q148 322 107 231Z" glyph-name="four.tlf" horiz-adv-x="560" unicode="&#57405;" /><glyph d="M528 70V0H433V-226H348V0H25V81Q76 184 152.5 290.5Q229 397 333 507H433V70ZM107 70H348V409H345Q254 302 198 221.5Q142 141 107 70Z" glyph-name="four.tosf" horiz-adv-x="560" unicode="&#57423;" /><glyph d="M528 70V0H433V-226H348V0H25V81Q76 184 152.5 290.5Q229 397 333 507H433V70ZM107 70H348V409H345Q254 302 198 221.5Q142 141 107 70Z" glyph-name="four.tosf.alt" horiz-adv-x="560" /><glyph d="M331 379H276V285H211V379H14V434Q40 496 89.5 572Q139 648 194 712H276V432H331ZM211 432V650H209Q168 597 131.5 539Q95 481 73 432ZM633 714 229 -27 183 -6 587 736ZM642 -9Q604 -9 569.5 1.5Q535 12 510 31V96Q538 70 570 57.5Q602 45 638 45Q676 45 700.5 69.5Q725 94 725 135Q725 177 698.5 201.5Q672 226 626 226Q603 226 575 221Q547 216 525 208V427H769V375H586V257Q598 262 615 265Q632 268 652 268Q715 268 753 232Q791 196 791 135Q791 68 749.5 29.5Q708 -9 642 -9Z" glyph-name="fourfifths" horiz-adv-x="824" unicode="&#57471;" /><glyph d="M331 94H276V0H211V94H14V149Q40 211 89.5 287Q139 363 194 427H276V147H331ZM211 147V365H209Q168 312 131.5 254Q95 196 73 147Z" glyph-name="fourinferior" horiz-adv-x="348" unicode="&#8324;" /><glyph d="M331 379H276V285H211V379H14V434Q40 496 89.5 572Q139 648 194 712H276V432H331ZM211 432V650H209Q168 597 131.5 539Q95 481 73 432ZM650 714 246 -27 200 -6 604 736ZM751 167 645 0H568L683 180L681 181Q673 170 658.5 164Q644 158 627 158Q575 158 538.5 196Q502 234 502 292Q502 357 543.5 397Q585 437 650 437Q715 437 756 397.5Q797 358 797 293Q797 264 786.5 234.5Q776 205 751 167ZM730 293Q730 331 707.5 355.5Q685 380 650 380Q614 380 591.5 355.5Q569 331 569 293Q569 255 591.5 230.5Q614 206 648 206Q683 206 706.5 231Q730 256 730 293Z" glyph-name="fourninths" horiz-adv-x="824" unicode="&#57482;" /><glyph d="M331 379H276V285H211V379H14V434Q40 496 89.5 572Q139 648 194 712H276V432H331ZM211 432V650H209Q168 597 131.5 539Q95 481 73 432ZM635 714 231 -27 185 -6 589 736ZM786 380 627 0H553L717 373H507V427H786Z" glyph-name="foursevenths" horiz-adv-x="824" unicode="&#57477;" /><glyph d="M331 379H276V285H211V379H14V434Q40 496 89.5 572Q139 648 194 712H276V432H331ZM211 432V650H209Q168 597 131.5 539Q95 481 73 432Z" glyph-name="foursuperior" horiz-adv-x="348" unicode="&#8308;" /><glyph d="M289 714 -115 -27 -161 -6 243 736Z" glyph-name="fraction" horiz-adv-x="127" unicode="&#8260;" /><glyph d="M418 315Q418 370 384.5 402Q351 434 293 434Q235 434 201.5 402Q168 370 168 315Q168 259 201.5 227Q235 195 293 195Q351 195 384.5 227Q418 259 418 315ZM559 -78Q559 -158 489 -205Q419 -252 297 -252Q185 -252 122.5 -214.5Q60 -177 60 -110Q60 -71 82.5 -41.5Q105 -12 147 4V6Q126 14 112.5 36Q99 58 99 83Q99 111 111.5 133.5Q124 156 151 178Q121 200 105.5 234.5Q90 269 90 315Q90 398 145 446Q200 494 293 494Q308 494 324 492.5Q340 491 367 487Q392 483 405.5 481.5Q419 480 432 480H572V412H462V410Q479 393 488 368.5Q497 344 497 314Q497 234 440.5 185.5Q384 137 292 137Q266 137 242.5 141Q219 145 197 152Q185 141 178 128Q171 115 171 102Q171 83 185.5 71Q200 59 224 59H389Q472 59 515.5 24Q559 -11 559 -78ZM481 -89Q481 -50 453 -30.5Q425 -11 370 -11H249Q197 -11 167 -36Q137 -61 137 -101Q137 -143 181.5 -167Q226 -191 305 -191Q386 -191 433.5 -163.5Q481 -136 481 -89ZM286 564Z" glyph-name="g" horiz-adv-x="595" unicode="g" /><glyph d="M293 435Q235 435 201.5 403Q168 371 168 315Q168 259 201.5 227Q235 195 293 195Q351 195 384.5 227Q418 259 418 315Q418 371 384.5 403Q351 435 293 435ZM559 -78Q559 -158 489 -205Q419 -252 297 -252Q185 -252 122.5 -214.5Q60 -177 60 -110Q60 -72 82.5 -42.5Q105 -13 147 4V6Q126 14 112.5 36Q99 58 99 83Q99 110 111.5 133Q124 156 150 177Q119 200 103.5 235Q88 270 88 315Q88 399 143.5 447Q199 495 294 495Q323 495 348.5 490Q374 485 397 476Q438 536 478.5 555Q519 574 585 571V506Q537 511 507 498.5Q477 486 445 446Q472 423 485.5 389.5Q499 356 499 315Q499 230 444.5 183.5Q390 137 292 137Q266 137 242.5 141Q219 145 197 152Q185 141 178 128Q171 115 171 102Q171 83 185.5 71Q200 59 224 59H389Q473 59 516 24Q559 -11 559 -78ZM481 -89Q481 -50 453 -30.5Q425 -11 370 -11H249Q197 -11 167 -36Q137 -61 137 -101Q137 -143 181.5 -167Q226 -191 305 -191Q386 -191 433.5 -163.5Q481 -136 481 -89ZM286 564Z" glyph-name="g.alt" horiz-adv-x="595" /><glyph d="M418 315Q418 370 384.5 402Q351 434 293 434Q235 434 201.5 402Q168 370 168 315Q168 259 201.5 227Q235 195 293 195Q351 195 384.5 227Q418 259 418 315ZM559 -78Q559 -158 489 -205Q419 -252 297 -252Q185 -252 122.5 -214.5Q60 -177 60 -110Q60 -71 82.5 -41.5Q105 -12 147 4V6Q126 14 112.5 36Q99 58 99 83Q99 111 111.5 133.5Q124 156 151 178Q121 200 105.5 234.5Q90 269 90 315Q90 398 145 446Q200 494 293 494Q308 494 324 492.5Q340 491 367 487Q392 483 405.5 481.5Q419 480 432 480H572V412H462V410Q479 393 488 368.5Q497 344 497 314Q497 234 440.5 185.5Q384 137 292 137Q266 137 242.5 141Q219 145 197 152Q185 141 178 128Q171 115 171 102Q171 83 185.5 71Q200 59 224 59H389Q472 59 515.5 24Q559 -11 559 -78ZM481 -89Q481 -50 453 -30.5Q425 -11 370 -11H249Q197 -11 167 -36Q137 -61 137 -101Q137 -143 181.5 -167Q226 -191 305 -191Q386 -191 433.5 -163.5Q481 -136 481 -89ZM365 703H433Q423 641 386.5 606.5Q350 572 294 572Q239 572 203.5 606.5Q168 641 160 703H227Q230 669 248.5 649Q267 629 294 629Q325 629 342.5 647Q360 665 365 703ZM276 564" glyph-name="gbreve" horiz-adv-x="595" unicode="&#287;" /><glyph d="M293 435Q235 435 201.5 403Q168 371 168 315Q168 259 201.5 227Q235 195 293 195Q351 195 384.5 227Q418 259 418 315Q418 371 384.5 403Q351 435 293 435ZM559 -78Q559 -158 489 -205Q419 -252 297 -252Q185 -252 122.5 -214.5Q60 -177 60 -110Q60 -72 82.5 -42.5Q105 -13 147 4V6Q126 14 112.5 36Q99 58 99 83Q99 110 111.5 133Q124 156 150 177Q119 200 103.5 235Q88 270 88 315Q88 399 143.5 447Q199 495 294 495Q323 495 348.5 490Q374 485 397 476Q438 536 478.5 555Q519 574 585 571V506Q537 511 507 498.5Q477 486 445 446Q472 423 485.5 389.5Q499 356 499 315Q499 230 444.5 183.5Q390 137 292 137Q266 137 242.5 141Q219 145 197 152Q185 141 178 128Q171 115 171 102Q171 83 185.5 71Q200 59 224 59H389Q473 59 516 24Q559 -11 559 -78ZM481 -89Q481 -50 453 -30.5Q425 -11 370 -11H249Q197 -11 167 -36Q137 -61 137 -101Q137 -143 181.5 -167Q226 -191 305 -191Q386 -191 433.5 -163.5Q481 -136 481 -89ZM365 703H433Q423 641 386.5 606.5Q350 572 294 572Q239 572 203.5 606.5Q168 641 160 703H227Q230 669 248.5 649Q267 629 294 629Q325 629 342.5 647Q360 665 365 703ZM276 564" glyph-name="gbreve.alt" horiz-adv-x="595" /><glyph d="M418 315Q418 370 384.5 402Q351 434 293 434Q235 434 201.5 402Q168 370 168 315Q168 259 201.5 227Q235 195 293 195Q351 195 384.5 227Q418 259 418 315ZM559 -78Q559 -158 489 -205Q419 -252 297 -252Q185 -252 122.5 -214.5Q60 -177 60 -110Q60 -71 82.5 -41.5Q105 -12 147 4V6Q126 14 112.5 36Q99 58 99 83Q99 111 111.5 133.5Q124 156 151 178Q121 200 105.5 234.5Q90 269 90 315Q90 398 145 446Q200 494 293 494Q308 494 324 492.5Q340 491 367 487Q392 483 405.5 481.5Q419 480 432 480H572V412H462V410Q479 393 488 368.5Q497 344 497 314Q497 234 440.5 185.5Q384 137 292 137Q266 137 242.5 141Q219 145 197 152Q185 141 178 128Q171 115 171 102Q171 83 185.5 71Q200 59 224 59H389Q472 59 515.5 24Q559 -11 559 -78ZM481 -89Q481 -50 453 -30.5Q425 -11 370 -11H249Q197 -11 167 -36Q137 -61 137 -101Q137 -143 181.5 -167Q226 -191 305 -191Q386 -191 433.5 -163.5Q481 -136 481 -89ZM456 569H374L297 687L220 569H139L246 713H348ZM276 564" glyph-name="gcircumflex" horiz-adv-x="595" unicode="&#285;" /><glyph d="M293 435Q235 435 201.5 403Q168 371 168 315Q168 259 201.5 227Q235 195 293 195Q351 195 384.5 227Q418 259 418 315Q418 371 384.5 403Q351 435 293 435ZM559 -78Q559 -158 489 -205Q419 -252 297 -252Q185 -252 122.5 -214.5Q60 -177 60 -110Q60 -72 82.5 -42.5Q105 -13 147 4V6Q126 14 112.5 36Q99 58 99 83Q99 110 111.5 133Q124 156 150 177Q119 200 103.5 235Q88 270 88 315Q88 399 143.5 447Q199 495 294 495Q323 495 348.5 490Q374 485 397 476Q438 536 478.5 555Q519 574 585 571V506Q537 511 507 498.5Q477 486 445 446Q472 423 485.5 389.5Q499 356 499 315Q499 230 444.5 183.5Q390 137 292 137Q266 137 242.5 141Q219 145 197 152Q185 141 178 128Q171 115 171 102Q171 83 185.5 71Q200 59 224 59H389Q473 59 516 24Q559 -11 559 -78ZM481 -89Q481 -50 453 -30.5Q425 -11 370 -11H249Q197 -11 167 -36Q137 -61 137 -101Q137 -143 181.5 -167Q226 -191 305 -191Q386 -191 433.5 -163.5Q481 -136 481 -89ZM456 569H374L297 687L220 569H139L246 713H348ZM276 564" glyph-name="gcircumflex.alt" horiz-adv-x="595" /><glyph d="M418 315Q418 370 384.5 402Q351 434 293 434Q235 434 201.5 402Q168 370 168 315Q168 259 201.5 227Q235 195 293 195Q351 195 384.5 227Q418 259 418 315ZM559 -78Q559 -158 489 -205Q419 -252 297 -252Q185 -252 122.5 -214.5Q60 -177 60 -110Q60 -71 82.5 -41.5Q105 -12 147 4V6Q126 14 112.5 36Q99 58 99 83Q99 111 111.5 133.5Q124 156 151 178Q121 200 105.5 234.5Q90 269 90 315Q90 398 145 446Q200 494 293 494Q308 494 324 492.5Q340 491 367 487Q392 483 405.5 481.5Q419 480 432 480H572V412H462V410Q479 393 488 368.5Q497 344 497 314Q497 234 440.5 185.5Q384 137 292 137Q266 137 242.5 141Q219 145 197 152Q185 141 178 128Q171 115 171 102Q171 83 185.5 71Q200 59 224 59H389Q472 59 515.5 24Q559 -11 559 -78ZM481 -89Q481 -50 453 -30.5Q425 -11 370 -11H249Q197 -11 167 -36Q137 -61 137 -101Q137 -143 181.5 -167Q226 -191 305 -191Q386 -191 433.5 -163.5Q481 -136 481 -89ZM353 713 311 569H227L283 713ZM276 -20" glyph-name="gcommaaccent" horiz-adv-x="595" unicode="&#291;" /><glyph d="M293 435Q235 435 201.5 403Q168 371 168 315Q168 259 201.5 227Q235 195 293 195Q351 195 384.5 227Q418 259 418 315Q418 371 384.5 403Q351 435 293 435ZM559 -78Q559 -158 489 -205Q419 -252 297 -252Q185 -252 122.5 -214.5Q60 -177 60 -110Q60 -72 82.5 -42.5Q105 -13 147 4V6Q126 14 112.5 36Q99 58 99 83Q99 110 111.5 133Q124 156 150 177Q119 200 103.5 235Q88 270 88 315Q88 399 143.5 447Q199 495 294 495Q323 495 348.5 490Q374 485 397 476Q438 536 478.5 555Q519 574 585 571V506Q537 511 507 498.5Q477 486 445 446Q472 423 485.5 389.5Q499 356 499 315Q499 230 444.5 183.5Q390 137 292 137Q266 137 242.5 141Q219 145 197 152Q185 141 178 128Q171 115 171 102Q171 83 185.5 71Q200 59 224 59H389Q473 59 516 24Q559 -11 559 -78ZM481 -89Q481 -50 453 -30.5Q425 -11 370 -11H249Q197 -11 167 -36Q137 -61 137 -101Q137 -143 181.5 -167Q226 -191 305 -191Q386 -191 433.5 -163.5Q481 -136 481 -89ZM353 713 311 569H227L283 713ZM276 -20" glyph-name="gcommaaccent.alt" horiz-adv-x="595" /><glyph d="M418 315Q418 370 384.5 402Q351 434 293 434Q235 434 201.5 402Q168 370 168 315Q168 259 201.5 227Q235 195 293 195Q351 195 384.5 227Q418 259 418 315ZM559 -78Q559 -158 489 -205Q419 -252 297 -252Q185 -252 122.5 -214.5Q60 -177 60 -110Q60 -71 82.5 -41.5Q105 -12 147 4V6Q126 14 112.5 36Q99 58 99 83Q99 111 111.5 133.5Q124 156 151 178Q121 200 105.5 234.5Q90 269 90 315Q90 398 145 446Q200 494 293 494Q308 494 324 492.5Q340 491 367 487Q392 483 405.5 481.5Q419 480 432 480H572V412H462V410Q479 393 488 368.5Q497 344 497 314Q497 234 440.5 185.5Q384 137 292 137Q266 137 242.5 141Q219 145 197 152Q185 141 178 128Q171 115 171 102Q171 83 185.5 71Q200 59 224 59H389Q472 59 515.5 24Q559 -11 559 -78ZM481 -89Q481 -50 453 -30.5Q425 -11 370 -11H249Q197 -11 167 -36Q137 -61 137 -101Q137 -143 181.5 -167Q226 -191 305 -191Q386 -191 433.5 -163.5Q481 -136 481 -89ZM297 600Q275 600 260 614.5Q245 629 245 650Q245 670 260.5 685Q276 700 297 700Q317 700 332 685Q347 670 347 650Q347 629 332 614.5Q317 600 297 600ZM276 564" glyph-name="gdotaccent" horiz-adv-x="595" unicode="&#289;" /><glyph d="M293 435Q235 435 201.5 403Q168 371 168 315Q168 259 201.5 227Q235 195 293 195Q351 195 384.5 227Q418 259 418 315Q418 371 384.5 403Q351 435 293 435ZM559 -78Q559 -158 489 -205Q419 -252 297 -252Q185 -252 122.5 -214.5Q60 -177 60 -110Q60 -72 82.5 -42.5Q105 -13 147 4V6Q126 14 112.5 36Q99 58 99 83Q99 110 111.5 133Q124 156 150 177Q119 200 103.5 235Q88 270 88 315Q88 399 143.5 447Q199 495 294 495Q323 495 348.5 490Q374 485 397 476Q438 536 478.5 555Q519 574 585 571V506Q537 511 507 498.5Q477 486 445 446Q472 423 485.5 389.5Q499 356 499 315Q499 230 444.5 183.5Q390 137 292 137Q266 137 242.5 141Q219 145 197 152Q185 141 178 128Q171 115 171 102Q171 83 185.5 71Q200 59 224 59H389Q473 59 516 24Q559 -11 559 -78ZM481 -89Q481 -50 453 -30.5Q425 -11 370 -11H249Q197 -11 167 -36Q137 -61 137 -101Q137 -143 181.5 -167Q226 -191 305 -191Q386 -191 433.5 -163.5Q481 -136 481 -89ZM297 600Q275 600 260 614.5Q245 629 245 650Q245 670 260.5 685Q276 700 297 700Q317 700 332 685Q347 670 347 650Q347 629 332 614.5Q317 600 297 600ZM276 564" glyph-name="gdotaccent.alt" horiz-adv-x="595" /><glyph d="M437 535Q437 590 402 622.5Q367 655 308 655Q237 655 199.5 607.5Q162 560 162 473V0H82V479Q82 596 142.5 662Q203 728 311 728Q406 728 464.5 676.5Q523 625 523 542Q523 482 489.5 439.5Q456 397 400 384V381Q479 367 519 320.5Q559 274 559 196Q559 99 497 44.5Q435 -10 328 -10Q312 -10 295.5 -8Q279 -6 265 -3V70Q298 64 305.5 63Q313 62 320 62Q392 62 432.5 98.5Q473 135 473 201Q473 273 432.5 308Q392 343 308 343H291V413H311Q367 413 402 446Q437 479 437 535Z" glyph-name="germandbls" horiz-adv-x="611" unicode="&#223;" /><glyph d="M198 569H125L0 713H92ZM120 564Z" glyph-name="grave" horiz-adv-x="282" unicode="`" /><glyph d="M35 483V549L524 331V271L35 55V122L431 300Z" glyph-name="greater" horiz-adv-x="560" unicode="&gt;" /><glyph d="M35 553V619L524 401V341L35 125V192L431 370Z" glyph-name="greater.case" horiz-adv-x="560" /><glyph d="M524 318 35 100V168L431 347L35 528V595L524 378ZM35 64H524V0H35Z" glyph-name="greaterequal" horiz-adv-x="560" unicode="&#8805;" /><glyph d="M257 70 200 34 58 248 199 461 256 426 142 248ZM457 70 399 34 258 248 398 461 456 426 342 248Z" glyph-name="guillemotleft" horiz-adv-x="526" unicode="&#171;" /><glyph d="M257 140 200 104 58 318 199 531 256 496 142 318ZM457 140 399 104 258 318 398 531 456 496 342 318Z" glyph-name="guillemotleft.case" horiz-adv-x="526" /><glyph d="M268 248 127 35 70 70 184 248 69 426 126 462ZM468 248 327 35 269 70 384 248 269 426 327 462Z" glyph-name="guillemotright" horiz-adv-x="526" unicode="&#187;" /><glyph d="M268 318 127 105 70 140 184 318 69 496 126 532ZM468 318 327 105 269 140 384 318 269 496 327 532Z" glyph-name="guillemotright.case" horiz-adv-x="526" /><glyph d="M257 70 200 34 58 248 199 461 256 426 142 248Z" glyph-name="guilsinglleft" horiz-adv-x="327" unicode="&#8249;" /><glyph d="M257 140 200 104 58 318 199 531 256 496 142 318Z" glyph-name="guilsinglleft.case" horiz-adv-x="327" /><glyph d="M268 248 127 35 70 70 184 248 69 426 126 462Z" glyph-name="guilsinglright" horiz-adv-x="327" unicode="&#8250;" /><glyph d="M268 318 127 105 70 140 184 318 69 496 126 532Z" glyph-name="guilsinglright.case" horiz-adv-x="327" /><glyph d="M167 708V431H169Q213 466 250 480Q287 494 334 494Q416 494 463.5 445Q511 396 511 312V0H430V306Q430 361 398.5 394.5Q367 428 314 428Q278 428 244.5 411.5Q211 395 167 354V0H86V708ZM290 564ZM289 -20ZM464 -20Z" glyph-name="h" horiz-adv-x="590" unicode="h" /><glyph d="M314 428Q278 428 244.5 411.5Q211 395 167 354V0H86V589H32V641H86V708H167V641H296V589H167V431H169Q213 466 250 480Q287 494 334 494Q416 494 463.5 445Q511 396 511 312V0H430V306Q430 361 398.5 394.5Q367 428 314 428Z" glyph-name="hbar" horiz-adv-x="590" unicode="&#295;" /><glyph d="M167 708V431H169Q213 466 250 480Q287 494 334 494Q416 494 463.5 445Q511 396 511 312V0H430V306Q430 361 398.5 394.5Q367 428 314 428Q278 428 244.5 411.5Q211 395 167 354V0H86V708ZM410 753H328L251 871L174 753H93L200 897H302ZM230 748" glyph-name="hcircumflex" horiz-adv-x="590" unicode="&#293;" /><glyph d="M362 713 236 569H170L276 713ZM208 713 81 569H16L121 713ZM120 564Z" glyph-name="hungarumlaut" horiz-adv-x="282" unicode="&#733;" /><glyph d="M263 208H48V283H263Z" glyph-name="hyphen" horiz-adv-x="312" unicode="-" /><glyph d="M263 278H48V353H263Z" glyph-name="hyphen.case" horiz-adv-x="312" /><glyph d="M175 669Q175 648 160.5 633Q146 618 125 618Q103 618 88.5 632.5Q74 647 74 669Q74 690 89 705Q104 720 125 720Q146 720 160.5 705Q175 690 175 669ZM165 0H84V480H165ZM113 764ZM113 -20Z" glyph-name="i" horiz-adv-x="250" unicode="i" /><glyph d="M175 669Q175 648 160.5 633Q146 618 125 618Q103 618 88.5 632.5Q74 647 74 669Q74 690 89 705Q104 720 125 720Q146 720 160.5 705Q175 690 175 669ZM165 0H84V480H165ZM113 -20" glyph-name="i.dot" horiz-adv-x="250" unicode="&#57702;" /><glyph d="M165 0H84V480H165ZM267 713 140 569H67L173 713ZM104 564" glyph-name="iacute" horiz-adv-x="250" unicode="&#237;" /><glyph d="M165 0H84V480H165ZM193 703H261Q251 641 214.5 606.5Q178 572 122 572Q67 572 31.5 606.5Q-4 641 -12 703H55Q58 669 76.5 649Q95 629 122 629Q153 629 170.5 647Q188 665 193 703ZM104 564" glyph-name="ibreve" horiz-adv-x="250" unicode="&#301;" /><glyph d="M165 0H84V480H165ZM284 569H202L125 687L48 569H-33L74 713H176ZM104 564" glyph-name="icircumflex" horiz-adv-x="250" unicode="&#238;" /><glyph d="M165 0H84V480H165ZM254 650Q254 631 240 617Q226 603 207 603Q187 603 172.5 616.5Q158 630 158 650Q158 669 172.5 682.5Q187 696 207 696Q226 696 240 682.5Q254 669 254 650ZM91 650Q91 631 77 617Q63 603 44 603Q24 603 10 616.5Q-4 630 -4 650Q-4 669 10 682.5Q24 696 44 696Q63 696 77 682.5Q91 669 91 650ZM104 564" glyph-name="idieresis" horiz-adv-x="250" unicode="&#239;" /><glyph d="M165 0H84V480H165ZM182 569H109L-16 713H76ZM104 564" glyph-name="igrave" horiz-adv-x="250" unicode="&#236;" /><glyph d="M175 669Q175 648 160.5 633Q146 618 125 618Q103 618 88.5 632.5Q74 647 74 669Q74 690 89 705Q104 720 125 720Q146 720 160.5 705Q175 690 175 669ZM165 0H84V480H165ZM425 669Q425 648 410.5 633Q396 618 375 618Q353 618 338.5 632.5Q324 647 324 669Q324 690 339 705Q354 720 375 720Q396 720 410.5 705Q425 690 425 669ZM334 480H415V-60Q415 -157 381.5 -198.5Q348 -240 274 -240Q264 -240 252.5 -238.5Q241 -237 229 -235V-170Q236 -172 243.5 -173Q251 -174 257 -174Q297 -174 315.5 -150Q334 -126 334 -69Z" glyph-name="ij" horiz-adv-x="500" unicode="&#307;" /><glyph d="M165 0H84V480H165ZM256 613H-8V665H256ZM104 564" glyph-name="imacron" horiz-adv-x="250" unicode="&#299;" /><glyph d="M62 246Q62 308 97.5 347Q133 386 189 386Q225 386 268 358Q311 330 355 279Q396 329 440.5 357.5Q485 386 523 386Q580 386 616 347.5Q652 309 652 248Q652 185 617 145.5Q582 106 526 106Q490 106 446 134.5Q402 163 359 214Q318 163 273.5 134.5Q229 106 190 106Q133 106 97.5 145Q62 184 62 246ZM122 246Q122 208 143 182.5Q164 157 197 157Q221 157 247 175.5Q273 194 320 246Q274 297 247.5 316Q221 335 197 335Q164 335 143 309.5Q122 284 122 246ZM592 246Q592 284 571 309.5Q550 335 517 335Q493 335 466.5 316Q440 297 394 246Q438 197 465 177.5Q492 158 517 158Q550 158 571 183Q592 208 592 246Z" glyph-name="infinity" horiz-adv-x="715" unicode="&#8734;" /><glyph d="M62 316Q62 378 97.5 417Q133 456 189 456Q225 456 268 428Q311 400 355 349Q396 399 440.5 427.5Q485 456 523 456Q580 456 616 417.5Q652 379 652 318Q652 255 617 215.5Q582 176 526 176Q490 176 446 204.5Q402 233 359 284Q318 233 273.5 204.5Q229 176 190 176Q133 176 97.5 215Q62 254 62 316ZM122 316Q122 278 143 252.5Q164 227 197 227Q221 227 247 245.5Q273 264 320 316Q274 367 247.5 386Q221 405 197 405Q164 405 143 379.5Q122 354 122 316ZM592 316Q592 354 571 379.5Q550 405 517 405Q493 405 466.5 386Q440 367 394 316Q438 267 465 247.5Q492 228 517 228Q550 228 571 253Q592 278 592 316Z" glyph-name="infinity.case" horiz-adv-x="715" /><glyph d="M115 -180Q163 -180 188 -149.5Q213 -119 213 -63V541Q213 626 260 672Q307 718 385 718Q402 718 413.5 717Q425 716 438 713V644Q427 646 416 647.5Q405 649 395 649Q347 649 321.5 618.5Q296 588 296 532V-72Q296 -156 249.5 -202.5Q203 -249 125 -249Q108 -249 96.5 -248Q85 -247 72 -244V-175Q83 -177 94 -178.5Q105 -180 115 -180Z" glyph-name="integral" horiz-adv-x="535" unicode="&#8747;" /><glyph d="M175 669Q175 648 160.5 633Q146 618 125 618Q103 618 88.5 632.5Q74 647 74 669Q74 690 89 705Q104 720 125 720Q146 720 160.5 705Q175 690 175 669ZM-1 -144Q-1 -110 24.5 -73.5Q50 -37 100 0H84V480H165V0H151Q101 -47 81.5 -76.5Q62 -106 62 -133Q62 -158 76.5 -172.5Q91 -187 116 -187Q135 -187 151.5 -180.5Q168 -174 179 -162L196 -196Q179 -211 155 -219Q131 -227 100 -227Q53 -227 26 -205Q-1 -183 -1 -144Z" glyph-name="iogonek" horiz-adv-x="250" unicode="&#303;" /><glyph d="M165 0H84V480H165ZM65 711Q87 711 105.5 700.5Q124 690 141 668Q157 649 164.5 642.5Q172 636 180 636Q195 636 203 651.5Q211 667 215 705H268Q264 643 243 613.5Q222 584 184 584Q163 584 144.5 594.5Q126 605 108 627Q91 647 83.5 653Q76 659 69 659Q54 659 46 643.5Q38 628 34 590H-18Q-14 652 6.5 681.5Q27 711 65 711ZM104 564" glyph-name="itilde" horiz-adv-x="250" unicode="&#297;" /><glyph d="M175 669Q175 648 160.5 633Q146 618 125 618Q103 618 88.5 632.5Q74 647 74 669Q74 690 89 705Q104 720 125 720Q146 720 160.5 705Q175 690 175 669ZM84 480H165V-60Q165 -157 131.5 -198.5Q98 -240 24 -240Q14 -240 2.5 -238.5Q-9 -237 -21 -235V-170Q-14 -172 -6.5 -173Q1 -174 7 -174Q47 -174 65.5 -150Q84 -126 84 -69Z" glyph-name="j" horiz-adv-x="250" unicode="j" /><glyph d="M84 480H165V-60Q165 -157 131.5 -198.5Q98 -240 24 -240Q14 -240 2.5 -238.5Q-9 -237 -21 -235V-170Q-14 -172 -6.5 -173Q1 -174 7 -174Q47 -174 65.5 -150Q84 -126 84 -69ZM284 569H202L125 687L48 569H-33L74 713H176ZM104 564" glyph-name="jcircumflex" horiz-adv-x="250" unicode="&#309;" /><glyph d="M385 0 167 238H165V0H84V708H165V271H167L369 480H466L245 259L485 0ZM115 764ZM243 -20Z" glyph-name="k" horiz-adv-x="501" unicode="k" /><glyph d="M385 0 167 238H165V0H84V708H165V271H167L369 480H466L245 259L485 0ZM172 -232 225 -50H309L243 -232ZM229 -20" glyph-name="kcommaaccent" horiz-adv-x="501" unicode="&#311;" /><glyph d="M385 0 167 238H165V0H84V480H165V271H167L369 480H466L245 259L485 0Z" glyph-name="kgreenlandic" horiz-adv-x="501" unicode="&#312;" /><glyph d="M599 0H486L178 349H176V0H90V708H176V403H177L473 708H582L258 383ZM727 708 685 564H601L657 708ZM650 -25" glyph-name="kgreenlandic.case" horiz-adv-x="710" /><glyph d="M84 708H165V122Q165 95 178 80.5Q191 66 216 66H237V0H190Q139 0 111.5 29Q84 58 84 111ZM113 764ZM115 -20ZM201 -20Z" glyph-name="l" horiz-adv-x="250" unicode="l" /><glyph d="M84 708H165V122Q165 95 178 80.5Q191 66 216 66H237V0H190Q139 0 111.5 29Q84 58 84 111ZM285 897 158 753H85L191 897ZM122 748" glyph-name="lacute" horiz-adv-x="250" unicode="&#314;" /><glyph d="M84 708H165V122Q165 95 178 80.5Q191 66 216 66H237V0H190Q139 0 111.5 29Q84 58 84 111ZM194 529 240 707H323L264 529Z" glyph-name="lcaron" horiz-adv-x="263" unicode="&#318;" /><glyph d="M84 708H165V122Q165 95 178 80.5Q191 66 216 66H237V0H190Q139 0 111.5 29Q84 58 84 111ZM48 -232 101 -50H185L119 -232ZM105 -20" glyph-name="lcommaaccent" horiz-adv-x="250" unicode="&#316;" /><glyph d="M84 708H165V122Q165 95 178 80.5Q191 66 216 66H237V0H190Q139 0 111.5 29Q84 58 84 111ZM251 283Q229 283 214 297.5Q199 312 199 333Q199 354 214.5 368.5Q230 383 251 383Q272 383 286.5 368.5Q301 354 301 333Q301 312 286 297.5Q271 283 251 283Z" glyph-name="ldot" horiz-adv-x="250" unicode="&#320;" /><glyph d="M524 122V55L35 271V331L524 549V483L128 300Z" glyph-name="less" horiz-adv-x="560" unicode="&lt;" /><glyph d="M524 192V125L35 341V401L524 619V553L128 370Z" glyph-name="less.case" horiz-adv-x="560" /><glyph d="M524 168V100L35 318V378L524 595V528L128 347ZM35 0V64H524V0Z" glyph-name="lessequal" horiz-adv-x="560" unicode="&#8804;" /><glyph d="M517 136H445V356H35V419H517Z" glyph-name="logicalnot" horiz-adv-x="560" unicode="&#172;" /><glyph d="M517 206H445V426H35V489H517Z" glyph-name="logicalnot.case" horiz-adv-x="560" /><glyph d="M313 747 487 356 313 -35H275L103 356L275 747ZM295 50 418 356 295 660 171 356Z" glyph-name="lozenge" horiz-adv-x="593" unicode="&#9674;" /><glyph d="M237 66V0H190Q139 0 111.5 29Q84 58 84 111V326L21 302V366L84 390V708H165V420L238 448V384L165 356V122Q165 95 178 80.5Q191 66 216 66ZM113 764ZM115 -20ZM201 -20Z" glyph-name="lslash" horiz-adv-x="250" unicode="&#322;" /><glyph d="M305 428Q269 428 239 412Q209 396 167 352V0H86V377Q86 405 84 429.5Q82 454 77 480H156Q159 470 161 455Q163 440 164 427H165Q207 464 242.5 479Q278 494 321 494Q373 494 411 473.5Q449 453 469 414Q515 458 554 476Q593 494 641 494Q723 494 768.5 446Q814 398 814 312V0H734V306Q734 360 705.5 394Q677 428 629 428Q591 428 559 410Q527 392 489 348Q490 335 490.5 327Q491 319 491 312V0H410V306Q410 359 381 393.5Q352 428 305 428ZM446 564ZM445 -20ZM290 564ZM289 -20ZM464 -20Z" glyph-name="m" horiz-adv-x="894" unicode="m" /><glyph d="M272 613H8V665H272ZM120 564Z" glyph-name="macron" horiz-adv-x="282" unicode="&#175;" /><glyph d="M35 272V337H524V272Z" glyph-name="minus" horiz-adv-x="560" unicode="&#8722;" /><glyph d="M35 342V407H524V342Z" glyph-name="minus.case" horiz-adv-x="560" /><glyph d="M425 57H424Q394 23 357 4.5Q320 -14 279 -14Q240 -14 210 0.5Q180 15 166 40V-240H83V480H166V192Q166 127 199 90Q232 53 291 53Q331 53 361 68Q391 83 422 120V480H505V134Q505 101 506.5 61.5Q508 22 511 0H431ZM284 564ZM274 -20ZM464 -20Z" glyph-name="mu" horiz-adv-x="590" unicode="&#181;" /><glyph d="M118 96 68 142 231 305 68 468 117 514 280 351 441 515 490 469 328 305 490 142 441 96 280 259Z" glyph-name="multiply" horiz-adv-x="560" unicode="&#215;" /><glyph d="M118 166 68 212 231 375 68 538 117 584 280 421 441 585 490 539 328 375 490 212 441 166 280 329Z" glyph-name="multiply.case" horiz-adv-x="560" /><glyph d="M164 427H165Q213 466 249 480Q285 494 330 494Q414 494 462.5 445Q511 396 511 312V0H430V306Q430 360 398 394Q366 428 312 428Q275 428 241.5 410.5Q208 393 167 352V0H86V377Q86 405 84 429.5Q82 454 77 480H156Q159 470 161 455Q163 440 164 427ZM290 564ZM289 -20ZM464 -20Z" glyph-name="n" horiz-adv-x="590" unicode="n" /><glyph d="M164 427H165Q213 466 249 480Q285 494 330 494Q414 494 462.5 445Q511 396 511 312V0H430V306Q430 360 398 394Q366 428 312 428Q275 428 241.5 410.5Q208 393 167 352V0H86V377Q86 405 84 429.5Q82 454 77 480H156Q159 470 161 455Q163 440 164 427ZM437 713 310 569H237L343 713ZM274 564" glyph-name="nacute" horiz-adv-x="590" unicode="&#324;" /><glyph d="M164 427H165Q213 466 249 480Q285 494 330 494Q414 494 462.5 445Q511 396 511 312V0H430V306Q430 360 398 394Q366 428 312 428Q275 428 241.5 410.5Q208 393 167 352V0H86V377Q86 405 84 429.5Q82 454 77 480H156Q159 470 161 455Q163 440 164 427ZM31 569 67 713H150L105 569Z" glyph-name="napostrophe" horiz-adv-x="590" unicode="&#329;" /><glyph d="M176 0H90V708H195L589 113H592L588 708H675V0H567L176 588H173ZM106 801 142 945H225L180 801Z" glyph-name="napostrophe.case" horiz-adv-x="765" /><glyph d="M164 427H165Q213 466 249 480Q285 494 330 494Q414 494 462.5 445Q511 396 511 312V0H430V306Q430 360 398 394Q366 428 312 428Q275 428 241.5 410.5Q208 393 167 352V0H86V377Q86 405 84 429.5Q82 454 77 480H156Q159 470 161 455Q163 440 164 427ZM137 713H218L294 596L371 713H454L345 569H243ZM274 564" glyph-name="ncaron" horiz-adv-x="590" unicode="&#328;" /><glyph d="M164 427H165Q213 466 249 480Q285 494 330 494Q414 494 462.5 445Q511 396 511 312V0H430V306Q430 360 398 394Q366 428 312 428Q275 428 241.5 410.5Q208 393 167 352V0H86V377Q86 405 84 429.5Q82 454 77 480H156Q159 470 161 455Q163 440 164 427ZM217 -232 270 -50H354L288 -232ZM274 -20" glyph-name="ncommaaccent" horiz-adv-x="590" unicode="&#326;" /><glyph d="M450 299 265 0H168L362 302L361 303Q344 290 315.5 281.5Q287 273 259 273Q166 273 104 335.5Q42 398 42 493Q42 595 109 659.5Q176 724 280 724Q382 724 449.5 659.5Q517 595 517 496Q517 448 501.5 402Q486 356 450 299ZM435 497Q435 565 391 610.5Q347 656 280 656Q211 656 167.5 611Q124 566 124 496Q124 427 167 383Q210 339 278 339Q347 339 391 383.5Q435 428 435 497Z" glyph-name="nine" horiz-adv-x="560" unicode="9" /><glyph d="M514 484Q514 346 427.5 218Q341 90 177 -12L130 44Q221 102 284 165Q347 228 382 296Q356 281 326.5 273.5Q297 266 264 266Q168 266 106 327.5Q44 389 44 489Q44 592 111 657Q178 722 281 722Q384 722 449 656.5Q514 591 514 484ZM132 489Q132 422 174 380.5Q216 339 282 339Q321 339 352.5 350Q384 361 415 386Q420 407 423 429.5Q426 452 426 477Q426 556 386 602.5Q346 649 281 649Q215 649 173.5 604Q132 559 132 489Z" glyph-name="nine.alt" horiz-adv-x="560" /><glyph d="M275 33 169 -134H92L207 46L205 47Q197 36 182.5 30Q168 24 151 24Q99 24 62.5 62Q26 100 26 158Q26 223 67.5 263Q109 303 174 303Q239 303 280 263.5Q321 224 321 159Q321 130 310.5 100.5Q300 71 275 33ZM254 159Q254 197 231.5 221.5Q209 246 174 246Q138 246 115.5 221.5Q93 197 93 159Q93 121 115.5 96.5Q138 72 172 72Q207 72 230.5 97Q254 122 254 159Z" glyph-name="nine.denominator" horiz-adv-x="348" unicode="&#57505;" /><glyph d="M275 585 169 418H92L207 598L205 599Q197 588 182.5 582Q168 576 151 576Q99 576 62.5 614Q26 652 26 710Q26 775 67.5 815Q109 855 174 855Q239 855 280 815.5Q321 776 321 711Q321 682 310.5 652.5Q300 623 275 585ZM254 711Q254 749 231.5 773.5Q209 798 174 798Q138 798 115.5 773.5Q93 749 93 711Q93 673 115.5 648.5Q138 624 172 624Q207 624 230.5 649Q254 674 254 711Z" glyph-name="nine.numerator" horiz-adv-x="348" unicode="&#57495;" /><glyph d="M452 299 267 0H170L364 302L363 303Q346 290 317.5 281.5Q289 273 261 273Q168 273 106 335.5Q44 398 44 493Q44 595 111 659.5Q178 724 282 724Q384 724 451.5 659.5Q519 595 519 496Q519 448 503.5 402Q488 356 452 299ZM437 497Q437 565 393 610.5Q349 656 282 656Q213 656 169.5 611Q126 566 126 496Q126 427 169 383Q212 339 280 339Q349 339 393 383.5Q437 428 437 497Z" glyph-name="nine.plf" horiz-adv-x="564" unicode="&#57392;" /><glyph d="M434 94 242 -226H143L331 78Q314 72 297 68.5Q280 65 264 65Q167 65 102.5 130Q38 195 38 293Q38 392 104 455.5Q170 519 273 519Q375 519 440 456Q505 393 505 293Q505 245 489 200.5Q473 156 434 94ZM271 134Q332 134 376 180Q420 226 420 292Q420 361 378.5 405Q337 449 272 449Q207 449 165.5 405Q124 361 124 292Q124 223 165.5 178.5Q207 134 271 134Z" glyph-name="nine.posf" horiz-adv-x="553" unicode="&#57446;" /><glyph d="M450 299 265 0H168L362 302L361 303Q344 290 315.5 281.5Q287 273 259 273Q166 273 104 335.5Q42 398 42 493Q42 595 109 659.5Q176 724 280 724Q382 724 449.5 659.5Q517 595 517 496Q517 448 501.5 402Q486 356 450 299ZM435 497Q435 565 391 610.5Q347 656 280 656Q211 656 167.5 611Q124 566 124 496Q124 427 167 383Q210 339 278 339Q347 339 391 383.5Q435 428 435 497Z" glyph-name="nine.tlf" horiz-adv-x="560" unicode="&#57410;" /><glyph d="M441 94 249 -226H150L338 78Q321 72 304 68.5Q287 65 271 65Q174 65 109.5 130Q45 195 45 293Q45 392 111 455.5Q177 519 280 519Q382 519 447 456Q512 393 512 293Q512 245 496 200.5Q480 156 441 94ZM278 134Q339 134 383 180Q427 226 427 292Q427 361 385.5 405Q344 449 279 449Q214 449 172.5 405Q131 361 131 292Q131 223 172.5 178.5Q214 134 278 134Z" glyph-name="nine.tosf" horiz-adv-x="560" unicode="&#57428;" /><glyph d="M514 280Q514 132 427.5 0Q341 -132 176 -236L114 -184Q219 -119 289 -46.5Q359 26 393 107Q361 89 328.5 80Q296 71 264 71Q168 71 106 130.5Q44 190 44 286Q44 389 110.5 454Q177 519 281 519Q385 519 449.5 453.5Q514 388 514 280ZM132 287Q132 219 174 176Q216 133 282 133Q317 133 349.5 145.5Q382 158 417 186Q421 207 423.5 228.5Q426 250 426 272Q426 351 386 398Q346 445 281 445Q216 445 174 400.5Q132 356 132 287Z" glyph-name="nine.tosf.alt" horiz-adv-x="560" /><glyph d="M275 167 169 0H92L207 180L205 181Q197 170 182.5 164Q168 158 151 158Q99 158 62.5 196Q26 234 26 292Q26 357 67.5 397Q109 437 174 437Q239 437 280 397.5Q321 358 321 293Q321 264 310.5 234.5Q300 205 275 167ZM254 293Q254 331 231.5 355.5Q209 380 174 380Q138 380 115.5 355.5Q93 331 93 293Q93 255 115.5 230.5Q138 206 172 206Q207 206 230.5 231Q254 256 254 293Z" glyph-name="nineinferior" horiz-adv-x="348" unicode="&#8329;" /><glyph d="M275 452 169 285H92L207 465L205 466Q197 455 182.5 449Q168 443 151 443Q99 443 62.5 481Q26 519 26 577Q26 642 67.5 682Q109 722 174 722Q239 722 280 682.5Q321 643 321 578Q321 549 310.5 519.5Q300 490 275 452ZM254 578Q254 616 231.5 640.5Q209 665 174 665Q138 665 115.5 640.5Q93 616 93 578Q93 540 115.5 515.5Q138 491 172 491Q207 491 230.5 516Q254 541 254 578Z" glyph-name="ninesuperior" horiz-adv-x="348" unicode="&#8313;" /><glyph d="M524 246V183H247L167 21L114 46L182 183H35V246H213L270 360H35V423H301L369 560L423 538L366 423H524V360H335L278 246Z" glyph-name="notequal" horiz-adv-x="560" unicode="&#8800;" /><glyph d="M524 316V253H247L167 91L114 116L182 253H35V316H213L270 430H35V493H301L369 630L423 608L366 493H524V430H335L278 316Z" glyph-name="notequal.case" horiz-adv-x="560" /><glyph d="M164 427H165Q213 466 249 480Q285 494 330 494Q414 494 462.5 445Q511 396 511 312V0H430V306Q430 360 398 394Q366 428 312 428Q275 428 241.5 410.5Q208 393 167 352V0H86V377Q86 405 84 429.5Q82 454 77 480H156Q159 470 161 455Q163 440 164 427ZM235 711Q257 711 275.5 700.5Q294 690 311 668Q327 649 334.5 642.5Q342 636 350 636Q365 636 373 651.5Q381 667 385 705H438Q434 643 413 613.5Q392 584 354 584Q333 584 314.5 594.5Q296 605 278 627Q261 647 253.5 653Q246 659 239 659Q224 659 216 643.5Q208 628 204 590H152Q156 652 176.5 681.5Q197 711 235 711ZM274 564" glyph-name="ntilde" horiz-adv-x="590" unicode="&#241;" /><glyph d="M353 430H222L202 277H333ZM521 430H414L394 277H493V221H386L357 0H297L325 221H194L165 0H104L132 221H33V277H140L161 430H62V486H169L197 708H259L229 486H361L391 708H451L422 486H521Z" glyph-name="numbersign" horiz-adv-x="574" unicode="#" /><glyph d="M303 -15Q192 -15 121 55.5Q50 126 50 239Q50 352 121.5 423.5Q193 495 303 495Q415 495 485.5 425Q556 355 556 241Q556 128 484.5 56.5Q413 -15 303 -15ZM303 428Q228 428 180 375Q132 322 132 241Q132 158 180 104.5Q228 51 303 51Q378 51 426 104.5Q474 158 474 239Q474 321 426 374.5Q378 428 303 428ZM292 564ZM292 -20ZM405 -20Z" glyph-name="o" horiz-adv-x="608" unicode="o" /><glyph d="M303 -15Q192 -15 121 55.5Q50 126 50 239Q50 352 121.5 423.5Q193 495 303 495Q415 495 485.5 425Q556 355 556 241Q556 128 484.5 56.5Q413 -15 303 -15ZM303 428Q228 428 180 375Q132 322 132 241Q132 158 180 104.5Q228 51 303 51Q378 51 426 104.5Q474 158 474 239Q474 321 426 374.5Q378 428 303 428ZM445 713 318 569H245L351 713ZM282 564" glyph-name="oacute" horiz-adv-x="608" unicode="&#243;" /><glyph d="M303 -15Q192 -15 121 55.5Q50 126 50 239Q50 352 121.5 423.5Q193 495 303 495Q415 495 485.5 425Q556 355 556 241Q556 128 484.5 56.5Q413 -15 303 -15ZM303 428Q228 428 180 375Q132 322 132 241Q132 158 180 104.5Q228 51 303 51Q378 51 426 104.5Q474 158 474 239Q474 321 426 374.5Q378 428 303 428ZM371 703H439Q429 641 392.5 606.5Q356 572 300 572Q245 572 209.5 606.5Q174 641 166 703H233Q236 669 254.5 649Q273 629 300 629Q331 629 348.5 647Q366 665 371 703ZM282 564" glyph-name="obreve" horiz-adv-x="608" unicode="&#335;" /><glyph d="M303 -15Q192 -15 121 55.5Q50 126 50 239Q50 352 121.5 423.5Q193 495 303 495Q415 495 485.5 425Q556 355 556 241Q556 128 484.5 56.5Q413 -15 303 -15ZM303 428Q228 428 180 375Q132 322 132 241Q132 158 180 104.5Q228 51 303 51Q378 51 426 104.5Q474 158 474 239Q474 321 426 374.5Q378 428 303 428ZM462 569H380L303 687L226 569H145L252 713H354ZM282 564" glyph-name="ocircumflex" horiz-adv-x="608" unicode="&#244;" /><glyph d="M303 -15Q192 -15 121 55.5Q50 126 50 239Q50 352 121.5 423.5Q193 495 303 495Q415 495 485.5 425Q556 355 556 241Q556 128 484.5 56.5Q413 -15 303 -15ZM303 428Q228 428 180 375Q132 322 132 241Q132 158 180 104.5Q228 51 303 51Q378 51 426 104.5Q474 158 474 239Q474 321 426 374.5Q378 428 303 428ZM432 650Q432 631 418 617Q404 603 385 603Q365 603 350.5 616.5Q336 630 336 650Q336 669 350.5 682.5Q365 696 385 696Q404 696 418 682.5Q432 669 432 650ZM269 650Q269 631 255 617Q241 603 222 603Q202 603 188 616.5Q174 630 174 650Q174 669 188 682.5Q202 696 222 696Q241 696 255 682.5Q269 669 269 650ZM282 564" glyph-name="odieresis" horiz-adv-x="608" unicode="&#246;" /><glyph d="M714 429Q651 429 608 387Q565 345 557 280H868Q862 349 821 389Q780 429 714 429ZM304 426Q229 426 182 374Q135 322 135 241Q135 159 182 106.5Q229 54 304 54Q378 54 425.5 106.5Q473 159 473 239Q473 320 425.5 373Q378 426 304 426ZM922 119V37Q876 10 831.5 -2.5Q787 -15 734 -15Q659 -15 601.5 13Q544 41 512 94Q479 42 424.5 13.5Q370 -15 304 -15Q192 -15 121 55.5Q50 126 50 240Q50 353 122 425Q194 497 304 497Q370 497 425 468.5Q480 440 513 388Q544 439 596.5 467Q649 495 713 495Q819 495 882 428.5Q945 362 945 256V221H557Q565 139 611 94.5Q657 50 736 50Q787 50 830.5 66.5Q874 83 922 119Z" glyph-name="oe" horiz-adv-x="999" unicode="&#339;" /><glyph d="M147 -187Q166 -187 182.5 -180.5Q199 -174 211 -162L228 -196Q210 -211 186 -219Q162 -227 132 -227Q85 -227 57.5 -205Q30 -183 30 -144Q30 -110 56 -73.5Q82 -37 132 0H183Q134 -46 114 -75.5Q94 -105 94 -133Q94 -158 108 -172.5Q122 -187 147 -187ZM120 0Z" glyph-name="ogonek" horiz-adv-x="282" unicode="&#731;" /><glyph d="M303 -15Q192 -15 121 55.5Q50 126 50 239Q50 352 121.5 423.5Q193 495 303 495Q415 495 485.5 425Q556 355 556 241Q556 128 484.5 56.5Q413 -15 303 -15ZM303 428Q228 428 180 375Q132 322 132 241Q132 158 180 104.5Q228 51 303 51Q378 51 426 104.5Q474 158 474 239Q474 321 426 374.5Q378 428 303 428ZM360 569H287L162 713H254ZM282 564" glyph-name="ograve" horiz-adv-x="608" unicode="&#242;" /><glyph d="M303 -15Q192 -15 121 55.5Q50 126 50 239Q50 352 121.5 423.5Q193 495 303 495Q415 495 485.5 425Q556 355 556 241Q556 128 484.5 56.5Q413 -15 303 -15ZM303 428Q228 428 180 375Q132 322 132 241Q132 158 180 104.5Q228 51 303 51Q378 51 426 104.5Q474 158 474 239Q474 321 426 374.5Q378 428 303 428ZM524 713 398 569H332L438 713ZM370 713 243 569H178L283 713ZM282 564" glyph-name="ohungarumlaut" horiz-adv-x="608" unicode="&#337;" /><glyph d="M303 -15Q192 -15 121 55.5Q50 126 50 239Q50 352 121.5 423.5Q193 495 303 495Q415 495 485.5 425Q556 355 556 241Q556 128 484.5 56.5Q413 -15 303 -15ZM303 428Q228 428 180 375Q132 322 132 241Q132 158 180 104.5Q228 51 303 51Q378 51 426 104.5Q474 158 474 239Q474 321 426 374.5Q378 428 303 428ZM434 613H170V665H434ZM282 564" glyph-name="omacron" horiz-adv-x="608" unicode="&#333;" /><glyph d="M359 0H273V606Q245 575 209.5 549Q174 523 128 500L96 569Q145 594 189.5 628Q234 662 277 708H359Z" glyph-name="one" horiz-adv-x="560" unicode="1" /><glyph d="M359 0H273V606Q245 575 209.5 549Q174 523 128 500L96 569Q145 594 189.5 628Q234 662 277 708H359Z" glyph-name="one.alt" horiz-adv-x="560" /><glyph d="M232 -134H165V224Q145 202 125 186Q105 170 84 160L52 206Q83 222 112 243.5Q141 265 170 293H232Z" glyph-name="one.denominator" horiz-adv-x="348" unicode="&#57497;" /><glyph d="M232 418H165V776Q145 754 125 738Q105 722 84 712L52 758Q83 774 112 795.5Q141 817 170 845H232Z" glyph-name="one.numerator" horiz-adv-x="348" unicode="&#57487;" /><glyph d="M257 0H170V609Q143 577 113 552.5Q83 528 51 511L10 578Q50 599 90 630.5Q130 662 174 708H257Z" glyph-name="one.plf" horiz-adv-x="339" unicode="&#57384;" /><glyph d="M256 508V0H169V418Q140 383 111 358Q82 333 51 316L10 377Q49 399 88 430.5Q127 462 169 508Z" glyph-name="one.posf" horiz-adv-x="338" unicode="&#57438;" /><glyph d="M359 0H273V606Q245 575 209.5 549Q174 523 128 500L96 569Q145 594 189.5 628Q234 662 277 708H359Z" glyph-name="one.tlf" horiz-adv-x="560" unicode="&#57402;" /><glyph d="M354 508V0H267V418Q238 383 209 358Q180 333 149 316L108 377Q147 399 186 430.5Q225 462 267 508Z" glyph-name="one.tosf" horiz-adv-x="560" unicode="&#57420;" /><glyph d="M354 508V0H267V418Q238 383 209 358Q180 333 149 316L108 377Q147 399 186 430.5Q225 462 267 508Z" glyph-name="one.tosf.alt" horiz-adv-x="560" /><glyph d="M232 285H165V643Q145 621 125 605Q105 589 84 579L52 625Q83 641 112 662.5Q141 684 170 712H232ZM623 714 219 -27 173 -6 577 736ZM783 322Q783 290 765.5 263.5Q748 237 718 226V225Q754 214 774.5 185Q795 156 795 118Q795 60 754.5 25.5Q714 -9 650 -9Q585 -9 544.5 25.5Q504 60 504 118Q504 155 525 184Q546 213 582 225V226Q551 238 533.5 264Q516 290 516 322Q516 374 553.5 405.5Q591 437 650 437Q708 437 745.5 405.5Q783 374 783 322ZM718 318Q718 348 698.5 367Q679 386 650 386Q620 386 601 367Q582 348 582 318Q582 288 601.5 267Q621 246 650 246Q679 246 698.5 267Q718 288 718 318ZM729 119Q729 154 706.5 176.5Q684 199 650 199Q615 199 593 176.5Q571 154 571 119Q571 84 593 62Q615 40 650 40Q685 40 707 62.5Q729 85 729 119Z" glyph-name="oneeighth" horiz-adv-x="824" unicode="&#8539;" /><glyph d="M232 285H165V643Q145 621 125 605Q105 589 84 579L52 625Q83 641 112 662.5Q141 684 170 712H232ZM611 714 207 -27 161 -6 565 736ZM642 -9Q604 -9 569.5 1.5Q535 12 510 31V96Q538 70 570 57.5Q602 45 638 45Q676 45 700.5 69.5Q725 94 725 135Q725 177 698.5 201.5Q672 226 626 226Q603 226 575 221Q547 216 525 208V427H769V375H586V257Q598 262 615 265Q632 268 652 268Q715 268 753 232Q791 196 791 135Q791 68 749.5 29.5Q708 -9 642 -9Z" glyph-name="onefifth" horiz-adv-x="824" unicode="&#57468;" /><glyph d="M232 285H165V643Q145 621 125 605Q105 589 84 579L52 625Q83 641 112 662.5Q141 684 170 712H232ZM623 714 219 -27 173 -6 577 736ZM504 0V51L652 201Q689 238 702 261Q715 284 715 307Q715 339 695.5 359Q676 379 644 379Q609 379 576.5 361.5Q544 344 511 308V379Q538 407 573 422Q608 437 647 437Q707 437 745 403.5Q783 370 783 316Q783 281 768.5 251.5Q754 222 701 167L595 53H786V0Z" glyph-name="onehalf" horiz-adv-x="824" unicode="&#189;" /><glyph d="M232 0H165V358Q145 336 125 320Q105 304 84 294L52 340Q83 356 112 377.5Q141 399 170 427H232Z" glyph-name="oneinferior" horiz-adv-x="348" unicode="&#8321;" /><glyph d="M232 285H165V643Q145 621 125 605Q105 589 84 579L52 625Q83 641 112 662.5Q141 684 170 712H232ZM618 714 214 -27 168 -6 572 736ZM751 167 645 0H568L683 180L681 181Q673 170 658.5 164Q644 158 627 158Q575 158 538.5 196Q502 234 502 292Q502 357 543.5 397Q585 437 650 437Q715 437 756 397.5Q797 358 797 293Q797 264 786.5 234.5Q776 205 751 167ZM730 293Q730 331 707.5 355.5Q685 380 650 380Q614 380 591.5 355.5Q569 331 569 293Q569 255 591.5 230.5Q614 206 648 206Q683 206 706.5 231Q730 256 730 293Z" glyph-name="oneninth" horiz-adv-x="824" unicode="&#57480;" /><glyph d="M232 285H165V643Q145 621 125 605Q105 589 84 579L52 625Q83 641 112 662.5Q141 684 170 712H232ZM645 714 241 -27 195 -6 599 736ZM807 94H752V0H687V94H490V149Q516 211 565.5 287Q615 363 670 427H752V147H807ZM687 147V365H685Q644 312 607.5 254Q571 196 549 147Z" glyph-name="onequarter" horiz-adv-x="824" unicode="&#188;" /><glyph d="M232 285H165V643Q145 621 125 605Q105 589 84 579L52 625Q83 641 112 662.5Q141 684 170 712H232ZM607 714 203 -27 157 -6 561 736ZM786 380 627 0H553L717 373H507V427H786Z" glyph-name="oneseventh" horiz-adv-x="824" unicode="&#57474;" /><glyph d="M232 285H165V643Q145 621 125 605Q105 589 84 579L52 625Q83 641 112 662.5Q141 684 170 712H232ZM637 714 233 -27 187 -6 591 736ZM549 261 653 427H731L617 249V248Q626 258 642 264.5Q658 271 675 271Q725 271 761 231.5Q797 192 797 134Q797 70 755.5 30.5Q714 -9 649 -9Q583 -9 542.5 30Q502 69 502 134Q502 164 513.5 195Q525 226 549 261ZM569 134Q569 96 591.5 71.5Q614 47 650 47Q685 47 707.5 71.5Q730 96 730 134Q730 172 707.5 197Q685 222 651 222Q617 222 593 196.5Q569 171 569 134Z" glyph-name="onesixth" horiz-adv-x="824" unicode="&#57472;" /><glyph d="M232 285H165V643Q145 621 125 605Q105 589 84 579L52 625Q83 641 112 662.5Q141 684 170 712H232Z" glyph-name="onesuperior" horiz-adv-x="348" unicode="&#185;" /><glyph d="M232 285H165V643Q145 621 125 605Q105 589 84 579L52 625Q83 641 112 662.5Q141 684 170 712H232ZM621 714 217 -27 171 -6 575 736ZM639 380Q606 380 574.5 368.5Q543 357 516 335V399Q541 417 574 427Q607 437 643 437Q704 437 739 406.5Q774 376 774 322Q774 285 753.5 259Q733 233 697 225V224Q738 216 762.5 187Q787 158 787 119Q787 60 747 25.5Q707 -9 640 -9Q603 -9 566.5 3.5Q530 16 504 37V107Q533 78 569 62.5Q605 47 644 47Q678 47 698.5 68Q719 89 719 123Q719 158 693 178Q667 198 625 198H583V244H628Q665 244 686 262.5Q707 281 707 315Q707 344 688 362Q669 380 639 380Z" glyph-name="onethird" horiz-adv-x="824" unicode="&#8531;" /><glyph d="M250 497V573L177 564Q132 558 115.5 546Q99 534 99 509Q99 485 115 472Q131 459 161 459Q188 459 212 469.5Q236 480 250 497ZM42 506Q42 544 67.5 564Q93 584 155 592L239 605Q244 606 246.5 608Q249 610 249 615V616Q249 648 231 664Q213 680 177 680Q143 680 114.5 669.5Q86 659 60 637V684Q79 701 112 711Q145 721 181 721Q242 721 274.5 691.5Q307 662 307 607V501Q307 483 308.5 464Q310 445 312 430H256Q254 435 253 442Q252 449 251 463Q234 445 204 433.5Q174 422 145 422Q97 422 69.5 444Q42 466 42 506ZM318 354V315H41V354Z" glyph-name="ordfeminine" horiz-adv-x="363" unicode="&#170;" /><glyph d="M181 721Q247 721 288.5 680Q330 639 330 573Q330 506 288 464.5Q246 423 181 423Q116 423 74.5 465Q33 507 33 573Q33 639 74.5 680Q116 721 181 721ZM277 573Q277 619 250 649.5Q223 680 181 680Q139 680 112.5 649.5Q86 619 86 573Q86 526 113 495.5Q140 465 182 465Q224 465 250.5 495.5Q277 526 277 573ZM319 354V316H42V354Z" glyph-name="ordmasculine" horiz-adv-x="363" unicode="&#186;" /><glyph d="M303 427Q228 427 180 374.5Q132 322 132 241Q132 199 145.5 163Q159 127 184 101L381 409Q364 418 344.5 422.5Q325 427 303 427ZM303 52Q378 52 426 105Q474 158 474 239Q474 279 461 315Q448 351 423 377L226 70Q243 61 262.5 56.5Q282 52 303 52ZM556 241Q556 128 484.5 56.5Q413 -15 303 -15Q271 -15 242 -8.5Q213 -2 188 10L156 -40H94L143 37Q98 72 74 124Q50 176 50 240Q50 352 121.5 424Q193 496 303 496Q334 496 364 489.5Q394 483 421 471L452 520H514L465 443Q509 409 532.5 357Q556 305 556 241Z" glyph-name="oslash" horiz-adv-x="608" unicode="&#248;" /><glyph d="M303 -15Q192 -15 121 55.5Q50 126 50 239Q50 352 121.5 423.5Q193 495 303 495Q415 495 485.5 425Q556 355 556 241Q556 128 484.5 56.5Q413 -15 303 -15ZM303 428Q228 428 180 375Q132 322 132 241Q132 158 180 104.5Q228 51 303 51Q378 51 426 104.5Q474 158 474 239Q474 321 426 374.5Q378 428 303 428ZM243 711Q265 711 283.5 700.5Q302 690 319 668Q335 649 342.5 642.5Q350 636 358 636Q373 636 381 651.5Q389 667 393 705H446Q442 643 421 613.5Q400 584 362 584Q341 584 322.5 594.5Q304 605 286 627Q269 647 261.5 653Q254 659 247 659Q232 659 224 643.5Q216 628 212 590H160Q164 652 184.5 681.5Q205 711 243 711ZM282 564" glyph-name="otilde" horiz-adv-x="608" unicode="&#245;" /><glyph d="M326 51Q397 51 443 105Q489 159 489 241Q489 322 442.5 375Q396 428 325 428Q279 428 243.5 410Q208 392 165 347V117Q204 81 241 66Q278 51 326 51ZM330 -14Q284 -14 245.5 -2.5Q207 9 166 34H165V-240H84V480H157L162 427H164Q203 461 244.5 477.5Q286 494 334 494Q439 494 505 424.5Q571 355 571 243Q571 130 503.5 58Q436 -14 330 -14ZM321 564ZM302 -20Z" glyph-name="p" horiz-adv-x="622" unicode="p" /><glyph d="M524 -127H454V649H336V-127H266V337Q170 338 111 387.5Q52 437 52 516Q52 610 113 659Q174 708 288 708H524Z" glyph-name="paragraph" horiz-adv-x="616" unicode="&#182;" /><glyph d="M259 -124 198 -160Q134 -67 98 52Q62 171 62 292Q62 413 98 532.5Q134 652 198 744L259 708Q202 629 169.5 517Q137 405 137 292Q137 179 169.5 67Q202 -45 259 -124Z" glyph-name="parenleft" horiz-adv-x="306" unicode="(" /><glyph d="M259 -54 198 -90Q134 3 98 122Q62 241 62 362Q62 483 98 602.5Q134 722 198 814L259 778Q202 699 169.5 587Q137 475 137 362Q137 249 169.5 137Q202 25 259 -54Z" glyph-name="parenleft.case" horiz-adv-x="306" /><glyph d="M243 292Q243 169 207.5 50.5Q172 -68 107 -160L46 -124Q103 -45 136 67.5Q169 180 169 292Q169 404 136 516.5Q103 629 46 708L107 744Q171 652 207 533Q243 414 243 292Z" glyph-name="parenright" horiz-adv-x="306" unicode=")" /><glyph d="M243 362Q243 239 207.5 120.5Q172 2 107 -90L46 -54Q103 25 136 137.5Q169 250 169 362Q169 474 136 586.5Q103 699 46 778L107 814Q171 722 207 603Q243 484 243 362Z" glyph-name="parenright.case" horiz-adv-x="306" /><glyph d="M557 259Q557 135 486.5 60Q416 -15 304 -15Q192 -15 121 55.5Q50 126 50 240Q50 350 122 420Q194 490 304 490Q352 490 389.5 471Q427 452 458 414Q424 524 339 589.5Q254 655 118 676L143 722Q343 698 450 578Q557 458 557 259ZM135 241Q135 159 182 106.5Q229 54 304 54Q378 54 425.5 106.5Q473 159 473 239Q473 320 425.5 373Q378 426 304 426Q229 426 182 374Q135 322 135 241ZM292 564ZM292 -20ZM405 -20Z" glyph-name="partialdiff" horiz-adv-x="609" unicode="&#8706;" /><glyph d="M675 710 241 -31 183 -2 619 739ZM216 719Q287 719 338 668Q389 617 389 545Q389 473 338.5 422.5Q288 372 216 372Q144 372 93.5 422.5Q43 473 43 545Q43 617 93.5 668Q144 719 216 719ZM216 442Q258 442 288 472Q318 502 318 545Q318 588 288 618Q258 648 216 648Q173 648 143.5 618Q114 588 114 545Q114 502 143.5 472Q173 442 216 442ZM643 335Q715 335 765.5 284.5Q816 234 816 162Q816 90 765.5 39.5Q715 -11 643 -11Q571 -11 520.5 39.5Q470 90 470 162Q470 234 520.5 284.5Q571 335 643 335ZM643 59Q686 59 715.5 89Q745 119 745 162Q745 205 715.5 235Q686 265 643 265Q601 265 571 235Q541 205 541 162Q541 119 571 89Q601 59 643 59Z" glyph-name="percent" horiz-adv-x="860" unicode="%" /><glyph d="M197 47Q197 23 180.5 7.5Q164 -8 141 -8Q116 -8 100 7.5Q84 23 84 47Q84 70 101 86.5Q118 103 141 103Q164 103 180.5 86.5Q197 70 197 47Z" glyph-name="period" horiz-adv-x="281" unicode="." /><glyph d="M141 283Q119 283 104 297.5Q89 312 89 333Q89 354 104.5 368.5Q120 383 141 383Q162 383 176.5 368.5Q191 354 191 333Q191 312 176 297.5Q161 283 141 283Z" glyph-name="periodcentered" horiz-adv-x="282" unicode="&#183;" /><glyph d="M603 709 137 -30 89 -2 556 737ZM197 721Q262 721 308 675Q354 629 354 564Q354 499 308 453.5Q262 408 197 408Q132 408 86.5 453.5Q41 499 41 564Q41 629 86.5 675Q132 721 197 721ZM106 564Q106 525 132.5 498Q159 471 197 471Q236 471 263 498Q290 525 290 564Q290 603 263 630Q236 657 197 657Q159 657 132.5 630Q106 603 106 564ZM849 303Q914 303 960 257Q1006 211 1006 146Q1006 81 960.5 36Q915 -9 849 -9Q784 -9 738.5 36Q693 81 693 146Q693 211 738.5 257Q784 303 849 303ZM499 303Q564 303 610 257Q656 211 656 146Q656 81 610.5 36Q565 -9 499 -9Q434 -9 388.5 36Q343 81 343 146Q343 211 388.5 257Q434 303 499 303ZM849 53Q888 53 915 80Q942 107 942 146Q942 185 915 212Q888 239 849 239Q811 239 784 212Q757 185 757 146Q757 107 784 80Q811 53 849 53ZM499 53Q538 53 565 80Q592 107 592 146Q592 185 565 212Q538 239 499 239Q461 239 434 212Q407 185 407 146Q407 107 434 80Q461 53 499 53Z" glyph-name="perthousand" horiz-adv-x="1047" unicode="&#8240;" /><glyph d="M510 50Q517 50 527.5 51.5Q538 53 544 55V-3Q531 -6 520 -7Q509 -8 493 -8Q433 -8 409.5 18.5Q386 45 386 111V420H185V0H102V420H35V480H542V420H470V114Q470 78 479 64Q488 50 510 50Z" glyph-name="pi" horiz-adv-x="595" unicode="&#960;" /><glyph d="M35 271V335H245V550H316V335H524V271H316V56H245V271Z" glyph-name="plus" horiz-adv-x="560" unicode="+" /><glyph d="M35 341V405H245V620H316V405H524V341H316V126H245V341Z" glyph-name="plus.case" horiz-adv-x="560" /><glyph d="M32 309V375H242V561H312V375H528V309H314V127H243V309ZM33 0V64H526V0Z" glyph-name="plusminus" horiz-adv-x="560" unicode="&#177;" /><glyph d="M624 786V-214H534V715H170V-214H82V786Z" glyph-name="product" horiz-adv-x="706" unicode="&#8719;" /><glyph d="M289 -14Q182 -14 116 56Q50 126 50 239Q50 352 115.5 423Q181 494 283 494Q323 494 359 484Q395 474 435 448Q445 442 448 440.5Q451 439 453 439Q457 439 459 442.5Q461 446 461 452V480H536V-127Q536 -157 540 -177Q544 -197 555 -214L483 -244Q469 -226 462 -199Q455 -172 455 -137V49Q413 16 373.5 1Q334 -14 289 -14ZM293 51Q339 51 378.5 69.5Q418 88 455 127V354Q420 390 378 409Q336 428 291 428Q222 428 177 374Q132 320 132 240Q132 159 177.5 105Q223 51 293 51ZM292 564ZM292 -20Z" glyph-name="q" horiz-adv-x="621" unicode="q" /><glyph d="M536 -240H455V49Q413 16 373.5 1Q334 -14 289 -14Q182 -14 116 56Q50 126 50 239Q50 352 115.5 423Q181 494 283 494Q323 494 359 484Q395 474 435 448Q445 442 448 440.5Q451 439 453 439Q457 439 459 442.5Q461 446 461 452V480H536ZM293 51Q339 51 378.5 69.5Q418 88 455 127V354Q420 390 378 409Q336 428 291 428Q222 428 177 374Q132 320 132 240Q132 159 177.5 105Q223 51 293 51ZM292 564ZM292 -20Z" glyph-name="q.alt" horiz-adv-x="621" /><glyph d="M476 544Q476 496 456.5 460Q437 424 372 374L305 318V200H219V342L320 422Q360 456 373.5 481Q387 506 387 538Q387 592 353 623.5Q319 655 263 655Q209 655 173.5 624.5Q138 594 128 541H46Q59 628 117 677Q175 726 264 726Q361 726 418.5 677Q476 628 476 544ZM320 45Q320 22 303.5 7Q287 -8 262 -8Q237 -8 220.5 7Q204 22 204 45Q204 69 221 85Q238 101 262 101Q286 101 303 84.5Q320 68 320 45Z" glyph-name="question" horiz-adv-x="518" unicode="?" /><glyph d="M197 388Q197 411 214 427Q231 443 255 443Q279 443 296.5 427Q314 411 314 388Q314 364 297 348Q280 332 255 332Q231 332 214 348.5Q197 365 197 388ZM41 -109Q41 -62 61 -26.5Q81 9 146 59L213 115V233H298V92L198 11Q160 -19 145.5 -45Q131 -71 131 -103Q131 -157 165 -188.5Q199 -220 255 -220Q309 -220 344.5 -189.5Q380 -159 389 -106H472Q459 -194 401 -242.5Q343 -291 254 -291Q156 -291 98.5 -242Q41 -193 41 -109Z" glyph-name="questiondown" horiz-adv-x="518" unicode="&#191;" /><glyph d="M197 660Q197 683 214 699Q231 715 255 715Q279 715 296.5 699Q314 683 314 660Q314 636 297 620Q280 604 255 604Q231 604 214 620.5Q197 637 197 660ZM41 163Q41 210 61 245.5Q81 281 146 331L213 387V505H298V364L198 283Q160 253 145.5 227Q131 201 131 169Q131 115 165 83.5Q199 52 255 52Q309 52 344.5 82.5Q380 113 389 166H472Q459 78 401 29.5Q343 -19 254 -19Q156 -19 98.5 30Q41 79 41 163Z" glyph-name="questiondown.case" horiz-adv-x="518" /><glyph d="M181 461H104V708H181ZM353 461H276V708H353Z" glyph-name="quotedbl" horiz-adv-x="458" unicode="&quot;" /><glyph d="M220 -133 286 110H368L291 -133ZM57 -133 120 110H202L127 -133Z" glyph-name="quotedblbase" horiz-adv-x="428" unicode="&#8222;" /><glyph d="M206 708 141 461H58L136 708ZM370 708 308 461H225L299 708Z" glyph-name="quotedblleft" horiz-adv-x="428" unicode="&#8220;" /><glyph d="M220 461 286 708H368L291 461ZM57 461 120 708H202L127 461Z" glyph-name="quotedblright" horiz-adv-x="428" unicode="&#8221;" /><glyph d="M205 708 142 461H58L135 708Z" glyph-name="quoteleft" horiz-adv-x="264" unicode="&#8216;" /><glyph d="M57 461 120 708H203L127 461Z" glyph-name="quoteright" horiz-adv-x="264" unicode="&#8217;" /><glyph d="M57 -133 120 110H203L127 -133Z" glyph-name="quotesinglbase" horiz-adv-x="264" unicode="&#8218;" /><glyph d="M181 461H104V708H181Z" glyph-name="quotesingle" horiz-adv-x="285" unicode="'" /><glyph d="M163 404H165Q186 448 226.5 471Q267 494 325 494H340V421Q333 422 325 423Q317 424 309 424Q264 424 230 400.5Q196 377 167 325V0H86V377Q86 405 84 429.5Q82 454 77 480H156Q159 464 161 443.5Q163 423 163 404ZM185 564ZM117 -20ZM464 -20Z" glyph-name="r" horiz-adv-x="349" unicode="r" /><glyph d="M163 404H165Q186 448 226.5 471Q267 494 325 494H340V421Q333 422 325 423Q317 424 309 424Q264 424 230 400.5Q196 377 167 325V0H86V377Q86 405 84 429.5Q82 454 77 480H156Q159 464 161 443.5Q163 423 163 404ZM316 713 189 569H116L222 713ZM153 564" glyph-name="racute" horiz-adv-x="349" unicode="&#341;" /><glyph d="M538 786 333 -215H234L69 153L7 123L-10 163L110 220L279 -162L473 786Z" glyph-name="radical" horiz-adv-x="543" unicode="&#8730;" /><glyph d="M163 404H165Q186 448 226.5 471Q267 494 325 494H340V421Q333 422 325 423Q317 424 309 424Q264 424 230 400.5Q196 377 167 325V0H86V377Q86 405 84 429.5Q82 454 77 480H156Q159 464 161 443.5Q163 423 163 404ZM16 713H97L173 596L250 713H333L224 569H122ZM153 564" glyph-name="rcaron" horiz-adv-x="349" unicode="&#345;" /><glyph d="M163 404H165Q186 448 226.5 471Q267 494 325 494H340V421Q333 422 325 423Q317 424 309 424Q264 424 230 400.5Q196 377 167 325V0H86V377Q86 405 84 429.5Q82 454 77 480H156Q159 464 161 443.5Q163 423 163 404ZM47 -232 100 -50H184L118 -232ZM104 -20" glyph-name="rcommaaccent" horiz-adv-x="349" unicode="&#343;" /><glyph d="M301 267Q206 267 139 332.5Q72 398 72 492Q72 586 139 652.5Q206 719 301 719Q395 719 461.5 652.5Q528 586 528 492Q528 398 461.5 332.5Q395 267 301 267ZM301 694Q216 694 156.5 634.5Q97 575 97 492Q97 409 157 350Q217 291 301 291Q383 291 442 350.5Q501 410 501 492Q501 575 442 634.5Q383 694 301 694ZM257 588V505H297Q326 505 340.5 516Q355 527 355 549Q355 568 342 578Q329 588 306 588ZM342 479 413 368H361L297 473H257V368H211V624H306Q351 624 376.5 604Q402 584 402 548Q402 521 385.5 502Q369 483 342 479Z" glyph-name="registered" horiz-adv-x="600" unicode="&#174;" /><glyph d="M197 713 155 569H71L127 713ZM120 -20Z" glyph-name="revcommaaccent" horiz-adv-x="282" unicode="&#57738;" /><glyph d="M141 559Q95 559 63 590Q31 621 31 666Q31 710 63.5 741.5Q96 773 141 773Q186 773 218 741.5Q250 710 250 666Q250 621 218 590Q186 559 141 559ZM141 722Q117 722 101 706Q85 690 85 666Q85 642 101 625.5Q117 609 141 609Q164 609 180 625.5Q196 642 196 666Q196 689 180 705.5Q164 722 141 722ZM120 564Z" glyph-name="ring" horiz-adv-x="282" unicode="&#730;" /><glyph d="M224 -14Q179 -14 134.5 -1Q90 12 51 36V128Q91 92 136.5 71.5Q182 51 224 51Q268 51 294.5 71Q321 91 321 125Q321 159 298 177Q275 195 192 216Q126 232 91.5 268Q57 304 57 356Q57 418 107 456.5Q157 495 230 495Q272 495 309 484.5Q346 474 383 451V363Q341 398 305 413.5Q269 429 231 429Q190 429 164.5 411Q139 393 139 362Q139 329 161.5 312Q184 295 252 277Q331 257 367 222Q403 187 403 132Q403 66 352 26Q301 -14 224 -14ZM210 564ZM211 -20ZM415 -20Z" glyph-name="s" horiz-adv-x="448" unicode="s" /><glyph d="M224 -14Q179 -14 134.5 -1Q90 12 51 36V128Q91 92 136.5 71.5Q182 51 224 51Q268 51 294.5 71Q321 91 321 125Q321 159 298 177Q275 195 192 216Q126 232 91.5 268Q57 304 57 356Q57 418 107 456.5Q157 495 230 495Q272 495 309 484.5Q346 474 383 451V363Q341 398 305 413.5Q269 429 231 429Q190 429 164.5 411Q139 393 139 362Q139 329 161.5 312Q184 295 252 277Q331 257 367 222Q403 187 403 132Q403 66 352 26Q301 -14 224 -14ZM366 713 239 569H166L272 713ZM203 564" glyph-name="sacute" horiz-adv-x="448" unicode="&#347;" /><glyph d="M224 -14Q179 -14 134.5 -1Q90 12 51 36V128Q91 92 136.5 71.5Q182 51 224 51Q268 51 294.5 71Q321 91 321 125Q321 159 298 177Q275 195 192 216Q126 232 91.5 268Q57 304 57 356Q57 418 107 456.5Q157 495 230 495Q272 495 309 484.5Q346 474 383 451V363Q341 398 305 413.5Q269 429 231 429Q190 429 164.5 411Q139 393 139 362Q139 329 161.5 312Q184 295 252 277Q331 257 367 222Q403 187 403 132Q403 66 352 26Q301 -14 224 -14ZM66 713H147L223 596L300 713H383L274 569H172ZM203 564" glyph-name="scaron" horiz-adv-x="448" unicode="&#353;" /><glyph d="M341 -142Q341 -184 304.5 -207Q268 -230 210 -230Q186 -230 156.5 -224Q127 -218 104 -209L120 -172Q136 -180 160.5 -184.5Q185 -189 206 -189Q239 -189 258 -176.5Q277 -164 277 -141Q277 -121 262 -111Q247 -101 218 -101Q203 -101 186 -104.5Q169 -108 159 -113L137 -96L198 -13Q159 -9 121.5 3.5Q84 16 51 36V128Q91 92 136.5 71.5Q182 51 224 51Q268 51 294.5 71Q321 91 321 125Q321 159 298 177Q275 195 192 216Q126 232 91.5 268Q57 304 57 356Q57 418 107 456.5Q157 495 230 495Q272 495 309 484.5Q346 474 383 451V363Q341 398 305 413.5Q269 429 231 429Q190 429 164.5 411Q139 393 139 362Q139 329 161.5 312Q184 295 252 277Q331 257 367 222Q403 187 403 132Q403 73 361.5 34.5Q320 -4 252 -12L205 -74Q214 -71 224.5 -70Q235 -69 248 -69Q291 -69 316 -88Q341 -107 341 -142Z" glyph-name="scedilla" horiz-adv-x="448" unicode="&#351;" /><glyph d="M224 -14Q179 -14 134.5 -1Q90 12 51 36V128Q91 92 136.5 71.5Q182 51 224 51Q268 51 294.5 71Q321 91 321 125Q321 159 298 177Q275 195 192 216Q126 232 91.5 268Q57 304 57 356Q57 418 107 456.5Q157 495 230 495Q272 495 309 484.5Q346 474 383 451V363Q341 398 305 413.5Q269 429 231 429Q190 429 164.5 411Q139 393 139 362Q139 329 161.5 312Q184 295 252 277Q331 257 367 222Q403 187 403 132Q403 66 352 26Q301 -14 224 -14ZM383 569H301L224 687L147 569H66L173 713H275ZM203 564" glyph-name="scircumflex" horiz-adv-x="448" unicode="&#349;" /><glyph d="M316 386 261 406Q219 398 193.5 372.5Q168 347 168 309Q168 274 190 250.5Q212 227 278 203L335 182Q378 186 404.5 212Q431 238 431 277Q431 311 405.5 336Q380 361 316 386ZM484 27Q484 -49 426 -94Q368 -139 277 -139Q217 -139 162 -115.5Q107 -92 73 -52L122 12Q155 -28 196 -49Q237 -70 282 -70Q331 -70 362 -44.5Q393 -19 393 23Q393 57 369 81Q345 105 279 130L246 142Q152 177 121 211Q90 245 90 303Q90 352 120 387.5Q150 423 201 438Q155 462 137 491Q119 520 119 564Q119 637 175.5 682Q232 727 317 727Q377 727 424 707Q471 687 502 648L449 592Q424 625 391 642Q358 659 319 659Q272 659 240 632Q208 605 208 561Q208 527 227.5 505.5Q247 484 316 458L348 446Q438 412 473.5 375Q509 338 509 283Q509 233 479 198Q449 163 397 150Q441 130 462.5 99.5Q484 69 484 27Z" glyph-name="section" horiz-adv-x="600" unicode="&#167;" /><glyph d="M154 378Q130 378 113.5 394Q97 410 97 434Q97 458 113.5 474.5Q130 491 154 491Q177 491 193.5 474.5Q210 458 210 434Q210 410 193.5 394Q177 378 154 378ZM199 81 118 -148H49L114 81Z" glyph-name="semicolon" horiz-adv-x="307" unicode=";" /><glyph d="M190 715Q226 715 257.5 704Q289 693 312 673V604Q287 629 256 642.5Q225 656 193 656Q159 656 136.5 640.5Q114 625 114 600Q114 578 128.5 564Q143 550 192 535Q263 515 293 487.5Q323 460 323 417Q323 363 282 329.5Q241 296 178 296Q138 296 101.5 308.5Q65 321 41 343V415Q70 386 104 370.5Q138 355 174 355Q209 355 231.5 370.5Q254 386 254 412Q254 432 240 445Q226 458 166 477Q103 495 74 524.5Q45 554 45 599Q45 651 85.5 683Q126 715 190 715ZM468 628 470 304H395V708H493L624 387H626L755 708H853V304H778L780 628H778L641 304H604L470 628Z" glyph-name="servicemark" horiz-adv-x="937" unicode="&#8480;" /><glyph d="M491 630 204 0H111L407 633H53V708H491Z" glyph-name="seven" horiz-adv-x="560" unicode="7" /><glyph d="M378 362Q322 259 286 166.5Q250 74 238 0H149Q160 76 197 169.5Q234 263 306 394Q357 484 380.5 541.5Q404 599 404 633H52V708H493V671Q493 617 467 546Q441 475 378 362Z" glyph-name="seven.alt" horiz-adv-x="560" /><glyph d="M310 246 151 -134H77L241 239H31V293H310Z" glyph-name="seven.denominator" horiz-adv-x="348" unicode="&#57503;" /><glyph d="M310 798 151 418H77L241 791H31V845H310Z" glyph-name="seven.numerator" horiz-adv-x="348" unicode="&#57493;" /><glyph d="M465 630 181 0H87L381 633H26V708H465Z" glyph-name="seven.plf" horiz-adv-x="497" unicode="&#57390;" /><glyph d="M18 507H440V431L152 -226H57L350 438H18Z" glyph-name="seven.posf" horiz-adv-x="474" unicode="&#57444;" /><glyph d="M491 630 204 0H111L407 633H53V708H491Z" glyph-name="seven.tlf" horiz-adv-x="560" unicode="&#57408;" /><glyph d="M64 507H486V431L198 -226H103L396 438H64Z" glyph-name="seven.tosf" horiz-adv-x="560" unicode="&#57426;" /><glyph d="M372 152Q317 51 281 -46Q245 -143 232 -226H139Q151 -141 189 -41Q227 59 296 186Q350 280 374.5 339Q399 398 399 432H52V506H493V465Q493 411 467.5 343.5Q442 276 372 152Z" glyph-name="seven.tosf.alt" horiz-adv-x="560" /><glyph d="M310 665 151 285H77L241 658H31V712H310ZM603 714 199 -27 153 -6 557 736ZM783 322Q783 290 765.5 263.5Q748 237 718 226V225Q754 214 774.5 185Q795 156 795 118Q795 60 754.5 25.5Q714 -9 650 -9Q585 -9 544.5 25.5Q504 60 504 118Q504 155 525 184Q546 213 582 225V226Q551 238 533.5 264Q516 290 516 322Q516 374 553.5 405.5Q591 437 650 437Q708 437 745.5 405.5Q783 374 783 322ZM718 318Q718 348 698.5 367Q679 386 650 386Q620 386 601 367Q582 348 582 318Q582 288 601.5 267Q621 246 650 246Q679 246 698.5 267Q718 288 718 318ZM729 119Q729 154 706.5 176.5Q684 199 650 199Q615 199 593 176.5Q571 154 571 119Q571 84 593 62Q615 40 650 40Q685 40 707 62.5Q729 85 729 119Z" glyph-name="seveneighths" horiz-adv-x="824" unicode="&#8542;" /><glyph d="M310 380 151 0H77L241 373H31V427H310Z" glyph-name="seveninferior" horiz-adv-x="348" unicode="&#8327;" /><glyph d="M310 665 151 285H77L241 658H31V712H310ZM599 714 195 -27 149 -6 553 736ZM751 167 645 0H568L683 180L681 181Q673 170 658.5 164Q644 158 627 158Q575 158 538.5 196Q502 234 502 292Q502 357 543.5 397Q585 437 650 437Q715 437 756 397.5Q797 358 797 293Q797 264 786.5 234.5Q776 205 751 167ZM730 293Q730 331 707.5 355.5Q685 380 650 380Q614 380 591.5 355.5Q569 331 569 293Q569 255 591.5 230.5Q614 206 648 206Q683 206 706.5 231Q730 256 730 293Z" glyph-name="sevenninths" horiz-adv-x="824" unicode="&#57484;" /><glyph d="M310 665 151 285H77L241 658H31V712H310Z" glyph-name="sevensuperior" horiz-adv-x="348" unicode="&#8311;" /><glyph d="M114 410 300 708H397L202 408L204 406Q220 419 248 427Q276 435 305 435Q398 435 460 372Q522 309 522 214Q522 113 455.5 48.5Q389 -16 285 -16Q182 -16 114.5 48.5Q47 113 47 212Q47 258 62 303Q77 348 114 410ZM130 211Q130 143 174 97.5Q218 52 285 52Q353 52 396.5 97Q440 142 440 212Q440 281 397 325.5Q354 370 287 370Q218 370 174 325Q130 280 130 211Z" glyph-name="six" horiz-adv-x="560" unicode="6" /><glyph d="M515 219Q515 116 448.5 51Q382 -14 278 -14Q173 -14 109 54Q45 122 45 237Q45 366 134 492Q223 618 388 720L435 663Q342 605 277 540.5Q212 476 176 406Q203 422 233 430Q263 438 295 438Q391 438 453 377.5Q515 317 515 219ZM133 230Q133 151 173.5 104.5Q214 58 279 58Q344 58 385.5 103Q427 148 427 218Q427 284 385 325Q343 366 277 366Q243 366 210.5 355Q178 344 144 321Q138 299 135.5 277Q133 255 133 230Z" glyph-name="six.alt" horiz-adv-x="560" /><glyph d="M73 127 177 293H255L141 115V114Q150 124 166 130.5Q182 137 199 137Q249 137 285 97.5Q321 58 321 0Q321 -64 279.5 -103.5Q238 -143 173 -143Q107 -143 66.5 -104Q26 -65 26 0Q26 30 37.5 61Q49 92 73 127ZM93 0Q93 -38 115.5 -62.5Q138 -87 174 -87Q209 -87 231.5 -62.5Q254 -38 254 0Q254 38 231.5 63Q209 88 175 88Q141 88 117 62.5Q93 37 93 0Z" glyph-name="six.denominator" horiz-adv-x="348" unicode="&#57502;" /><glyph d="M73 679 177 845H255L141 667V666Q150 676 166 682.5Q182 689 199 689Q249 689 285 649.5Q321 610 321 552Q321 488 279.5 448.5Q238 409 173 409Q107 409 66.5 448Q26 487 26 552Q26 582 37.5 613Q49 644 73 679ZM93 552Q93 514 115.5 489.5Q138 465 174 465Q209 465 231.5 489.5Q254 514 254 552Q254 590 231.5 615Q209 640 175 640Q141 640 117 614.5Q93 589 93 552Z" glyph-name="six.numerator" horiz-adv-x="348" unicode="&#57492;" /><glyph d="M116 410 302 708H399L204 408L206 406Q222 419 250 427Q278 435 307 435Q400 435 462 372Q524 309 524 214Q524 113 457.5 48.5Q391 -16 287 -16Q184 -16 116.5 48.5Q49 113 49 212Q49 258 64 303Q79 348 116 410ZM132 211Q132 143 176 97.5Q220 52 287 52Q355 52 398.5 97Q442 142 442 212Q442 281 399 325.5Q356 370 289 370Q220 370 176 325Q132 280 132 211Z" glyph-name="six.plf" horiz-adv-x="564" unicode="&#57389;" /><glyph d="M514 213Q514 115 448 51.5Q382 -12 280 -12Q177 -12 112.5 50.5Q48 113 48 213Q48 265 64.5 312Q81 359 118 417L291 708H391L221 430Q237 436 254 439Q271 442 289 442Q385 442 449.5 376.5Q514 311 514 213ZM282 372Q220 372 176.5 326Q133 280 133 213Q133 145 174.5 101Q216 57 281 57Q346 57 387.5 101Q429 145 429 213Q429 282 387 327Q345 372 282 372Z" glyph-name="six.posf" horiz-adv-x="553" unicode="&#57443;" /><glyph d="M114 410 300 708H397L202 408L204 406Q220 419 248 427Q276 435 305 435Q398 435 460 372Q522 309 522 214Q522 113 455.5 48.5Q389 -16 285 -16Q182 -16 114.5 48.5Q47 113 47 212Q47 258 62 303Q77 348 114 410ZM130 211Q130 143 174 97.5Q218 52 285 52Q353 52 396.5 97Q440 142 440 212Q440 281 397 325.5Q354 370 287 370Q218 370 174 325Q130 280 130 211Z" glyph-name="six.tlf" horiz-adv-x="560" unicode="&#57407;" /><glyph d="M513 213Q513 115 447 51.5Q381 -12 279 -12Q176 -12 111.5 50.5Q47 113 47 213Q47 265 63.5 312Q80 359 117 417L290 708H390L220 430Q236 436 253 439Q270 442 288 442Q384 442 448.5 376.5Q513 311 513 213ZM281 372Q219 372 175.5 326Q132 280 132 213Q132 145 173.5 101Q215 57 280 57Q345 57 386.5 101Q428 145 428 213Q428 282 386 327Q344 372 281 372Z" glyph-name="six.tosf" horiz-adv-x="560" unicode="&#57425;" /><glyph d="M515 219Q515 116 448.5 51Q382 -14 278 -14Q173 -14 109 54Q45 122 45 237Q45 366 134 492Q223 618 388 720L435 663Q342 605 277 540.5Q212 476 176 406Q203 422 233 430Q263 438 295 438Q391 438 453 377.5Q515 317 515 219ZM133 230Q133 151 173.5 104.5Q214 58 279 58Q344 58 385.5 103Q427 148 427 218Q427 284 385 325Q343 366 277 366Q243 366 210.5 355Q178 344 144 321Q138 299 135.5 277Q133 255 133 230Z" glyph-name="six.tosf.alt" horiz-adv-x="560" /><glyph d="M73 261 177 427H255L141 249V248Q150 258 166 264.5Q182 271 199 271Q249 271 285 231.5Q321 192 321 134Q321 70 279.5 30.5Q238 -9 173 -9Q107 -9 66.5 30Q26 69 26 134Q26 164 37.5 195Q49 226 73 261ZM93 134Q93 96 115.5 71.5Q138 47 174 47Q209 47 231.5 71.5Q254 96 254 134Q254 172 231.5 197Q209 222 175 222Q141 222 117 196.5Q93 171 93 134Z" glyph-name="sixinferior" horiz-adv-x="348" unicode="&#8326;" /><glyph d="M73 546 177 712H255L141 534V533Q150 543 166 549.5Q182 556 199 556Q249 556 285 516.5Q321 477 321 419Q321 355 279.5 315.5Q238 276 173 276Q107 276 66.5 315Q26 354 26 419Q26 449 37.5 480Q49 511 73 546ZM93 419Q93 381 115.5 356.5Q138 332 174 332Q209 332 231.5 356.5Q254 381 254 419Q254 457 231.5 482Q209 507 175 507Q141 507 117 481.5Q93 456 93 419ZM622 714 218 -27 172 -6 576 736ZM786 380 627 0H553L717 373H507V427H786Z" glyph-name="sixsevenths" horiz-adv-x="824" unicode="&#57479;" /><glyph d="M73 546 177 712H255L141 534V533Q150 543 166 549.5Q182 556 199 556Q249 556 285 516.5Q321 477 321 419Q321 355 279.5 315.5Q238 276 173 276Q107 276 66.5 315Q26 354 26 419Q26 449 37.5 480Q49 511 73 546ZM93 419Q93 381 115.5 356.5Q138 332 174 332Q209 332 231.5 356.5Q254 381 254 419Q254 457 231.5 482Q209 507 175 507Q141 507 117 481.5Q93 456 93 419Z" glyph-name="sixsuperior" horiz-adv-x="348" unicode="&#8310;" /><glyph d="M386 708 89 0H11L308 708Z" glyph-name="slash" horiz-adv-x="397" unicode="/" /><glyph glyph-name="space" horiz-adv-x="250" unicode=" " /><glyph d="M368 726Q407 726 441.5 717Q476 708 507 690V600Q468 627 437.5 638.5Q407 650 377 650Q313 650 280.5 609.5Q248 569 248 491V399H401V332H248V74H494V0H54V74H162V332H61V399H162V499Q162 605 216.5 665.5Q271 726 368 726Z" glyph-name="sterling" horiz-adv-x="560" unicode="&#163;" /><glyph d="M554 -143V-214H41V-141L339 289L55 713V786H543V715H149L435 289L137 -143Z" glyph-name="summation" horiz-adv-x="595" unicode="&#8721;" /><glyph d="M308 63V0Q289 -6 270.5 -9Q252 -12 237 -12Q173 -12 138 22Q103 56 103 119V412H12V480H103V610H182V480H309V412H182V135Q182 94 201 74Q220 54 258 54Q269 54 283 56.5Q297 59 308 63ZM134 641ZM158 -20Z" glyph-name="t" horiz-adv-x="330" unicode="t" /><glyph d="M308 63V0Q289 -6 270.5 -9Q252 -12 237 -12Q173 -12 138 22Q103 56 103 119V229H24V281H103V412H12V480H103V610H182V480H309V412H182V281H288V229H182V135Q182 94 201 74Q220 54 258 54Q269 54 283 56.5Q297 59 308 63Z" glyph-name="tbar" horiz-adv-x="330" unicode="&#359;" /><glyph d="M308 63V0Q289 -6 270.5 -9Q252 -12 237 -12Q173 -12 138 22Q103 56 103 119V412H12V480H103V610H182V480H309V412H182V135Q182 94 201 74Q220 54 258 54Q269 54 283 56.5Q297 59 308 63ZM214 535 260 713H343L284 535Z" glyph-name="tcaron" horiz-adv-x="330" unicode="&#357;" /><glyph d="M489 241Q489 322 442.5 375Q396 428 325 428Q279 428 243 409Q207 390 165 343V119Q203 83 240.5 67Q278 51 326 51Q397 51 443 105Q489 159 489 241ZM330 -14Q284 -14 245 -2Q206 10 166 36H165V-240H84V708H165V424Q205 460 246 477Q287 494 334 494Q439 494 505 424.5Q571 355 571 243Q571 130 503 58Q435 -14 330 -14ZM321 564ZM302 -20Z" glyph-name="thorn" horiz-adv-x="622" unicode="&#254;" /><glyph d="M263 648Q212 648 166.5 629Q121 610 69 567V662Q115 694 162 708Q209 722 266 722Q362 722 418 672.5Q474 623 474 537Q474 478 437 432.5Q400 387 340 374V371Q412 354 453.5 306Q495 258 495 194Q495 99 432 42.5Q369 -14 263 -14Q203 -14 147 5.5Q91 25 44 62V167Q98 112 153 86Q208 60 269 59Q331 58 369 97Q407 136 407 199Q407 260 361 295.5Q315 331 240 331H178V404H242Q307 404 346.5 437Q386 470 386 528Q386 582 352 615Q318 648 263 648Z" glyph-name="three" horiz-adv-x="560" unicode="3" /><glyph d="M263 648Q212 648 166.5 629Q121 610 69 567V662Q115 694 162 708Q209 722 266 722Q362 722 418 672.5Q474 623 474 537Q474 478 437 432.5Q400 387 340 374V371Q412 354 453.5 306Q495 258 495 194Q495 99 432 42.5Q369 -14 263 -14Q203 -14 147 5.5Q91 25 44 62V167Q98 112 153 86Q208 60 269 59Q331 58 369 97Q407 136 407 199Q407 260 361 295.5Q315 331 240 331H178V404H242Q307 404 346.5 437Q386 470 386 528Q386 582 352 615Q318 648 263 648Z" glyph-name="three.alt" horiz-adv-x="560" /><glyph d="M163 246Q130 246 98.5 234.5Q67 223 40 201V265Q65 283 98 293Q131 303 167 303Q228 303 263 272.5Q298 242 298 188Q298 151 277.5 125Q257 99 221 91V90Q262 82 286.5 53Q311 24 311 -15Q311 -74 271 -108.5Q231 -143 164 -143Q127 -143 90.5 -130.5Q54 -118 28 -97V-27Q57 -56 93 -71.5Q129 -87 168 -87Q202 -87 222.5 -66Q243 -45 243 -11Q243 24 217 44Q191 64 149 64H107V110H152Q189 110 210 128.5Q231 147 231 181Q231 210 212 228Q193 246 163 246Z" glyph-name="three.denominator" horiz-adv-x="348" unicode="&#57499;" /><glyph d="M163 798Q130 798 98.5 786.5Q67 775 40 753V817Q65 835 98 845Q131 855 167 855Q228 855 263 824.5Q298 794 298 740Q298 703 277.5 677Q257 651 221 643V642Q262 634 286.5 605Q311 576 311 537Q311 478 271 443.5Q231 409 164 409Q127 409 90.5 421.5Q54 434 28 455V525Q57 496 93 480.5Q129 465 168 465Q202 465 222.5 486Q243 507 243 541Q243 576 217 596Q191 616 149 616H107V662H152Q189 662 210 680.5Q231 699 231 733Q231 762 212 780Q193 798 163 798Z" glyph-name="three.numerator" horiz-adv-x="348" unicode="&#57489;" /><glyph d="M276 646Q225 646 178 626.5Q131 607 83 566V663Q125 693 173.5 707.5Q222 722 280 722Q378 722 436 672.5Q494 623 494 537Q494 476 457 432.5Q420 389 353 374V371Q428 354 471.5 306Q515 258 515 194Q515 99 450.5 42.5Q386 -14 276 -14Q214 -14 157.5 5.5Q101 25 59 61V168Q109 115 163.5 88.5Q218 62 282 60Q346 59 386.5 98Q427 137 427 199Q427 260 378.5 295.5Q330 331 252 331H191V404H255Q324 404 365 436.5Q406 469 406 527Q406 581 370 613.5Q334 646 276 646Z" glyph-name="three.plf" horiz-adv-x="573" unicode="&#57386;" /><glyph d="M466 -23Q466 -120 406.5 -179Q347 -238 244 -238Q180 -238 124 -213.5Q68 -189 35 -147V-34Q73 -95 124.5 -128Q176 -161 234 -161Q302 -161 342.5 -121Q383 -81 383 -16Q383 46 334.5 84Q286 122 215 122H170V194H212Q278 194 318 228Q358 262 358 321Q358 376 323.5 410Q289 444 234 444Q184 444 143 421Q102 398 62 349V449Q93 483 139.5 501Q186 519 245 519Q330 519 385 468Q440 417 440 336Q440 268 404.5 221.5Q369 175 305 160V158Q380 143 423 94.5Q466 46 466 -23Z" glyph-name="three.posf" horiz-adv-x="509" unicode="&#57440;" /><glyph d="M263 648Q212 648 166.5 629Q121 610 69 567V662Q115 694 162 708Q209 722 266 722Q362 722 418 672.5Q474 623 474 537Q474 478 437 432.5Q400 387 340 374V371Q412 354 453.5 306Q495 258 495 194Q495 99 432 42.5Q369 -14 263 -14Q203 -14 147 5.5Q91 25 44 62V167Q98 112 153 86Q208 60 269 59Q331 58 369 97Q407 136 407 199Q407 260 361 295.5Q315 331 240 331H178V404H242Q307 404 346.5 437Q386 470 386 528Q386 582 352 615Q318 648 263 648Z" glyph-name="three.tlf" horiz-adv-x="560" unicode="&#57404;" /><glyph d="M487 -23Q487 -120 427.5 -179Q368 -238 265 -238Q201 -238 145 -213.5Q89 -189 56 -147V-34Q94 -95 145.5 -128Q197 -161 255 -161Q323 -161 363.5 -121Q404 -81 404 -16Q404 46 355.5 84Q307 122 236 122H191V194H233Q299 194 339 228Q379 262 379 321Q379 376 344.5 410Q310 444 255 444Q205 444 164 421Q123 398 83 349V449Q114 483 160.5 501Q207 519 266 519Q351 519 406 468Q461 417 461 336Q461 268 425.5 221.5Q390 175 326 160V158Q401 143 444 94.5Q487 46 487 -23Z" glyph-name="three.tosf" horiz-adv-x="560" unicode="&#57422;" /><glyph d="M487 -23Q487 -120 427.5 -179Q368 -238 265 -238Q201 -238 145 -213.5Q89 -189 56 -147V-34Q94 -95 145.5 -128Q197 -161 255 -161Q323 -161 363.5 -121Q404 -81 404 -16Q404 46 355.5 84Q307 122 236 122H191V194H233Q299 194 339 228Q379 262 379 321Q379 376 344.5 410Q310 444 255 444Q205 444 164 421Q123 398 83 349V449Q114 483 160.5 501Q207 519 266 519Q351 519 406 468Q461 417 461 336Q461 268 425.5 221.5Q390 175 326 160V158Q401 143 444 94.5Q487 46 487 -23Z" glyph-name="three.tosf.alt" horiz-adv-x="560" /><glyph d="M163 665Q130 665 98.5 653.5Q67 642 40 620V684Q65 702 98 712Q131 722 167 722Q228 722 263 691.5Q298 661 298 607Q298 570 277.5 544Q257 518 221 510V509Q262 501 286.5 472Q311 443 311 404Q311 345 271 310.5Q231 276 164 276Q127 276 90.5 288.5Q54 301 28 322V392Q57 363 93 347.5Q129 332 168 332Q202 332 222.5 353Q243 374 243 408Q243 443 217 463Q191 483 149 483H107V529H152Q189 529 210 547.5Q231 566 231 600Q231 629 212 647Q193 665 163 665ZM637 714 233 -27 187 -6 591 736ZM783 322Q783 290 765.5 263.5Q748 237 718 226V225Q754 214 774.5 185Q795 156 795 118Q795 60 754.5 25.5Q714 -9 650 -9Q585 -9 544.5 25.5Q504 60 504 118Q504 155 525 184Q546 213 582 225V226Q551 238 533.5 264Q516 290 516 322Q516 374 553.5 405.5Q591 437 650 437Q708 437 745.5 405.5Q783 374 783 322ZM718 318Q718 348 698.5 367Q679 386 650 386Q620 386 601 367Q582 348 582 318Q582 288 601.5 267Q621 246 650 246Q679 246 698.5 267Q718 288 718 318ZM729 119Q729 154 706.5 176.5Q684 199 650 199Q615 199 593 176.5Q571 154 571 119Q571 84 593 62Q615 40 650 40Q685 40 707 62.5Q729 85 729 119Z" glyph-name="threeeighths" horiz-adv-x="824" unicode="&#8540;" /><glyph d="M163 665Q130 665 98.5 653.5Q67 642 40 620V684Q65 702 98 712Q131 722 167 722Q228 722 263 691.5Q298 661 298 607Q298 570 277.5 544Q257 518 221 510V509Q262 501 286.5 472Q311 443 311 404Q311 345 271 310.5Q231 276 164 276Q127 276 90.5 288.5Q54 301 28 322V392Q57 363 93 347.5Q129 332 168 332Q202 332 222.5 353Q243 374 243 408Q243 443 217 463Q191 483 149 483H107V529H152Q189 529 210 547.5Q231 566 231 600Q231 629 212 647Q193 665 163 665ZM627 714 223 -27 177 -6 581 736ZM642 -9Q604 -9 569.5 1.5Q535 12 510 31V96Q538 70 570 57.5Q602 45 638 45Q676 45 700.5 69.5Q725 94 725 135Q725 177 698.5 201.5Q672 226 626 226Q603 226 575 221Q547 216 525 208V427H769V375H586V257Q598 262 615 265Q632 268 652 268Q715 268 753 232Q791 196 791 135Q791 68 749.5 29.5Q708 -9 642 -9Z" glyph-name="threefifths" horiz-adv-x="824" unicode="&#57470;" /><glyph d="M163 380Q130 380 98.5 368.5Q67 357 40 335V399Q65 417 98 427Q131 437 167 437Q228 437 263 406.5Q298 376 298 322Q298 285 277.5 259Q257 233 221 225V224Q262 216 286.5 187Q311 158 311 119Q311 60 271 25.5Q231 -9 164 -9Q127 -9 90.5 3.5Q54 16 28 37V107Q57 78 93 62.5Q129 47 168 47Q202 47 222.5 68Q243 89 243 123Q243 158 217 178Q191 198 149 198H107V244H152Q189 244 210 262.5Q231 281 231 315Q231 344 212 362Q193 380 163 380Z" glyph-name="threeinferior" horiz-adv-x="348" unicode="&#8323;" /><glyph d="M163 665Q130 665 98.5 653.5Q67 642 40 620V684Q65 702 98 712Q131 722 167 722Q228 722 263 691.5Q298 661 298 607Q298 570 277.5 544Q257 518 221 510V509Q262 501 286.5 472Q311 443 311 404Q311 345 271 310.5Q231 276 164 276Q127 276 90.5 288.5Q54 301 28 322V392Q57 363 93 347.5Q129 332 168 332Q202 332 222.5 353Q243 374 243 408Q243 443 217 463Q191 483 149 483H107V529H152Q189 529 210 547.5Q231 566 231 600Q231 629 212 647Q193 665 163 665ZM659 714 255 -27 209 -6 613 736ZM807 94H752V0H687V94H490V149Q516 211 565.5 287Q615 363 670 427H752V147H807ZM687 147V365H685Q644 312 607.5 254Q571 196 549 147Z" glyph-name="threequarters" horiz-adv-x="824" unicode="&#190;" /><glyph d="M163 665Q130 665 98.5 653.5Q67 642 40 620V684Q65 702 98 712Q131 722 167 722Q228 722 263 691.5Q298 661 298 607Q298 570 277.5 544Q257 518 221 510V509Q262 501 286.5 472Q311 443 311 404Q311 345 271 310.5Q231 276 164 276Q127 276 90.5 288.5Q54 301 28 322V392Q57 363 93 347.5Q129 332 168 332Q202 332 222.5 353Q243 374 243 408Q243 443 217 463Q191 483 149 483H107V529H152Q189 529 210 547.5Q231 566 231 600Q231 629 212 647Q193 665 163 665ZM617 714 213 -27 167 -6 571 736ZM786 380 627 0H553L717 373H507V427H786Z" glyph-name="threesevenths" horiz-adv-x="824" unicode="&#57476;" /><glyph d="M163 665Q130 665 98.5 653.5Q67 642 40 620V684Q65 702 98 712Q131 722 167 722Q228 722 263 691.5Q298 661 298 607Q298 570 277.5 544Q257 518 221 510V509Q262 501 286.5 472Q311 443 311 404Q311 345 271 310.5Q231 276 164 276Q127 276 90.5 288.5Q54 301 28 322V392Q57 363 93 347.5Q129 332 168 332Q202 332 222.5 353Q243 374 243 408Q243 443 217 463Q191 483 149 483H107V529H152Q189 529 210 547.5Q231 566 231 600Q231 629 212 647Q193 665 163 665Z" glyph-name="threesuperior" horiz-adv-x="348" unicode="&#179;" /><glyph d="M81 711Q103 711 121.5 700.5Q140 690 157 668Q173 649 180.5 642.5Q188 636 196 636Q211 636 219 651.5Q227 667 231 705H284Q280 643 259 613.5Q238 584 200 584Q179 584 160.5 594.5Q142 605 124 627Q107 647 99.5 653Q92 659 85 659Q70 659 62 643.5Q54 628 50 590H-2Q2 652 22.5 681.5Q43 711 81 711ZM120 564Z" glyph-name="tilde" horiz-adv-x="282" unicode="&#732;" /><glyph d="M353 651H229V304H153V651H30V708H353ZM505 628 507 304H432V708H530L661 387H663L791 708H890V304H815L816 628H814L678 304H641L507 628Z" glyph-name="trademark" horiz-adv-x="974" unicode="&#8482;" /><glyph d="M46 0V74L290 328Q351 391 375.5 433.5Q400 476 400 518Q400 577 364 612.5Q328 648 270 648Q215 648 167.5 622Q120 596 59 532V633Q109 680 161 701Q213 722 279 722Q373 722 430.5 669.5Q488 617 488 530Q488 472 462 421.5Q436 371 351 283L151 74H492V0Z" glyph-name="two" horiz-adv-x="560" unicode="2" /><glyph d="M270 648Q215 648 164 620.5Q113 593 57 532V633Q99 677 154 699.5Q209 722 274 722Q370 722 429 671Q488 620 488 536Q488 489 471.5 447Q455 405 422 366Q403 344 377.5 321.5Q352 299 280 245Q186 174 164 144Q142 114 142 74H493V0H47V38Q47 116 81.5 167.5Q116 219 219 294Q324 371 361.5 419.5Q399 468 399 522Q399 580 364 614Q329 648 270 648Z" glyph-name="two.alt" horiz-adv-x="560" /><glyph d="M28 -134V-83L176 67Q213 104 226 127Q239 150 239 173Q239 205 219.5 225Q200 245 168 245Q133 245 100.5 227.5Q68 210 35 174V245Q62 273 97 288Q132 303 171 303Q231 303 269 269.5Q307 236 307 182Q307 147 292.5 117.5Q278 88 225 33L119 -81H310V-134Z" glyph-name="two.denominator" horiz-adv-x="348" unicode="&#57498;" /><glyph d="M28 418V469L176 619Q213 656 226 679Q239 702 239 725Q239 757 219.5 777Q200 797 168 797Q133 797 100.5 779.5Q68 762 35 726V797Q62 825 97 840Q132 855 171 855Q231 855 269 821.5Q307 788 307 734Q307 699 292.5 669.5Q278 640 225 585L119 471H310V418Z" glyph-name="two.numerator" horiz-adv-x="348" unicode="&#57488;" /><glyph d="M53 0V72L294 322Q364 395 388 436Q412 477 412 517Q412 575 375.5 610.5Q339 646 279 646Q225 646 175 619.5Q125 593 65 531V633Q115 679 168.5 700.5Q222 722 284 722Q379 722 439.5 668.5Q500 615 500 529Q500 473 474.5 424Q449 375 355 276L162 74H504V0Z" glyph-name="two.plf" horiz-adv-x="566" unicode="&#57385;" /><glyph d="M236 446Q190 446 144.5 422.5Q99 399 48 348V443Q85 480 136.5 499.5Q188 519 250 519Q333 519 382.5 477Q432 435 432 360Q432 309 400 267Q368 225 256 143L165 77V74H447V0H36V79L180 180Q293 260 318 290Q343 320 343 355Q343 399 314.5 422.5Q286 446 236 446Z" glyph-name="two.posf" horiz-adv-x="493" unicode="&#57439;" /><glyph d="M46 0V74L290 328Q351 391 375.5 433.5Q400 476 400 518Q400 577 364 612.5Q328 648 270 648Q215 648 167.5 622Q120 596 59 532V633Q109 680 161 701Q213 722 279 722Q373 722 430.5 669.5Q488 617 488 530Q488 472 462 421.5Q436 371 351 283L151 74H492V0Z" glyph-name="two.tlf" horiz-adv-x="560" unicode="&#57403;" /><glyph d="M277 446Q231 446 185.5 422.5Q140 399 89 348V443Q126 480 177.5 499.5Q229 519 291 519Q374 519 423.5 477Q473 435 473 360Q473 309 441 267Q409 225 297 143L206 77V74H488V0H77V79L221 180Q334 260 359 290Q384 320 384 355Q384 399 355.5 422.5Q327 446 277 446Z" glyph-name="two.tosf" horiz-adv-x="560" unicode="&#57421;" /><glyph d="M179 76V74H484V0H72V29Q72 90 97 124.5Q122 159 183 189L264 229Q329 261 355 288Q381 315 381 352Q381 398 353.5 422Q326 446 275 446Q227 446 182 423Q137 400 84 348V441Q124 480 175 499.5Q226 519 287 519Q372 519 420.5 477Q469 435 469 358Q469 298 433.5 253Q398 208 322 173L254 141Q217 124 198 107.5Q179 91 179 76Z" glyph-name="two.tosf.alt" horiz-adv-x="560" /><glyph d="M28 285V336L176 486Q213 523 226 546Q239 569 239 592Q239 624 219.5 644Q200 664 168 664Q133 664 100.5 646.5Q68 629 35 593V664Q62 692 97 707Q132 722 171 722Q231 722 269 688.5Q307 655 307 601Q307 566 292.5 536.5Q278 507 225 452L119 338H310V285ZM643 714 239 -27 193 -6 597 736ZM642 -9Q604 -9 569.5 1.5Q535 12 510 31V96Q538 70 570 57.5Q602 45 638 45Q676 45 700.5 69.5Q725 94 725 135Q725 177 698.5 201.5Q672 226 626 226Q603 226 575 221Q547 216 525 208V427H769V375H586V257Q598 262 615 265Q632 268 652 268Q715 268 753 232Q791 196 791 135Q791 68 749.5 29.5Q708 -9 642 -9Z" glyph-name="twofifths" horiz-adv-x="824" unicode="&#57469;" /><glyph d="M28 0V51L176 201Q213 238 226 261Q239 284 239 307Q239 339 219.5 359Q200 379 168 379Q133 379 100.5 361.5Q68 344 35 308V379Q62 407 97 422Q132 437 171 437Q231 437 269 403.5Q307 370 307 316Q307 281 292.5 251.5Q278 222 225 167L119 53H310V0Z" glyph-name="twoinferior" horiz-adv-x="348" unicode="&#8322;" /><glyph d="M28 285V336L176 486Q213 523 226 546Q239 569 239 592Q239 624 219.5 644Q200 664 168 664Q133 664 100.5 646.5Q68 629 35 593V664Q62 692 97 707Q132 722 171 722Q231 722 269 688.5Q307 655 307 601Q307 566 292.5 536.5Q278 507 225 452L119 338H310V285ZM655 714 251 -27 205 -6 609 736ZM751 167 645 0H568L683 180L681 181Q673 170 658.5 164Q644 158 627 158Q575 158 538.5 196Q502 234 502 292Q502 357 543.5 397Q585 437 650 437Q715 437 756 397.5Q797 358 797 293Q797 264 786.5 234.5Q776 205 751 167ZM730 293Q730 331 707.5 355.5Q685 380 650 380Q614 380 591.5 355.5Q569 331 569 293Q569 255 591.5 230.5Q614 206 648 206Q683 206 706.5 231Q730 256 730 293Z" glyph-name="twoninths" horiz-adv-x="824" unicode="&#57481;" /><glyph d="M28 285V336L176 486Q213 523 226 546Q239 569 239 592Q239 624 219.5 644Q200 664 168 664Q133 664 100.5 646.5Q68 629 35 593V664Q62 692 97 707Q132 722 171 722Q231 722 269 688.5Q307 655 307 601Q307 566 292.5 536.5Q278 507 225 452L119 338H310V285ZM637 714 233 -27 187 -6 591 736ZM786 380 627 0H553L717 373H507V427H786Z" glyph-name="twosevenths" horiz-adv-x="824" unicode="&#57475;" /><glyph d="M28 285V336L176 486Q213 523 226 546Q239 569 239 592Q239 624 219.5 644Q200 664 168 664Q133 664 100.5 646.5Q68 629 35 593V664Q62 692 97 707Q132 722 171 722Q231 722 269 688.5Q307 655 307 601Q307 566 292.5 536.5Q278 507 225 452L119 338H310V285Z" glyph-name="twosuperior" horiz-adv-x="348" unicode="&#178;" /><glyph d="M28 285V336L176 486Q213 523 226 546Q239 569 239 592Q239 624 219.5 644Q200 664 168 664Q133 664 100.5 646.5Q68 629 35 593V664Q62 692 97 707Q132 722 171 722Q231 722 269 688.5Q307 655 307 601Q307 566 292.5 536.5Q278 507 225 452L119 338H310V285ZM647 714 243 -27 197 -6 601 736ZM639 380Q606 380 574.5 368.5Q543 357 516 335V399Q541 417 574 427Q607 437 643 437Q704 437 739 406.5Q774 376 774 322Q774 285 753.5 259Q733 233 697 225V224Q738 216 762.5 187Q787 158 787 119Q787 60 747 25.5Q707 -9 640 -9Q603 -9 566.5 3.5Q530 16 504 37V107Q533 78 569 62.5Q605 47 644 47Q678 47 698.5 68Q719 89 719 123Q719 158 693 178Q667 198 625 198H583V244H628Q665 244 686 262.5Q707 281 707 315Q707 344 688 362Q669 380 639 380Z" glyph-name="twothirds" horiz-adv-x="824" unicode="&#8532;" /><glyph d="M425 56H423Q385 19 347 2.5Q309 -14 261 -14Q173 -14 125 38Q77 90 77 184V480H159V192Q159 128 191 89.5Q223 51 277 51Q316 51 348.5 68.5Q381 86 421 132V480H502V103Q502 74 504 49.5Q506 25 511 0H433Q429 11 427 26.5Q425 42 425 56ZM284 564ZM274 -20ZM464 -20Z" glyph-name="u" horiz-adv-x="590" unicode="u" /><glyph d="M425 56H423Q385 19 347 2.5Q309 -14 261 -14Q173 -14 125 38Q77 90 77 184V480H159V192Q159 128 191 89.5Q223 51 277 51Q316 51 348.5 68.5Q381 86 421 132V480H502V103Q502 74 504 49.5Q506 25 511 0H433Q429 11 427 26.5Q425 42 425 56ZM437 713 310 569H237L343 713ZM274 564" glyph-name="uacute" horiz-adv-x="590" unicode="&#250;" /><glyph d="M425 56H423Q385 19 347 2.5Q309 -14 261 -14Q173 -14 125 38Q77 90 77 184V480H159V192Q159 128 191 89.5Q223 51 277 51Q316 51 348.5 68.5Q381 86 421 132V480H502V103Q502 74 504 49.5Q506 25 511 0H433Q429 11 427 26.5Q425 42 425 56ZM363 703H431Q421 641 384.5 606.5Q348 572 292 572Q237 572 201.5 606.5Q166 641 158 703H225Q228 669 246.5 649Q265 629 292 629Q323 629 340.5 647Q358 665 363 703ZM274 564" glyph-name="ubreve" horiz-adv-x="590" unicode="&#365;" /><glyph d="M425 56H423Q385 19 347 2.5Q309 -14 261 -14Q173 -14 125 38Q77 90 77 184V480H159V192Q159 128 191 89.5Q223 51 277 51Q316 51 348.5 68.5Q381 86 421 132V480H502V103Q502 74 504 49.5Q506 25 511 0H433Q429 11 427 26.5Q425 42 425 56ZM454 569H372L295 687L218 569H137L244 713H346ZM274 564" glyph-name="ucircumflex" horiz-adv-x="590" unicode="&#251;" /><glyph d="M425 56H423Q385 19 347 2.5Q309 -14 261 -14Q173 -14 125 38Q77 90 77 184V480H159V192Q159 128 191 89.5Q223 51 277 51Q316 51 348.5 68.5Q381 86 421 132V480H502V103Q502 74 504 49.5Q506 25 511 0H433Q429 11 427 26.5Q425 42 425 56ZM424 650Q424 631 410 617Q396 603 377 603Q357 603 342.5 616.5Q328 630 328 650Q328 669 342.5 682.5Q357 696 377 696Q396 696 410 682.5Q424 669 424 650ZM261 650Q261 631 247 617Q233 603 214 603Q194 603 180 616.5Q166 630 166 650Q166 669 180 682.5Q194 696 214 696Q233 696 247 682.5Q261 669 261 650ZM274 564" glyph-name="udieresis" horiz-adv-x="590" unicode="&#252;" /><glyph d="M425 56H423Q385 19 347 2.5Q309 -14 261 -14Q173 -14 125 38Q77 90 77 184V480H159V192Q159 128 191 89.5Q223 51 277 51Q316 51 348.5 68.5Q381 86 421 132V480H502V103Q502 74 504 49.5Q506 25 511 0H433Q429 11 427 26.5Q425 42 425 56ZM352 569H279L154 713H246ZM274 564" glyph-name="ugrave" horiz-adv-x="590" unicode="&#249;" /><glyph d="M425 56H423Q385 19 347 2.5Q309 -14 261 -14Q173 -14 125 38Q77 90 77 184V480H159V192Q159 128 191 89.5Q223 51 277 51Q316 51 348.5 68.5Q381 86 421 132V480H502V103Q502 74 504 49.5Q506 25 511 0H433Q429 11 427 26.5Q425 42 425 56ZM516 713 390 569H324L430 713ZM362 713 235 569H170L275 713ZM274 564" glyph-name="uhungarumlaut" horiz-adv-x="590" unicode="&#369;" /><glyph d="M425 56H423Q385 19 347 2.5Q309 -14 261 -14Q173 -14 125 38Q77 90 77 184V480H159V192Q159 128 191 89.5Q223 51 277 51Q316 51 348.5 68.5Q381 86 421 132V480H502V103Q502 74 504 49.5Q506 25 511 0H433Q429 11 427 26.5Q425 42 425 56ZM426 613H162V665H426ZM274 564" glyph-name="umacron" horiz-adv-x="590" unicode="&#363;" /><glyph d="M500 -136H0V-82H500Z" glyph-name="underscore" horiz-adv-x="500" unicode="_" /><glyph glyph-name="uni00A0" horiz-adv-x="250" unicode="&#160;" /><glyph glyph-name="uni00AD" horiz-adv-x="0" unicode="&#173;" /><glyph d="M549 634H325V0H237V634H13V708H549ZM193 -232 246 -50H330L264 -232ZM250 -20" glyph-name="uni0162" horiz-adv-x="562" unicode="&#354;" /><glyph d="M308 63V0Q289 -6 270.5 -9Q252 -12 237 -12Q173 -12 138 22Q103 56 103 119V412H12V480H103V610H182V480H309V412H182V135Q182 94 201 74Q220 54 258 54Q269 54 283 56.5Q297 59 308 63ZM87 -232 140 -50H224L158 -232ZM144 -20" glyph-name="uni0163" horiz-adv-x="330" unicode="&#355;" /><glyph d="M303 728Q357 728 406 712.5Q455 697 499 665V566Q447 612 397 634.5Q347 657 298 657Q234 657 196 623Q158 589 158 531Q158 482 188.5 451.5Q219 421 304 396Q419 362 466.5 313.5Q514 265 514 188Q514 94 447 37Q380 -20 277 -20Q221 -20 166.5 -3.5Q112 13 60 46V150Q119 99 173 74.5Q227 50 278 50Q344 50 384 86Q424 122 424 181Q424 230 390.5 262.5Q357 295 270 321Q161 352 115 400.5Q69 449 69 529Q69 619 134.5 673.5Q200 728 303 728ZM207 -232 260 -50H344L278 -232ZM264 -20" glyph-name="uni0218" horiz-adv-x="570" unicode="&#536;" /><glyph d="M224 -14Q179 -14 134.5 -1Q90 12 51 36V128Q91 92 136.5 71.5Q182 51 224 51Q268 51 294.5 71Q321 91 321 125Q321 159 298 177Q275 195 192 216Q126 232 91.5 268Q57 304 57 356Q57 418 107 456.5Q157 495 230 495Q272 495 309 484.5Q346 474 383 451V363Q341 398 305 413.5Q269 429 231 429Q190 429 164.5 411Q139 393 139 362Q139 329 161.5 312Q184 295 252 277Q331 257 367 222Q403 187 403 132Q403 66 352 26Q301 -14 224 -14ZM146 -232 199 -50H283L217 -232ZM203 -20" glyph-name="uni0219" horiz-adv-x="448" unicode="&#537;" /><glyph d="M549 634H325V0H237V634H13V708H549ZM193 -232 246 -50H330L264 -232ZM250 -20" glyph-name="uni021A" horiz-adv-x="562" unicode="&#538;" /><glyph d="M308 63V0Q289 -6 270.5 -9Q252 -12 237 -12Q173 -12 138 22Q103 56 103 119V412H12V480H103V610H182V480H309V412H182V135Q182 94 201 74Q220 54 258 54Q269 54 283 56.5Q297 59 308 63ZM87 -232 140 -50H224L158 -232ZM144 -20" glyph-name="uni021B" horiz-adv-x="330" unicode="&#539;" /><glyph d="M397 712 652 0H27L279 712ZM131 68H546L337 646Z" glyph-name="uni0394" horiz-adv-x="679" unicode="&#916;" /><glyph d="M74 383Q74 533 171.5 630.5Q269 728 418 728Q567 728 664.5 630.5Q762 533 762 383Q762 277 714.5 201Q667 125 586 94V68H772V0H499V127Q584 155 627.5 219Q671 283 671 380Q671 495 599 572Q527 649 418 649Q309 649 237.5 572Q166 495 166 380Q166 282 209 218Q252 154 337 127V0H64V68H251V94Q169 125 121.5 200.5Q74 276 74 383Z" glyph-name="uni03A9" horiz-adv-x="837" unicode="&#937;" /><glyph d="M318 -14Q252 -14 217 21Q182 56 182 124V214Q178 211 173.5 207.5Q169 204 160 196Q147 186 141 181Q135 176 129 172L103 221Q124 238 144 255Q164 272 182 288V547Q182 628 217.5 674.5Q253 721 312 721Q365 721 397.5 684Q430 647 430 584Q430 513 387 438Q344 363 255 279V146Q255 96 273 70.5Q291 45 326 45Q346 45 368.5 55.5Q391 66 410 85L444 44Q420 16 387.5 1Q355 -14 318 -14ZM311 664Q285 664 270 633.5Q255 603 255 549V362Q307 421 332.5 476Q358 531 358 586Q358 620 344.5 642Q331 664 311 664Z" glyph-name="uni2113" horiz-adv-x="552" unicode="&#8467;" /><glyph d="M289 714 -115 -27 -161 -6 243 736Z" glyph-name="uni2215" horiz-adv-x="127" unicode="&#8725;" /><glyph d="M331 -144Q331 -110 357 -73.5Q383 -37 433 0Q429 11 427 26.5Q425 42 425 56H423Q385 19 347 2.5Q309 -14 261 -14Q173 -14 125 38Q77 90 77 184V480H159V192Q159 128 191 89.5Q223 51 277 51Q316 51 348.5 68.5Q381 86 421 132V480H502V103Q502 74 504 49.5Q506 25 511 0H483Q433 -47 413.5 -76.5Q394 -106 394 -133Q394 -158 408.5 -172.5Q423 -187 448 -187Q467 -187 483.5 -180.5Q500 -174 512 -162L529 -196Q511 -212 487 -219.5Q463 -227 432 -227Q385 -227 358 -205Q331 -183 331 -144ZM284 564ZM274 -20ZM464 -20Z" glyph-name="uogonek" horiz-adv-x="590" unicode="&#371;" /><glyph d="M425 56H423Q385 19 347 2.5Q309 -14 261 -14Q173 -14 125 38Q77 90 77 184V480H159V192Q159 128 191 89.5Q223 51 277 51Q316 51 348.5 68.5Q381 86 421 132V480H502V103Q502 74 504 49.5Q506 25 511 0H433Q429 11 427 26.5Q425 42 425 56ZM295 559Q249 559 217 590Q185 621 185 666Q185 710 217.5 741.5Q250 773 295 773Q340 773 372 741.5Q404 710 404 666Q404 621 372 590Q340 559 295 559ZM295 722Q271 722 255 706Q239 690 239 666Q239 642 255 625.5Q271 609 295 609Q318 609 334 625.5Q350 642 350 666Q350 689 334 705.5Q318 722 295 722ZM274 564" glyph-name="uring" horiz-adv-x="590" unicode="&#367;" /><glyph d="M425 56H423Q385 19 347 2.5Q309 -14 261 -14Q173 -14 125 38Q77 90 77 184V480H159V192Q159 128 191 89.5Q223 51 277 51Q316 51 348.5 68.5Q381 86 421 132V480H502V103Q502 74 504 49.5Q506 25 511 0H433Q429 11 427 26.5Q425 42 425 56ZM235 711Q257 711 275.5 700.5Q294 690 311 668Q327 649 334.5 642.5Q342 636 350 636Q365 636 373 651.5Q381 667 385 705H438Q434 643 413 613.5Q392 584 354 584Q333 584 314.5 594.5Q296 605 278 627Q261 647 253.5 653Q246 659 239 659Q224 659 216 643.5Q208 628 204 590H152Q156 652 176.5 681.5Q197 711 235 711ZM274 564" glyph-name="utilde" horiz-adv-x="590" unicode="&#361;" /><glyph d="M295 0H202L15 480H106L251 80H253L393 480H480ZM222 564ZM221 -20Z" glyph-name="v" horiz-adv-x="496" unicode="v" /><glyph d="M390 388H388L257 0H172L22 480H109L217 94H220L348 480H436L567 94H569L677 480H760L609 0H523ZM347 564ZM347 -20Z" glyph-name="w" horiz-adv-x="782" unicode="w" /><glyph d="M390 388H388L257 0H172L22 480H109L217 94H220L348 480H436L567 94H569L677 480H760L609 0H523ZM533 713 406 569H333L439 713ZM370 564" glyph-name="wacute" horiz-adv-x="782" unicode="&#7811;" /><glyph d="M390 388H388L257 0H172L22 480H109L217 94H220L348 480H436L567 94H569L677 480H760L609 0H523ZM550 569H468L391 687L314 569H233L340 713H442ZM370 564" glyph-name="wcircumflex" horiz-adv-x="782" unicode="&#373;" /><glyph d="M390 388H388L257 0H172L22 480H109L217 94H220L348 480H436L567 94H569L677 480H760L609 0H523ZM520 650Q520 631 506 617Q492 603 473 603Q453 603 438.5 616.5Q424 630 424 650Q424 669 438.5 682.5Q453 696 473 696Q492 696 506 682.5Q520 669 520 650ZM357 650Q357 631 343 617Q329 603 310 603Q290 603 276 616.5Q262 630 262 650Q262 669 276 682.5Q290 696 310 696Q329 696 343 682.5Q357 669 357 650ZM370 564" glyph-name="wdieresis" horiz-adv-x="782" unicode="&#7813;" /><glyph d="M390 388H388L257 0H172L22 480H109L217 94H220L348 480H436L567 94H569L677 480H760L609 0H523ZM448 569H375L250 713H342ZM370 564" glyph-name="wgrave" horiz-adv-x="782" unicode="&#7809;" /><glyph d="M496 0H399L256 198L112 0H17L206 251L37 480H133L258 302L382 480H475L307 251ZM226 564ZM226 -20Z" glyph-name="x" horiz-adv-x="514" unicode="x" /><glyph d="M93 -247V-173Q131 -160 154 -132Q177 -104 197 -51L205 -30Q210 -15 210 -5Q210 5 204 19L19 480H110L256 79L393 480H480L276 -58Q241 -152 200 -194.5Q159 -237 93 -247ZM222 564ZM313 -20Z" glyph-name="y" horiz-adv-x="500" unicode="y" /><glyph d="M93 -247V-173Q131 -160 154 -132Q177 -104 197 -51L205 -30Q210 -15 210 -5Q210 5 204 19L19 480H110L256 79L393 480H480L276 -58Q241 -152 200 -194.5Q159 -237 93 -247ZM392 713 265 569H192L298 713ZM229 564" glyph-name="yacute" horiz-adv-x="500" unicode="&#253;" /><glyph d="M93 -247V-173Q131 -160 154 -132Q177 -104 197 -51L205 -30Q210 -15 210 -5Q210 5 204 19L19 480H110L256 79L393 480H480L276 -58Q241 -152 200 -194.5Q159 -237 93 -247ZM409 569H327L250 687L173 569H92L199 713H301ZM229 564" glyph-name="ycircumflex" horiz-adv-x="500" unicode="&#375;" /><glyph d="M93 -247V-173Q131 -160 154 -132Q177 -104 197 -51L205 -30Q210 -15 210 -5Q210 5 204 19L19 480H110L256 79L393 480H480L276 -58Q241 -152 200 -194.5Q159 -237 93 -247ZM379 650Q379 631 365 617Q351 603 332 603Q312 603 297.5 616.5Q283 630 283 650Q283 669 297.5 682.5Q312 696 332 696Q351 696 365 682.5Q379 669 379 650ZM216 650Q216 631 202 617Q188 603 169 603Q149 603 135 616.5Q121 630 121 650Q121 669 135 682.5Q149 696 169 696Q188 696 202 682.5Q216 669 216 650ZM229 564" glyph-name="ydieresis" horiz-adv-x="500" unicode="&#255;" /><glyph d="M496 238V179H322V0H236V179H66V238H236V342H66V400H201L5 708H106L282 419L455 708H554L357 400H496V342H322V238Z" glyph-name="yen" horiz-adv-x="560" unicode="&#165;" /><glyph d="M93 -247V-173Q131 -160 154 -132Q177 -104 197 -51L205 -30Q210 -15 210 -5Q210 5 204 19L19 480H110L256 79L393 480H480L276 -58Q241 -152 200 -194.5Q159 -237 93 -247ZM307 569H234L109 713H201ZM229 564" glyph-name="ygrave" horiz-adv-x="500" unicode="&#7923;" /><glyph d="M422 0H38V66L313 412H50V480H412V417L134 67H422ZM225 564ZM223 -20Z" glyph-name="z" horiz-adv-x="462" unicode="z" /><glyph d="M422 0H38V66L313 412H50V480H412V417L134 67H422ZM373 713 246 569H173L279 713ZM210 564" glyph-name="zacute" horiz-adv-x="462" unicode="&#378;" /><glyph d="M422 0H38V66L313 412H50V480H412V417L134 67H422ZM73 713H154L230 596L307 713H390L281 569H179ZM210 564" glyph-name="zcaron" horiz-adv-x="462" unicode="&#382;" /><glyph d="M422 0H38V66L313 412H50V480H412V417L134 67H422ZM231 600Q209 600 194 614.5Q179 629 179 650Q179 670 194.5 685Q210 700 231 700Q251 700 266 685Q281 670 281 650Q281 629 266 614.5Q251 600 231 600ZM210 564" glyph-name="zdotaccent" horiz-adv-x="462" unicode="&#380;" /><glyph d="M280 722Q392 722 453.5 623.5Q515 525 515 354Q515 183 453.5 84.5Q392 -14 280 -14Q167 -14 105.5 84Q44 182 44 354Q44 525 105.5 623.5Q167 722 280 722ZM280 60Q352 60 389 136Q426 212 426 354Q426 495 389 571.5Q352 648 280 648Q208 648 170.5 572Q133 496 133 354Q133 212 170.5 136Q208 60 280 60Z" glyph-name="zero" horiz-adv-x="560" unicode="0" /><glyph d="M280 722Q392 722 453.5 623.5Q515 525 515 354Q515 183 453.5 84.5Q392 -14 280 -14Q167 -14 105.5 84Q44 182 44 354Q44 525 105.5 623.5Q167 722 280 722ZM280 60Q352 60 389 136Q426 212 426 354Q426 495 389 571.5Q352 648 280 648Q208 648 170.5 572Q133 496 133 354Q133 212 170.5 136Q208 60 280 60Z" glyph-name="zero.alt" horiz-adv-x="560" /><glyph d="M321 80Q321 -24 282.5 -83.5Q244 -143 174 -143Q103 -143 64.5 -83.5Q26 -24 26 80Q26 183 65 243Q104 303 174 303Q244 303 282.5 243Q321 183 321 80ZM254 80Q254 160 233.5 202.5Q213 245 174 245Q134 245 113.5 203.5Q93 162 93 80Q93 -2 113.5 -44Q134 -86 174 -86Q213 -86 233.5 -43Q254 0 254 80Z" glyph-name="zero.denominator" horiz-adv-x="348" unicode="&#57496;" /><glyph d="M321 632Q321 528 282.5 468.5Q244 409 174 409Q103 409 64.5 468.5Q26 528 26 632Q26 735 65 795Q104 855 174 855Q244 855 282.5 795Q321 735 321 632ZM254 632Q254 712 233.5 754.5Q213 797 174 797Q134 797 113.5 755.5Q93 714 93 632Q93 550 113.5 508Q134 466 174 466Q213 466 233.5 509Q254 552 254 632Z" glyph-name="zero.numerator" horiz-adv-x="348" unicode="&#57486;" /><glyph d="M564 354Q564 181 497 83.5Q430 -14 306 -14Q182 -14 115 84Q48 182 48 354Q48 526 115 624Q182 722 306 722Q430 722 497 624Q564 526 564 354ZM475 354Q475 492 431.5 569Q388 646 306 646Q224 646 180.5 568.5Q137 491 137 354Q137 216 180.5 138.5Q224 61 306 61Q388 61 431.5 138Q475 215 475 354Z" glyph-name="zero.plf" horiz-adv-x="613" unicode="&#57383;" /><glyph d="M304 519Q418 519 489 445.5Q560 372 560 255Q560 138 488.5 62Q417 -14 304 -14Q190 -14 119 59.5Q48 133 48 251Q48 368 119.5 443.5Q191 519 304 519ZM304 61Q379 61 425 115.5Q471 170 471 253Q471 336 425 390Q379 444 304 444Q229 444 183 390Q137 336 137 253Q137 170 183 115.5Q229 61 304 61Z" glyph-name="zero.posf" horiz-adv-x="609" unicode="&#57437;" /><glyph d="M280 722Q392 722 453.5 623.5Q515 525 515 354Q515 183 453.5 84.5Q392 -14 280 -14Q167 -14 105.5 84Q44 182 44 354Q44 525 105.5 623.5Q167 722 280 722ZM280 60Q352 60 389 136Q426 212 426 354Q426 495 389 571.5Q352 648 280 648Q208 648 170.5 572Q133 496 133 354Q133 212 170.5 136Q208 60 280 60Z" glyph-name="zero.tlf" horiz-adv-x="560" unicode="&#57401;" /><glyph d="M280 519Q391 519 459.5 445.5Q528 372 528 255Q528 139 458.5 62.5Q389 -14 280 -14Q169 -14 100.5 59.5Q32 133 32 251Q32 368 101 443.5Q170 519 280 519ZM280 61Q351 61 395 115.5Q439 170 439 253Q439 336 395 390Q351 444 280 444Q208 444 164 390Q120 336 120 253Q120 170 164 115.5Q208 61 280 61Z" glyph-name="zero.tosf" horiz-adv-x="560" unicode="&#57419;" /><glyph d="M280 519Q391 519 459.5 445.5Q528 372 528 255Q528 139 458.5 62.5Q389 -14 280 -14Q169 -14 100.5 59.5Q32 133 32 251Q32 368 101 443.5Q170 519 280 519ZM280 61Q351 61 395 115.5Q439 170 439 253Q439 336 395 390Q351 444 280 444Q208 444 164 390Q120 336 120 253Q120 170 164 115.5Q208 61 280 61Z" glyph-name="zero.tosf.alt" horiz-adv-x="560" /><glyph d="M321 214Q321 110 282.5 50.5Q244 -9 174 -9Q103 -9 64.5 50.5Q26 110 26 214Q26 317 65 377Q104 437 174 437Q244 437 282.5 377Q321 317 321 214ZM254 214Q254 294 233.5 336.5Q213 379 174 379Q134 379 113.5 337.5Q93 296 93 214Q93 132 113.5 90Q134 48 174 48Q213 48 233.5 91Q254 134 254 214Z" glyph-name="zeroinferior" horiz-adv-x="348" unicode="&#8320;" /><glyph d="M321 499Q321 395 282.5 335.5Q244 276 174 276Q103 276 64.5 335.5Q26 395 26 499Q26 602 65 662Q104 722 174 722Q244 722 282.5 662Q321 602 321 499ZM254 499Q254 579 233.5 621.5Q213 664 174 664Q134 664 113.5 622.5Q93 581 93 499Q93 417 113.5 375Q134 333 174 333Q213 333 233.5 376Q254 419 254 499Z" glyph-name="zerosuperior" horiz-adv-x="348" unicode="&#8304;" /></font>
</defs>
</svg>
